<?xml version="1.0" standalone="no"?>
 <!DOCTYPE svg PUBLIC "-//W3C//DTD SVG 1.1//EN" 
 "http://www.w3.org/Graphics/SVG/1.1/DTD/svg11.dtd"> 
<svg
  xmlns:svg="http://www.w3.org/2000/svg"
  xmlns="http://www.w3.org/2000/svg"
  xmlns:xlink="http://www.w3.org/1999/xlink"
  version="1.1"
  width="37.8968mm" height="22.5806mm" viewBox="0.0000 0.0000 37.8968 22.5806">
<title>SVG Image created as hack-brd.svg date 2024/10/10 17:47:01 </title>
  <desc>Image generated by PCBNEW </desc>
<g style="fill:#000000; fill-opacity:1.0000;stroke:#000000; stroke-opacity:1.0000;
stroke-linecap:round; stroke-linejoin:round;"
 transform="translate(0 0) scale(1 1)">
<path style="fill:#000000; fill-opacity:1.0000; stroke:none;fill-rule:evenodd;"
d="M 3.9370,15.5164
3.9370,17.2436
1.9050,17.2436
1.9050,15.5164
Z" /> 
<path style="fill:#000000; fill-opacity:1.0000; stroke:none;fill-rule:evenodd;"
d="M 2.0320,15.5164
2.0320,17.2436
0.0000,17.2436
0.0000,15.5164
Z" /> 
</g>
<g style="fill:#000000; fill-opacity:1.0000; stroke:none;">
<circle cx="2.4638" cy="8.0000" r="0.7000" /> 
</g>
<g style="fill:#000000; fill-opacity:1.0000; stroke:none;">
<circle cx="2.4638" cy="14.6000" r="0.7000" /> 
</g>
<g style="fill:#000000; fill-opacity:1.0000; stroke:none;">
<circle cx="2.4130" cy="11.8500" r="0.4500" /> 
<path style="fill:#000000; fill-opacity:1.0000; stroke:none;fill-rule:evenodd;"
d="M 1.9630,10.8000
2.8630,10.8000
2.8630,11.2000
1.9630,11.2000
Z" /> 
<path style="fill:#000000; fill-opacity:1.0000; stroke:none;fill-rule:evenodd;"
d="M 1.9630,11.4000
2.8630,11.4000
2.8630,11.8000
1.9630,11.8000
Z" /> 
</g>
<g style="fill:#000000; fill-opacity:1.0000; stroke:none;">
<circle cx="2.4130" cy="10.7500" r="0.4500" /> 
<path style="fill:#000000; fill-opacity:1.0000; stroke:none;fill-rule:evenodd;"
d="M 32.5374,19.8090
34.2646,19.8090
34.2646,21.8410
32.5374,21.8410
Z" /> 
<path style="fill:#000000; fill-opacity:1.0000; stroke:none;fill-rule:evenodd;"
d="M 29.9974,19.8090
31.7246,19.8090
31.7246,21.8410
29.9974,21.8410
Z" /> 
<path style="fill:#000000; fill-opacity:1.0000; stroke:none;fill-rule:evenodd;"
d="M 27.4574,19.8090
29.1846,19.8090
29.1846,21.8410
27.4574,21.8410
Z" /> 
<path style="fill:#000000; fill-opacity:1.0000; stroke:none;fill-rule:evenodd;"
d="M 24.9174,19.8090
26.6446,19.8090
26.6446,21.8410
24.9174,21.8410
Z" /> 
<path style="fill:#000000; fill-opacity:1.0000; stroke:none;fill-rule:evenodd;"
d="M 22.3774,19.8090
24.1046,19.8090
24.1046,21.8410
22.3774,21.8410
Z" /> 
<path style="fill:#000000; fill-opacity:1.0000; stroke:none;fill-rule:evenodd;"
d="M 19.8374,19.8090
21.5646,19.8090
21.5646,21.8410
19.8374,21.8410
Z" /> 
<path style="fill:#000000; fill-opacity:1.0000; stroke:none;fill-rule:evenodd;"
d="M 17.2974,19.8090
19.0246,19.8090
19.0246,21.8410
17.2974,21.8410
Z" /> 
<path style="fill:#000000; fill-opacity:1.0000; stroke:none;fill-rule:evenodd;"
d="M 14.7574,19.8090
16.4846,19.8090
16.4846,21.8410
14.7574,21.8410
Z" /> 
<path style="fill:#000000; fill-opacity:1.0000; stroke:none;fill-rule:evenodd;"
d="M 12.2174,19.8090
13.9446,19.8090
13.9446,21.8410
12.2174,21.8410
Z" /> 
<path style="fill:#000000; fill-opacity:1.0000; stroke:none;fill-rule:evenodd;"
d="M 9.6774,19.8090
11.4046,19.8090
11.4046,21.8410
9.6774,21.8410
Z" /> 
<path style="fill:#000000; fill-opacity:1.0000; stroke:none;fill-rule:evenodd;"
d="M 7.1374,19.8090
8.8646,19.8090
8.8646,21.8410
7.1374,21.8410
Z" /> 
<path style="fill:#000000; fill-opacity:1.0000; stroke:none;fill-rule:evenodd;"
d="M 4.5974,19.8090
6.3246,19.8090
6.3246,21.8410
4.5974,21.8410
Z" /> 
<path style="fill:#000000; fill-opacity:1.0000; stroke:none;fill-rule:evenodd;"
d="M 2.0574,19.8090
3.7846,19.8090
3.7846,21.8410
2.0574,21.8410
Z" /> 
<path style="fill:#000000; fill-opacity:1.0000; stroke:none;fill-rule:evenodd;"
d="M 2.0574,17.9040
3.7846,17.9040
3.7846,19.9360
2.0574,19.9360
Z" /> 
<path style="fill:#000000; fill-opacity:1.0000; stroke:none;fill-rule:evenodd;"
d="M 4.5974,17.9040
6.3246,17.9040
6.3246,19.9360
4.5974,19.9360
Z" /> 
<path style="fill:#000000; fill-opacity:1.0000; stroke:none;fill-rule:evenodd;"
d="M 7.1374,17.9040
8.8646,17.9040
8.8646,19.9360
7.1374,19.9360
Z" /> 
<path style="fill:#000000; fill-opacity:1.0000; stroke:none;fill-rule:evenodd;"
d="M 9.6774,17.9040
11.4046,17.9040
11.4046,19.9360
9.6774,19.9360
Z" /> 
<path style="fill:#000000; fill-opacity:1.0000; stroke:none;fill-rule:evenodd;"
d="M 12.2174,17.9040
13.9446,17.9040
13.9446,19.9360
12.2174,19.9360
Z" /> 
<path style="fill:#000000; fill-opacity:1.0000; stroke:none;fill-rule:evenodd;"
d="M 14.7574,17.9040
16.4846,17.9040
16.4846,19.9360
14.7574,19.9360
Z" /> 
<path style="fill:#000000; fill-opacity:1.0000; stroke:none;fill-rule:evenodd;"
d="M 17.2974,17.9040
19.0246,17.9040
19.0246,19.9360
17.2974,19.9360
Z" /> 
<path style="fill:#000000; fill-opacity:1.0000; stroke:none;fill-rule:evenodd;"
d="M 19.8374,17.9040
21.5646,17.9040
21.5646,19.9360
19.8374,19.9360
Z" /> 
<path style="fill:#000000; fill-opacity:1.0000; stroke:none;fill-rule:evenodd;"
d="M 22.3774,17.9040
24.1046,17.9040
24.1046,19.9360
22.3774,19.9360
Z" /> 
<path style="fill:#000000; fill-opacity:1.0000; stroke:none;fill-rule:evenodd;"
d="M 24.9174,17.9040
26.6446,17.9040
26.6446,19.9360
24.9174,19.9360
Z" /> 
<path style="fill:#000000; fill-opacity:1.0000; stroke:none;fill-rule:evenodd;"
d="M 27.4574,17.9040
29.1846,17.9040
29.1846,19.9360
27.4574,19.9360
Z" /> 
<path style="fill:#000000; fill-opacity:1.0000; stroke:none;fill-rule:evenodd;"
d="M 29.9974,17.9040
31.7246,17.9040
31.7246,19.9360
29.9974,19.9360
Z" /> 
<path style="fill:#000000; fill-opacity:1.0000; stroke:none;fill-rule:evenodd;"
d="M 32.5374,17.9040
34.2646,17.9040
34.2646,19.9360
32.5374,19.9360
Z" /> 
<path style="fill:#000000; fill-opacity:1.0000; stroke:none;fill-rule:evenodd;"
d="M 35.0774,19.8090
36.8046,19.8090
36.8046,21.8410
35.0774,21.8410
Z" /> 
<path style="fill:#000000; fill-opacity:1.0000; stroke:none;fill-rule:evenodd;"
d="M 35.0774,17.9040
36.8046,17.9040
36.8046,19.9360
35.0774,19.9360
Z" /> 
<path style="fill:#000000; fill-opacity:1.0000; stroke:none;fill-rule:evenodd;"
d="M 32.5374,2.6640
34.2646,2.6640
34.2646,4.6960
32.5374,4.6960
Z" /> 
<path style="fill:#000000; fill-opacity:1.0000; stroke:none;fill-rule:evenodd;"
d="M 29.9974,2.6640
31.7246,2.6640
31.7246,4.6960
29.9974,4.6960
Z" /> 
<path style="fill:#000000; fill-opacity:1.0000; stroke:none;fill-rule:evenodd;"
d="M 27.4574,2.6640
29.1846,2.6640
29.1846,4.6960
27.4574,4.6960
Z" /> 
<path style="fill:#000000; fill-opacity:1.0000; stroke:none;fill-rule:evenodd;"
d="M 24.9174,2.6640
26.6446,2.6640
26.6446,4.6960
24.9174,4.6960
Z" /> 
<path style="fill:#000000; fill-opacity:1.0000; stroke:none;fill-rule:evenodd;"
d="M 22.3774,2.6640
24.1046,2.6640
24.1046,4.6960
22.3774,4.6960
Z" /> 
<path style="fill:#000000; fill-opacity:1.0000; stroke:none;fill-rule:evenodd;"
d="M 19.8374,2.6640
21.5646,2.6640
21.5646,4.6960
19.8374,4.6960
Z" /> 
<path style="fill:#000000; fill-opacity:1.0000; stroke:none;fill-rule:evenodd;"
d="M 17.2974,2.6640
19.0246,2.6640
19.0246,4.6960
17.2974,4.6960
Z" /> 
<path style="fill:#000000; fill-opacity:1.0000; stroke:none;fill-rule:evenodd;"
d="M 14.7574,2.6640
16.4846,2.6640
16.4846,4.6960
14.7574,4.6960
Z" /> 
<path style="fill:#000000; fill-opacity:1.0000; stroke:none;fill-rule:evenodd;"
d="M 12.2174,2.6640
13.9446,2.6640
13.9446,4.6960
12.2174,4.6960
Z" /> 
<path style="fill:#000000; fill-opacity:1.0000; stroke:none;fill-rule:evenodd;"
d="M 9.6774,2.6640
11.4046,2.6640
11.4046,4.6960
9.6774,4.6960
Z" /> 
<path style="fill:#000000; fill-opacity:1.0000; stroke:none;fill-rule:evenodd;"
d="M 7.1374,2.6640
8.8646,2.6640
8.8646,4.6960
7.1374,4.6960
Z" /> 
<path style="fill:#000000; fill-opacity:1.0000; stroke:none;fill-rule:evenodd;"
d="M 4.5974,2.6640
6.3246,2.6640
6.3246,4.6960
4.5974,4.6960
Z" /> 
<path style="fill:#000000; fill-opacity:1.0000; stroke:none;fill-rule:evenodd;"
d="M 2.0574,2.6640
3.7846,2.6640
3.7846,4.6960
2.0574,4.6960
Z" /> 
<path style="fill:#000000; fill-opacity:1.0000; stroke:none;fill-rule:evenodd;"
d="M 2.0574,0.7590
3.7846,0.7590
3.7846,2.7910
2.0574,2.7910
Z" /> 
<path style="fill:#000000; fill-opacity:1.0000; stroke:none;fill-rule:evenodd;"
d="M 4.5974,0.7590
6.3246,0.7590
6.3246,2.7910
4.5974,2.7910
Z" /> 
<path style="fill:#000000; fill-opacity:1.0000; stroke:none;fill-rule:evenodd;"
d="M 7.1374,0.7590
8.8646,0.7590
8.8646,2.7910
7.1374,2.7910
Z" /> 
<path style="fill:#000000; fill-opacity:1.0000; stroke:none;fill-rule:evenodd;"
d="M 9.6774,0.7590
11.4046,0.7590
11.4046,2.7910
9.6774,2.7910
Z" /> 
<path style="fill:#000000; fill-opacity:1.0000; stroke:none;fill-rule:evenodd;"
d="M 12.2174,0.7590
13.9446,0.7590
13.9446,2.7910
12.2174,2.7910
Z" /> 
<path style="fill:#000000; fill-opacity:1.0000; stroke:none;fill-rule:evenodd;"
d="M 14.7574,0.7590
16.4846,0.7590
16.4846,2.7910
14.7574,2.7910
Z" /> 
<path style="fill:#000000; fill-opacity:1.0000; stroke:none;fill-rule:evenodd;"
d="M 17.2974,0.7590
19.0246,0.7590
19.0246,2.7910
17.2974,2.7910
Z" /> 
<path style="fill:#000000; fill-opacity:1.0000; stroke:none;fill-rule:evenodd;"
d="M 19.8374,0.7590
21.5646,0.7590
21.5646,2.7910
19.8374,2.7910
Z" /> 
<path style="fill:#000000; fill-opacity:1.0000; stroke:none;fill-rule:evenodd;"
d="M 22.3774,0.7590
24.1046,0.7590
24.1046,2.7910
22.3774,2.7910
Z" /> 
<path style="fill:#000000; fill-opacity:1.0000; stroke:none;fill-rule:evenodd;"
d="M 24.9174,0.7590
26.6446,0.7590
26.6446,2.7910
24.9174,2.7910
Z" /> 
<path style="fill:#000000; fill-opacity:1.0000; stroke:none;fill-rule:evenodd;"
d="M 27.4574,0.7590
29.1846,0.7590
29.1846,2.7910
27.4574,2.7910
Z" /> 
<path style="fill:#000000; fill-opacity:1.0000; stroke:none;fill-rule:evenodd;"
d="M 29.9974,0.7590
31.7246,0.7590
31.7246,2.7910
29.9974,2.7910
Z" /> 
<path style="fill:#000000; fill-opacity:1.0000; stroke:none;fill-rule:evenodd;"
d="M 32.5374,0.7590
34.2646,0.7590
34.2646,2.7910
32.5374,2.7910
Z" /> 
<path style="fill:#000000; fill-opacity:1.0000; stroke:none;fill-rule:evenodd;"
d="M 35.0774,2.6640
36.8046,2.6640
36.8046,4.6960
35.0774,4.6960
Z" /> 
<path style="fill:#000000; fill-opacity:1.0000; stroke:none;fill-rule:evenodd;"
d="M 35.0774,0.7590
36.8046,0.7590
36.8046,2.7910
35.0774,2.7910
Z" /> 
</g>
<g style="fill:#000000; fill-opacity:1.0000; stroke:none;">
<circle cx="14.9272" cy="16.7765" r="0.2921" /> 
</g>
<g style="fill:#000000; fill-opacity:1.0000; stroke:none;">
<circle cx="5.0927" cy="5.8851" r="0.2921" /> 
</g>
<g style="fill:#000000; fill-opacity:1.0000; stroke:none;">
<circle cx="3.8227" cy="5.8851" r="0.2921" /> 
</g>
<g style="fill:#000000; fill-opacity:1.0000; stroke:none;">
<circle cx="23.1140" cy="16.8880" r="0.2921" /> 
</g>
<g style="fill:#000000; fill-opacity:1.0000; stroke:none;">
<circle cx="23.5585" cy="12.0620" r="0.2921" /> 
</g>
<g style="fill:#000000; fill-opacity:1.0000; stroke:none;">
<circle cx="24.1935" cy="12.0620" r="0.2921" /> 
</g>
<g style="fill:#000000; fill-opacity:1.0000; stroke:none;">
<circle cx="24.8285" cy="12.0620" r="0.2921" /> 
</g>
<g style="fill:#000000; fill-opacity:1.0000; stroke:none;">
<circle cx="19.5580" cy="11.4905" r="0.2921" /> 
</g>
<g style="fill:#000000; fill-opacity:1.0000; stroke:none;">
<circle cx="19.5580" cy="9.7655" r="0.2921" /> 
</g>
<g style="fill:#000000; fill-opacity:1.0000; stroke:none;">
<circle cx="17.8330" cy="9.7655" r="0.2921" /> 
</g>
<g style="fill:#000000; fill-opacity:1.0000; stroke:none;">
<circle cx="17.8330" cy="11.4905" r="0.2921" /> 
</g>
<g style="fill:#000000; fill-opacity:1.0000; stroke:none;">
<circle cx="31.8810" cy="8.7600" r="0.2921" /> 
</g>
<g style="fill:#000000; fill-opacity:1.0000; stroke:none;">
<circle cx="22.0265" cy="14.7290" r="0.2921" /> 
</g>
<g style="fill:#000000; fill-opacity:1.0000; stroke:none;">
<circle cx="21.0265" cy="15.9355" r="0.2921" /> 
</g>
<g style="fill:#000000; fill-opacity:1.0000; stroke:none;">
<circle cx="16.4465" cy="14.5766" r="0.2921" /> 
</g>
<g style="fill:#000000; fill-opacity:1.0000; stroke:none;">
<circle cx="31.8810" cy="12.5700" r="0.2921" /> 
</g>
<g style="fill:#000000; fill-opacity:1.0000; stroke:none;">
<circle cx="20.6193" cy="13.9476" r="0.2921" /> 
</g>
<g style="fill:#000000; fill-opacity:1.0000; stroke:none;">
<circle cx="31.8810" cy="13.8400" r="0.2921" /> 
</g>
<g style="fill:#000000; fill-opacity:1.0000; stroke:none;">
<circle cx="20.6467" cy="13.2115" r="0.2921" /> 
</g>
<g style="fill:#000000; fill-opacity:1.0000; stroke:none;">
<circle cx="35.9410" cy="13.8400" r="0.2921" /> 
</g>
<g style="fill:#000000; fill-opacity:1.0000; stroke:none;">
<circle cx="21.2303" cy="17.4492" r="0.2921" /> 
</g>
<g style="fill:#000000; fill-opacity:1.0000; stroke:none;">
<circle cx="9.3185" cy="14.0305" r="0.2921" /> 
</g>
<g style="fill:#000000; fill-opacity:1.0000; stroke:none;">
<circle cx="12.1920" cy="16.4841" r="0.2921" /> 
</g>
<g style="fill:#000000; fill-opacity:1.0000; stroke:none;">
<circle cx="21.0820" cy="6.9185" r="0.2921" /> 
</g>
<g style="fill:#000000; fill-opacity:1.0000; stroke:none;">
<circle cx="12.7635" cy="7.4980" r="0.2921" /> 
</g>
<g style="fill:#000000; fill-opacity:1.0000; stroke:none;">
<circle cx="9.4615" cy="16.3245" r="0.2921" /> 
</g>
<g style="fill:#000000; fill-opacity:1.0000; stroke:none;">
<circle cx="12.7635" cy="8.4980" r="0.2921" /> 
</g>
<g style="fill:#000000; fill-opacity:1.0000; stroke:none;">
<circle cx="7.3185" cy="14.0305" r="0.2921" /> 
</g>
<g style="fill:#000000; fill-opacity:1.0000; stroke:none;">
<circle cx="3.9370" cy="10.1412" r="0.2921" /> 
</g>
<g style="fill:#000000; fill-opacity:1.0000; stroke:none;">
<circle cx="6.4770" cy="16.3165" r="0.2921" /> 
</g>
<g style="fill:#000000; fill-opacity:1.0000; stroke:none;">
<circle cx="16.0575" cy="15.6180" r="0.2921" /> 
</g>
<g style="fill:#000000; fill-opacity:1.0000; stroke:none;">
<circle cx="13.1370" cy="5.2115" r="0.2921" /> 
</g>
<g style="fill:#000000; fill-opacity:1.0000; stroke:none;">
<circle cx="16.4465" cy="13.8400" r="0.2921" /> 
</g>
<g style="fill:none; 
stroke:#000000; stroke-width:0.3048; stroke-opacity:1; 
stroke-linecap:round; stroke-linejoin:round;">
<path d="M24.8285 12.0620
L24.1935 12.0620
" />
</g>
<g style="fill:none; 
stroke:#000000; stroke-width:0.1524; stroke-opacity:1; 
stroke-linecap:round; stroke-linejoin:round;">
<path d="M22.0265 14.7290
L22.7838 14.7290
" />
<path d="M22.7838 14.7290
L22.9235 14.5893
" />
<path d="M22.9235 14.5893
L30.2928 14.5893
" />
<path d="M32.1309 13.0907
L32.4017 12.8199
" />
<path d="M30.2928 14.5893
L31.7914 13.0907
" />
<path d="M31.7914 13.0907
L32.1309 13.0907
" />
<path d="M32.4017 12.8199
L32.4017 9.2807
" />
<path d="M32.4017 9.2807
L31.8810 8.7600
" />
<path d="M15.2781 17.6754
L14.1732 17.6754
" />
<path d="M14.1732 17.6754
L13.0810 18.7676
" />
<path d="M13.0810 18.7676
L13.0810 18.9200
" />
<path d="M15.7527 17.2008
L15.2781 17.6754
" />
<path d="M15.7527 16.1942
L15.7527 17.2008
" />
<path d="M15.9639 14.8687
L15.5368 15.2958
" />
<path d="M15.5368 15.2958
L15.5368 15.9783
" />
<path d="M15.5368 15.9783
L15.7527 16.1942
" />
<path d="M16.8275 16.2530
L17.5861 17.0116
" />
<path d="M20.2105 16.8705
L21.0265 16.0545
" />
<path d="M17.5861 17.0116
L20.0694 17.0116
" />
<path d="M20.0694 17.0116
L20.2105 16.8705
" />
<path d="M16.4465 14.5766
L16.8275 14.9576
" />
<path d="M16.8275 14.9576
L16.8275 16.2530
" />
<path d="M21.0265 16.0545
L21.0265 15.9355
" />
<path d="M16.4465 14.5766
L16.1544 14.8687
" />
<path d="M16.1544 14.8687
L15.9639 14.8687
" />
<path d="M13.0810 17.9421
L13.0810 18.9200
" />
<path d="M22.7965 14.2845
L30.1665 14.2845
" />
<path d="M30.1665 14.2845
L31.8810 12.5700
" />
<path d="M21.2028 12.6908
L22.7965 14.2845
" />
<path d="M20.6193 13.9476
L20.1260 13.4544
" />
<path d="M20.1260 13.4544
L20.1260 12.9616
" />
<path d="M20.1260 12.9616
L20.3968 12.6908
" />
<path d="M20.3968 12.6908
L21.2028 12.6908
" />
<path d="M20.6193 13.9476
L20.6193 14.7576
" />
<path d="M20.6193 14.7576
L21.5472 15.6856
" />
<path d="M21.5472 15.6856
L21.5472 16.1854
" />
<path d="M21.5472 16.1854
L21.2764 16.4562
" />
<path d="M21.2764 16.4562
L21.0559 16.4562
" />
<path d="M21.0559 16.4562
L19.8367 17.6754
" />
<path d="M19.8367 17.6754
L19.2532 17.6754
" />
<path d="M19.2532 17.6754
L18.1610 18.7676
" />
<path d="M18.1610 18.7676
L18.1610 18.9200
" />
<path d="M21.8520 15.3251
L22.6187 15.3251
" />
<path d="M22.6187 15.3251
L23.0498 14.8941
" />
<path d="M23.0498 14.8941
L30.8269 14.8941
" />
<path d="M30.8269 14.8941
L31.8810 13.8400
" />
<path d="M21.1400 14.6131
L21.3511 14.8243
" />
<path d="M21.3511 14.8243
L21.7766 15.2497
" />
<path d="M21.1821 16.7610
L21.4027 16.7610
" />
<path d="M21.4027 16.7610
L21.8520 16.3117
" />
<path d="M21.8520 16.3117
L21.8520 15.3251
" />
<path d="M21.8520 15.3251
L21.3511 14.8243
" />
<path d="M21.1400 14.5965
L21.1400 14.6131
" />
<path d="M20.7010 18.9200
L20.7010 17.2421
" />
<path d="M20.7010 17.2421
L21.1821 16.7610
" />
<path d="M21.1400 14.5965
L21.1400 13.7048
" />
<path d="M21.1400 13.7048
L20.9388 13.5036
" />
<path d="M20.9388 13.5036
L20.6467 13.2115
" />
<path d="M20.7010 18.7676
L20.7010 18.9200
" />
</g>
<g style="fill:none; 
stroke:#000000; stroke-width:0.3048; stroke-opacity:1; 
stroke-linecap:round; stroke-linejoin:round;">
<path d="M21.2303 17.4492
L21.5224 17.1571
" />
<path d="M21.5224 17.1571
L21.8924 17.1571
" />
<path d="M21.8924 17.1571
L23.7744 15.2751
" />
<path d="M23.7744 15.2751
L32.9311 15.2751
" />
<path d="M32.9311 15.2751
L34.3662 13.8400
" />
<path d="M34.3662 13.8400
L35.9410 13.8400
" />
<path d="M9.3185 15.2530
L10.0584 15.9929
" />
<path d="M10.0584 15.9929
L10.0584 16.2581
" />
<path d="M10.0584 16.2581
L10.2845 16.4841
" />
<path d="M9.3185 14.0305
L9.3185 15.2530
" />
<path d="M8.0010 18.9200
L8.0010 18.7676
" />
<path d="M8.0010 18.7676
L10.2845 16.4841
" />
<path d="M10.2845 16.4841
L12.1920 16.4841
" />
<path d="M20.3835 6.2200
L21.0942 6.2200
" />
<path d="M21.0942 6.2200
L31.0134 6.2200
" />
<path d="M21.0820 6.9185
L21.0820 6.2322
" />
<path d="M21.0820 6.2322
L21.0942 6.2200
" />
<path d="M31.0134 6.2200
L33.4010 3.8324
" />
<path d="M33.4010 3.8324
L33.4010 3.6800
" />
<path d="M12.7635 7.4980
L18.3435 7.4980
" />
<path d="M18.3435 7.4980
L19.6215 6.2200
" />
<path d="M19.6215 6.2200
L20.3835 6.2200
" />
<path d="M7.3185 14.0305
L9.4615 16.1735
" />
<path d="M9.4615 16.1735
L9.4615 16.3245
" />
<path d="M9.0170 9.6236
L10.1426 8.4980
" />
<path d="M10.1426 8.4980
L12.7635 8.4980
" />
<path d="M9.0170 12.3320
L9.0170 9.6236
" />
<path d="M7.3185 14.0305
L9.0170 12.3320
" />
<path d="M3.9370 10.1412
L3.0218 10.1412
" />
<path d="M3.0218 10.1412
L2.4130 10.7500
" />
<path d="M6.4770 16.3165
L6.4770 17.9040
" />
<path d="M6.4770 17.9040
L5.4610 18.9200
" />
<path d="M2.4130 11.8500
L6.4770 15.9140
" />
<path d="M6.4770 15.9140
L6.4770 16.3165
" />
<path d="M5.4610 21.4600
L5.4610 21.3076
" />
</g>
<g style="fill:none; 
stroke:#000000; stroke-width:0.1524; stroke-opacity:1; 
stroke-linecap:round; stroke-linejoin:round;">
<path d="M16.0575 15.6180
L16.0575 18.4835
" />
<path d="M16.0575 18.4835
L15.6210 18.9200
" />
<path d="M12.8501 4.9246
L11.6332 4.9246
" />
<path d="M11.6332 4.9246
L10.5410 3.8324
" />
<path d="M10.5410 3.8324
L10.5410 3.6800
" />
<path d="M13.1370 5.2115
L12.8501 4.9246
" />
<path d="M16.4465 13.8400
L15.9258 14.3607
" />
<path d="M15.9258 14.3607
L15.9258 14.4757
" />
<path d="M15.9258 14.4757
L15.2320 15.1695
" />
<path d="M15.2320 15.1695
L15.2320 16.1046
" />
<path d="M15.2320 16.1046
L15.4479 16.3204
" />
<path d="M15.4479 16.3204
L15.4479 17.0746
" />
<path d="M15.4479 17.0746
L15.1518 17.3706
" />
<path d="M15.1518 17.3706
L13.9707 17.3706
" />
<path d="M13.9707 17.3706
L13.7040 17.6373
" />
<path d="M11.6713 17.6373
L10.5410 18.7676
" />
<path d="M13.7040 17.6373
L11.6713 17.6373
" />
<path d="M10.5410 18.7676
L10.5410 18.9200
" />
</g>
<g style="fill:#FFFFFF; fill-opacity:1.0000; stroke:none;">
<circle cx="14.9272" cy="16.7765" r="0.1651" /> 
</g>
<g style="fill:#FFFFFF; fill-opacity:1.0000; stroke:none;">
<circle cx="5.0927" cy="5.8851" r="0.1651" /> 
</g>
<g style="fill:#FFFFFF; fill-opacity:1.0000; stroke:none;">
<circle cx="3.8227" cy="5.8851" r="0.1651" /> 
</g>
<g style="fill:#FFFFFF; fill-opacity:1.0000; stroke:none;">
<circle cx="23.1140" cy="16.8880" r="0.1651" /> 
</g>
<g style="fill:#FFFFFF; fill-opacity:1.0000; stroke:none;">
<circle cx="23.5585" cy="12.0620" r="0.1651" /> 
</g>
<g style="fill:#FFFFFF; fill-opacity:1.0000; stroke:none;">
<circle cx="24.1935" cy="12.0620" r="0.1651" /> 
</g>
<g style="fill:#FFFFFF; fill-opacity:1.0000; stroke:none;">
<circle cx="24.8285" cy="12.0620" r="0.1651" /> 
</g>
<g style="fill:#FFFFFF; fill-opacity:1.0000; stroke:none;">
<circle cx="19.5580" cy="11.4905" r="0.1651" /> 
</g>
<g style="fill:#FFFFFF; fill-opacity:1.0000; stroke:none;">
<circle cx="19.5580" cy="9.7655" r="0.1651" /> 
</g>
<g style="fill:#FFFFFF; fill-opacity:1.0000; stroke:none;">
<circle cx="17.8330" cy="9.7655" r="0.1651" /> 
</g>
<g style="fill:#FFFFFF; fill-opacity:1.0000; stroke:none;">
<circle cx="17.8330" cy="11.4905" r="0.1651" /> 
</g>
<g style="fill:#FFFFFF; fill-opacity:1.0000; stroke:none;">
<circle cx="31.8810" cy="8.7600" r="0.1651" /> 
</g>
<g style="fill:#FFFFFF; fill-opacity:1.0000; stroke:none;">
<circle cx="22.0265" cy="14.7290" r="0.1651" /> 
</g>
<g style="fill:#FFFFFF; fill-opacity:1.0000; stroke:none;">
<circle cx="21.0265" cy="15.9355" r="0.1651" /> 
</g>
<g style="fill:#FFFFFF; fill-opacity:1.0000; stroke:none;">
<circle cx="16.4465" cy="14.5766" r="0.1651" /> 
</g>
<g style="fill:#FFFFFF; fill-opacity:1.0000; stroke:none;">
<circle cx="31.8810" cy="12.5700" r="0.1651" /> 
</g>
<g style="fill:#FFFFFF; fill-opacity:1.0000; stroke:none;">
<circle cx="20.6193" cy="13.9476" r="0.1651" /> 
</g>
<g style="fill:#FFFFFF; fill-opacity:1.0000; stroke:none;">
<circle cx="31.8810" cy="13.8400" r="0.1651" /> 
</g>
<g style="fill:#FFFFFF; fill-opacity:1.0000; stroke:none;">
<circle cx="20.6467" cy="13.2115" r="0.1651" /> 
</g>
<g style="fill:#FFFFFF; fill-opacity:1.0000; stroke:none;">
<circle cx="35.9410" cy="13.8400" r="0.1651" /> 
</g>
<g style="fill:#FFFFFF; fill-opacity:1.0000; stroke:none;">
<circle cx="21.2303" cy="17.4492" r="0.1651" /> 
</g>
<g style="fill:#FFFFFF; fill-opacity:1.0000; stroke:none;">
<circle cx="9.3185" cy="14.0305" r="0.1651" /> 
</g>
<g style="fill:#FFFFFF; fill-opacity:1.0000; stroke:none;">
<circle cx="12.1920" cy="16.4841" r="0.1651" /> 
</g>
<g style="fill:#FFFFFF; fill-opacity:1.0000; stroke:none;">
<circle cx="21.0820" cy="6.9185" r="0.1651" /> 
</g>
<g style="fill:#FFFFFF; fill-opacity:1.0000; stroke:none;">
<circle cx="12.7635" cy="7.4980" r="0.1651" /> 
</g>
<g style="fill:#FFFFFF; fill-opacity:1.0000; stroke:none;">
<circle cx="9.4615" cy="16.3245" r="0.1651" /> 
</g>
<g style="fill:#FFFFFF; fill-opacity:1.0000; stroke:none;">
<circle cx="12.7635" cy="8.4980" r="0.1651" /> 
</g>
<g style="fill:#FFFFFF; fill-opacity:1.0000; stroke:none;">
<circle cx="7.3185" cy="14.0305" r="0.1651" /> 
</g>
<g style="fill:#FFFFFF; fill-opacity:1.0000; stroke:none;">
<circle cx="3.9370" cy="10.1412" r="0.1651" /> 
</g>
<g style="fill:#FFFFFF; fill-opacity:1.0000; stroke:none;">
<circle cx="6.4770" cy="16.3165" r="0.1651" /> 
</g>
<g style="fill:#FFFFFF; fill-opacity:1.0000; stroke:none;">
<circle cx="16.0575" cy="15.6180" r="0.1651" /> 
</g>
<g style="fill:#FFFFFF; fill-opacity:1.0000; stroke:none;">
<circle cx="13.1370" cy="5.2115" r="0.1651" /> 
</g>
<g style="fill:#FFFFFF; fill-opacity:1.0000; stroke:none;">
<circle cx="16.4465" cy="13.8400" r="0.1651" /> 
</g>
<g style="fill:#FFFFFF; fill-opacity:1.0000; stroke:none;">
<circle cx="2.9210" cy="16.3800" r="0.5080" /> 
</g>
<g style="fill:#FFFFFF; fill-opacity:1.0000; stroke:none;">
<circle cx="1.0160" cy="16.3800" r="0.5080" /> 
</g>
<g style="fill:#FFFFFF; fill-opacity:1.0000; stroke:none;">
<circle cx="2.4638" cy="8.0000" r="0.6000" /> 
</g>
<g style="fill:#FFFFFF; fill-opacity:1.0000; stroke:none;">
<circle cx="2.4638" cy="14.6000" r="0.6000" /> 
</g>
<g style="fill:#FFFFFF; fill-opacity:1.0000; stroke:none;">
<circle cx="33.4010" cy="20.8250" r="0.5080" /> 
</g>
<g style="fill:#FFFFFF; fill-opacity:1.0000; stroke:none;">
<circle cx="30.8610" cy="20.8250" r="0.5080" /> 
</g>
<g style="fill:#FFFFFF; fill-opacity:1.0000; stroke:none;">
<circle cx="28.3210" cy="20.8250" r="0.5080" /> 
</g>
<g style="fill:#FFFFFF; fill-opacity:1.0000; stroke:none;">
<circle cx="25.7810" cy="20.8250" r="0.5080" /> 
</g>
<g style="fill:#FFFFFF; fill-opacity:1.0000; stroke:none;">
<circle cx="23.2410" cy="20.8250" r="0.5080" /> 
</g>
<g style="fill:#FFFFFF; fill-opacity:1.0000; stroke:none;">
<circle cx="20.7010" cy="20.8250" r="0.5080" /> 
</g>
<g style="fill:#FFFFFF; fill-opacity:1.0000; stroke:none;">
<circle cx="18.1610" cy="20.8250" r="0.5080" /> 
</g>
<g style="fill:#FFFFFF; fill-opacity:1.0000; stroke:none;">
<circle cx="15.6210" cy="20.8250" r="0.5080" /> 
</g>
<g style="fill:#FFFFFF; fill-opacity:1.0000; stroke:none;">
<circle cx="13.0810" cy="20.8250" r="0.5080" /> 
</g>
<g style="fill:#FFFFFF; fill-opacity:1.0000; stroke:none;">
<circle cx="10.5410" cy="20.8250" r="0.5080" /> 
</g>
<g style="fill:#FFFFFF; fill-opacity:1.0000; stroke:none;">
<circle cx="8.0010" cy="20.8250" r="0.5080" /> 
</g>
<g style="fill:#FFFFFF; fill-opacity:1.0000; stroke:none;">
<circle cx="5.4610" cy="20.8250" r="0.5080" /> 
</g>
<g style="fill:#FFFFFF; fill-opacity:1.0000; stroke:none;">
<circle cx="2.9210" cy="20.8250" r="0.5080" /> 
</g>
<g style="fill:#FFFFFF; fill-opacity:1.0000; stroke:none;">
<circle cx="2.9210" cy="18.9200" r="0.5080" /> 
</g>
<g style="fill:#FFFFFF; fill-opacity:1.0000; stroke:none;">
<circle cx="5.4610" cy="18.9200" r="0.5080" /> 
</g>
<g style="fill:#FFFFFF; fill-opacity:1.0000; stroke:none;">
<circle cx="8.0010" cy="18.9200" r="0.5080" /> 
</g>
<g style="fill:#FFFFFF; fill-opacity:1.0000; stroke:none;">
<circle cx="10.5410" cy="18.9200" r="0.5080" /> 
</g>
<g style="fill:#FFFFFF; fill-opacity:1.0000; stroke:none;">
<circle cx="13.0810" cy="18.9200" r="0.5080" /> 
</g>
<g style="fill:#FFFFFF; fill-opacity:1.0000; stroke:none;">
<circle cx="15.6210" cy="18.9200" r="0.5080" /> 
</g>
<g style="fill:#FFFFFF; fill-opacity:1.0000; stroke:none;">
<circle cx="18.1610" cy="18.9200" r="0.5080" /> 
</g>
<g style="fill:#FFFFFF; fill-opacity:1.0000; stroke:none;">
<circle cx="20.7010" cy="18.9200" r="0.5080" /> 
</g>
<g style="fill:#FFFFFF; fill-opacity:1.0000; stroke:none;">
<circle cx="23.2410" cy="18.9200" r="0.5080" /> 
</g>
<g style="fill:#FFFFFF; fill-opacity:1.0000; stroke:none;">
<circle cx="25.7810" cy="18.9200" r="0.5080" /> 
</g>
<g style="fill:#FFFFFF; fill-opacity:1.0000; stroke:none;">
<circle cx="28.3210" cy="18.9200" r="0.5080" /> 
</g>
<g style="fill:#FFFFFF; fill-opacity:1.0000; stroke:none;">
<circle cx="30.8610" cy="18.9200" r="0.5080" /> 
</g>
<g style="fill:#FFFFFF; fill-opacity:1.0000; stroke:none;">
<circle cx="33.4010" cy="18.9200" r="0.5080" /> 
</g>
<g style="fill:#FFFFFF; fill-opacity:1.0000; stroke:none;">
<circle cx="35.9410" cy="20.8250" r="0.5080" /> 
</g>
<g style="fill:#FFFFFF; fill-opacity:1.0000; stroke:none;">
<circle cx="35.9410" cy="18.9200" r="0.5080" /> 
</g>
<g style="fill:#FFFFFF; fill-opacity:1.0000; stroke:none;">
<circle cx="33.4010" cy="3.6800" r="0.5080" /> 
</g>
<g style="fill:#FFFFFF; fill-opacity:1.0000; stroke:none;">
<circle cx="30.8610" cy="3.6800" r="0.5080" /> 
</g>
<g style="fill:#FFFFFF; fill-opacity:1.0000; stroke:none;">
<circle cx="28.3210" cy="3.6800" r="0.5080" /> 
</g>
<g style="fill:#FFFFFF; fill-opacity:1.0000; stroke:none;">
<circle cx="25.7810" cy="3.6800" r="0.5080" /> 
</g>
<g style="fill:#FFFFFF; fill-opacity:1.0000; stroke:none;">
<circle cx="23.2410" cy="3.6800" r="0.5080" /> 
</g>
<g style="fill:#FFFFFF; fill-opacity:1.0000; stroke:none;">
<circle cx="20.7010" cy="3.6800" r="0.5080" /> 
</g>
<g style="fill:#FFFFFF; fill-opacity:1.0000; stroke:none;">
<circle cx="18.1610" cy="3.6800" r="0.5080" /> 
</g>
<g style="fill:#FFFFFF; fill-opacity:1.0000; stroke:none;">
<circle cx="15.6210" cy="3.6800" r="0.5080" /> 
</g>
<g style="fill:#FFFFFF; fill-opacity:1.0000; stroke:none;">
<circle cx="13.0810" cy="3.6800" r="0.5080" /> 
</g>
<g style="fill:#FFFFFF; fill-opacity:1.0000; stroke:none;">
<circle cx="10.5410" cy="3.6800" r="0.5080" /> 
</g>
<g style="fill:#FFFFFF; fill-opacity:1.0000; stroke:none;">
<circle cx="8.0010" cy="3.6800" r="0.5080" /> 
</g>
<g style="fill:#FFFFFF; fill-opacity:1.0000; stroke:none;">
<circle cx="5.4610" cy="3.6800" r="0.5080" /> 
</g>
<g style="fill:#FFFFFF; fill-opacity:1.0000; stroke:none;">
<circle cx="2.9210" cy="3.6800" r="0.5080" /> 
</g>
<g style="fill:#FFFFFF; fill-opacity:1.0000; stroke:none;">
<circle cx="2.9210" cy="1.7750" r="0.5080" /> 
</g>
<g style="fill:#FFFFFF; fill-opacity:1.0000; stroke:none;">
<circle cx="5.4610" cy="1.7750" r="0.5080" /> 
</g>
<g style="fill:#FFFFFF; fill-opacity:1.0000; stroke:none;">
<circle cx="8.0010" cy="1.7750" r="0.5080" /> 
</g>
<g style="fill:#FFFFFF; fill-opacity:1.0000; stroke:none;">
<circle cx="10.5410" cy="1.7750" r="0.5080" /> 
</g>
<g style="fill:#FFFFFF; fill-opacity:1.0000; stroke:none;">
<circle cx="13.0810" cy="1.7750" r="0.5080" /> 
</g>
<g style="fill:#FFFFFF; fill-opacity:1.0000; stroke:none;">
<circle cx="15.6210" cy="1.7750" r="0.5080" /> 
</g>
<g style="fill:#FFFFFF; fill-opacity:1.0000; stroke:none;">
<circle cx="18.1610" cy="1.7750" r="0.5080" /> 
</g>
<g style="fill:#FFFFFF; fill-opacity:1.0000; stroke:none;">
<circle cx="20.7010" cy="1.7750" r="0.5080" /> 
</g>
<g style="fill:#FFFFFF; fill-opacity:1.0000; stroke:none;">
<circle cx="23.2410" cy="1.7750" r="0.5080" /> 
</g>
<g style="fill:#FFFFFF; fill-opacity:1.0000; stroke:none;">
<circle cx="25.7810" cy="1.7750" r="0.5080" /> 
</g>
<g style="fill:#FFFFFF; fill-opacity:1.0000; stroke:none;">
<circle cx="28.3210" cy="1.7750" r="0.5080" /> 
</g>
<g style="fill:#FFFFFF; fill-opacity:1.0000; stroke:none;">
<circle cx="30.8610" cy="1.7750" r="0.5080" /> 
</g>
<g style="fill:#FFFFFF; fill-opacity:1.0000; stroke:none;">
<circle cx="33.4010" cy="1.7750" r="0.5080" /> 
</g>
<g style="fill:#FFFFFF; fill-opacity:1.0000; stroke:none;">
<circle cx="35.9410" cy="3.6800" r="0.5080" /> 
</g>
<g style="fill:#FFFFFF; fill-opacity:1.0000; stroke:none;">
<circle cx="35.9410" cy="1.7750" r="0.5080" /> 
<path style="fill:#000000; fill-opacity:1.0000; stroke:none;fill-rule:evenodd;"
d="M 3.9370,15.5164
3.9370,17.2436
1.9050,17.2436
1.9050,15.5164
Z" /> 
<path style="fill:#000000; fill-opacity:1.0000; stroke:none;fill-rule:evenodd;"
d="M 2.0320,15.5164
2.0320,17.2436
0.0000,17.2436
0.0000,15.5164
Z" /> 
<path style="fill:#000000; fill-opacity:1.0000; stroke:none;fill-rule:evenodd;"
d="M 4.4638,10.2000
4.4638,9.8000
5.8138,9.8000
5.8138,10.2000
Z" /> 
<path style="fill:#000000; fill-opacity:1.0000; stroke:none;fill-rule:evenodd;"
d="M 4.4638,10.8500
4.4638,10.4500
5.8138,10.4500
5.8138,10.8500
Z" /> 
<path style="fill:#000000; fill-opacity:1.0000; stroke:none;fill-rule:evenodd;"
d="M 4.4638,11.5000
4.4638,11.1000
5.8138,11.1000
5.8138,11.5000
Z" /> 
<path style="fill:#000000; fill-opacity:1.0000; stroke:none;fill-rule:evenodd;"
d="M 4.4638,12.1500
4.4638,11.7500
5.8138,11.7500
5.8138,12.1500
Z" /> 
<path style="fill:#000000; fill-opacity:1.0000; stroke:none;fill-rule:evenodd;"
d="M 4.4638,12.8000
4.4638,12.4000
5.8138,12.4000
5.8138,12.8000
Z" /> 
</g>
<g style="fill:#000000; fill-opacity:1.0000; stroke:none;">
<circle cx="2.4638" cy="8.0000" r="0.7000" /> 
</g>
<g style="fill:#000000; fill-opacity:1.0000; stroke:none;">
<circle cx="2.4638" cy="14.6000" r="0.7000" /> 
<path style="fill:#000000; fill-opacity:1.0000; stroke:none;fill-rule:evenodd;"
d="M 4.2138,15.1000
4.2138,13.9000
5.6138,13.9000
5.6138,15.1000
Z" /> 
<path style="fill:#000000; fill-opacity:1.0000; stroke:none;fill-rule:evenodd;"
d="M 4.2138,8.7000
4.2138,7.5000
5.6138,7.5000
5.6138,8.7000
Z" /> 
<path style="fill:#000000; fill-opacity:1.0000; stroke:none;fill-rule:evenodd;"
d="M 1.5138,13.7000
1.5138,11.8000
3.4138,11.8000
3.4138,13.7000
Z" /> 
<path style="fill:#000000; fill-opacity:1.0000; stroke:none;fill-rule:evenodd;"
d="M 1.5138,10.8000
1.5138,8.9000
3.4138,8.9000
3.4138,10.8000
Z" /> 
<path style="fill:#000000; fill-opacity:1.0000; stroke:none;fill-rule:evenodd;"
d="M 8.6375,17.0075
8.6375,17.1875
8.2875,17.1875
8.2875,17.0075
Z" /> 
<path style="fill:#000000; fill-opacity:1.0000; stroke:none;fill-rule:evenodd;"
d="M 8.6375,16.6075
8.6375,16.7875
8.2875,16.7875
8.2875,16.6075
Z" /> 
<path style="fill:#000000; fill-opacity:1.0000; stroke:none;fill-rule:evenodd;"
d="M 8.6375,16.2075
8.6375,16.3875
8.2875,16.3875
8.2875,16.2075
Z" /> 
<path style="fill:#000000; fill-opacity:1.0000; stroke:none;fill-rule:evenodd;"
d="M 7.5875,16.2075
7.5875,16.3875
7.2375,16.3875
7.2375,16.2075
Z" /> 
<path style="fill:#000000; fill-opacity:1.0000; stroke:none;fill-rule:evenodd;"
d="M 7.5875,16.6075
7.5875,16.7875
7.2375,16.7875
7.2375,16.6075
Z" /> 
<path style="fill:#000000; fill-opacity:1.0000; stroke:none;fill-rule:evenodd;"
d="M 7.5875,17.0075
7.5875,17.1875
7.2375,17.1875
7.2375,17.0075
Z" /> 
<path style="fill:#000000; fill-opacity:1.0000; stroke:none;fill-rule:evenodd;"
d="M 8.0875,15.9475
8.0875,17.4475
7.7875,17.4475
7.7875,15.9475
Z" /> 
<path style="fill:#000000; fill-opacity:1.0000; stroke:none;fill-rule:evenodd;"
d="M 23.6390,16.5630
23.6390,17.2130
22.5890,17.2130
22.5890,16.5630
Z" /> 
<path style="fill:#000000; fill-opacity:1.0000; stroke:none;fill-rule:evenodd;"
d="M 28.8390,16.5630
28.8390,17.2130
27.7890,17.2130
27.7890,16.5630
Z" /> 
<path style="fill:#000000; fill-opacity:1.0000; stroke:none;fill-rule:evenodd;"
d="M 28.8390,14.4130
28.8390,15.0630
27.7890,15.0630
27.7890,14.4130
Z" /> 
<path style="fill:#000000; fill-opacity:1.0000; stroke:none;fill-rule:evenodd;"
d="M 23.6390,14.4130
23.6390,15.0630
22.5890,15.0630
22.5890,14.4130
Z" /> 
<path style="fill:#000000; fill-opacity:1.0000; stroke:none;fill-rule:evenodd;"
d="M 24.9530,12.8255
24.9530,13.9255
23.0530,13.9255
23.0530,12.8255
Z" /> 
<path style="fill:#000000; fill-opacity:1.0000; stroke:none;fill-rule:evenodd;"
d="M 24.9530,10.3255
24.9530,11.4255
23.0530,11.4255
23.0530,10.3255
Z" /> 
<path style="fill:#000000; fill-opacity:1.0000; stroke:none;fill-rule:evenodd;"
d="M 10.1420,9.2880
11.3920,9.2880
11.3920,9.8880
10.1420,9.8880
Z" /> 
<path style="fill:#000000; fill-opacity:1.0000; stroke:none;fill-rule:evenodd;"
d="M 10.1420,10.2380
11.3920,10.2380
11.3920,10.8380
10.1420,10.8380
Z" /> 
<path style="fill:#000000; fill-opacity:1.0000; stroke:none;fill-rule:evenodd;"
d="M 10.1420,11.1880
11.3920,11.1880
11.3920,11.7880
10.1420,11.7880
Z" /> 
<path style="fill:#000000; fill-opacity:1.0000; stroke:none;fill-rule:evenodd;"
d="M 6.6420,11.1880
7.8920,11.1880
7.8920,11.7880
6.6420,11.7880
Z" /> 
<path style="fill:#000000; fill-opacity:1.0000; stroke:none;fill-rule:evenodd;"
d="M 6.6420,10.2380
7.8920,10.2380
7.8920,10.8380
6.6420,10.8380
Z" /> 
<path style="fill:#000000; fill-opacity:1.0000; stroke:none;fill-rule:evenodd;"
d="M 6.6420,9.2880
7.8920,9.2880
7.8920,9.8880
6.6420,9.8880
Z" /> 
<path style="fill:#000000; fill-opacity:1.0000; stroke:none;fill-rule:evenodd;"
d="M 9.7358,7.6551
9.7358,6.0549
11.9355,6.0549
11.9355,7.6551
Z" /> 
<path style="fill:#000000; fill-opacity:1.0000; stroke:none;fill-rule:evenodd;"
d="M 6.7335,7.6551
6.7335,6.0549
8.9332,6.0549
8.9332,7.6551
Z" /> 
<path style="fill:#000000; fill-opacity:1.0000; stroke:none;fill-rule:evenodd;"
d="M 11.3919,15.3843
12.9921,15.3843
12.9921,17.5840
11.3919,17.5840
Z" /> 
<path style="fill:#000000; fill-opacity:1.0000; stroke:none;fill-rule:evenodd;"
d="M 11.3919,12.3820
12.9921,12.3820
12.9921,14.5817
11.3919,14.5817
Z" /> 
<path style="fill:#000000; fill-opacity:1.0000; stroke:none;fill-rule:evenodd;"
d="M 21.4455,12.2530
21.4455,12.5030
20.7455,12.5030
20.7455,12.2530
Z" /> 
<path style="fill:#000000; fill-opacity:1.0000; stroke:none;fill-rule:evenodd;"
d="M 21.4455,11.7530
21.4455,12.0030
20.7455,12.0030
20.7455,11.7530
Z" /> 
<path style="fill:#000000; fill-opacity:1.0000; stroke:none;fill-rule:evenodd;"
d="M 21.4455,11.2530
21.4455,11.5030
20.7455,11.5030
20.7455,11.2530
Z" /> 
<path style="fill:#000000; fill-opacity:1.0000; stroke:none;fill-rule:evenodd;"
d="M 21.4455,10.7530
21.4455,11.0030
20.7455,11.0030
20.7455,10.7530
Z" /> 
<path style="fill:#000000; fill-opacity:1.0000; stroke:none;fill-rule:evenodd;"
d="M 21.4455,10.2530
21.4455,10.5030
20.7455,10.5030
20.7455,10.2530
Z" /> 
<path style="fill:#000000; fill-opacity:1.0000; stroke:none;fill-rule:evenodd;"
d="M 21.4455,9.7530
21.4455,10.0030
20.7455,10.0030
20.7455,9.7530
Z" /> 
<path style="fill:#000000; fill-opacity:1.0000; stroke:none;fill-rule:evenodd;"
d="M 21.4455,9.2530
21.4455,9.5030
20.7455,9.5030
20.7455,9.2530
Z" /> 
<path style="fill:#000000; fill-opacity:1.0000; stroke:none;fill-rule:evenodd;"
d="M 21.4455,8.7530
21.4455,9.0030
20.7455,9.0030
20.7455,8.7530
Z" /> 
<path style="fill:#000000; fill-opacity:1.0000; stroke:none;fill-rule:evenodd;"
d="M 20.3205,7.8780
20.5705,7.8780
20.5705,8.5780
20.3205,8.5780
Z" /> 
<path style="fill:#000000; fill-opacity:1.0000; stroke:none;fill-rule:evenodd;"
d="M 19.8205,7.8780
20.0705,7.8780
20.0705,8.5780
19.8205,8.5780
Z" /> 
<path style="fill:#000000; fill-opacity:1.0000; stroke:none;fill-rule:evenodd;"
d="M 19.3205,7.8780
19.5705,7.8780
19.5705,8.5780
19.3205,8.5780
Z" /> 
<path style="fill:#000000; fill-opacity:1.0000; stroke:none;fill-rule:evenodd;"
d="M 18.8205,7.8780
19.0705,7.8780
19.0705,8.5780
18.8205,8.5780
Z" /> 
<path style="fill:#000000; fill-opacity:1.0000; stroke:none;fill-rule:evenodd;"
d="M 18.3205,7.8780
18.5705,7.8780
18.5705,8.5780
18.3205,8.5780
Z" /> 
<path style="fill:#000000; fill-opacity:1.0000; stroke:none;fill-rule:evenodd;"
d="M 17.8205,7.8780
18.0705,7.8780
18.0705,8.5780
17.8205,8.5780
Z" /> 
<path style="fill:#000000; fill-opacity:1.0000; stroke:none;fill-rule:evenodd;"
d="M 17.3205,7.8780
17.5705,7.8780
17.5705,8.5780
17.3205,8.5780
Z" /> 
<path style="fill:#000000; fill-opacity:1.0000; stroke:none;fill-rule:evenodd;"
d="M 16.8205,7.8780
17.0705,7.8780
17.0705,8.5780
16.8205,8.5780
Z" /> 
<path style="fill:#000000; fill-opacity:1.0000; stroke:none;fill-rule:evenodd;"
d="M 16.6455,8.7530
16.6455,9.0030
15.9455,9.0030
15.9455,8.7530
Z" /> 
<path style="fill:#000000; fill-opacity:1.0000; stroke:none;fill-rule:evenodd;"
d="M 16.6455,9.2530
16.6455,9.5030
15.9455,9.5030
15.9455,9.2530
Z" /> 
<path style="fill:#000000; fill-opacity:1.0000; stroke:none;fill-rule:evenodd;"
d="M 16.6455,9.7530
16.6455,10.0030
15.9455,10.0030
15.9455,9.7530
Z" /> 
<path style="fill:#000000; fill-opacity:1.0000; stroke:none;fill-rule:evenodd;"
d="M 16.6455,10.2530
16.6455,10.5030
15.9455,10.5030
15.9455,10.2530
Z" /> 
<path style="fill:#000000; fill-opacity:1.0000; stroke:none;fill-rule:evenodd;"
d="M 16.6455,10.7530
16.6455,11.0030
15.9455,11.0030
15.9455,10.7530
Z" /> 
<path style="fill:#000000; fill-opacity:1.0000; stroke:none;fill-rule:evenodd;"
d="M 16.6455,11.2530
16.6455,11.5030
15.9455,11.5030
15.9455,11.2530
Z" /> 
<path style="fill:#000000; fill-opacity:1.0000; stroke:none;fill-rule:evenodd;"
d="M 16.6455,11.7530
16.6455,12.0030
15.9455,12.0030
15.9455,11.7530
Z" /> 
<path style="fill:#000000; fill-opacity:1.0000; stroke:none;fill-rule:evenodd;"
d="M 16.6455,12.2530
16.6455,12.5030
15.9455,12.5030
15.9455,12.2530
Z" /> 
<path style="fill:#000000; fill-opacity:1.0000; stroke:none;fill-rule:evenodd;"
d="M 16.8205,12.6780
17.0705,12.6780
17.0705,13.3780
16.8205,13.3780
Z" /> 
<path style="fill:#000000; fill-opacity:1.0000; stroke:none;fill-rule:evenodd;"
d="M 17.3205,12.6780
17.5705,12.6780
17.5705,13.3780
17.3205,13.3780
Z" /> 
<path style="fill:#000000; fill-opacity:1.0000; stroke:none;fill-rule:evenodd;"
d="M 17.8205,12.6780
18.0705,12.6780
18.0705,13.3780
17.8205,13.3780
Z" /> 
<path style="fill:#000000; fill-opacity:1.0000; stroke:none;fill-rule:evenodd;"
d="M 18.3205,12.6780
18.5705,12.6780
18.5705,13.3780
18.3205,13.3780
Z" /> 
<path style="fill:#000000; fill-opacity:1.0000; stroke:none;fill-rule:evenodd;"
d="M 18.8205,12.6780
19.0705,12.6780
19.0705,13.3780
18.8205,13.3780
Z" /> 
<path style="fill:#000000; fill-opacity:1.0000; stroke:none;fill-rule:evenodd;"
d="M 19.3205,12.6780
19.5705,12.6780
19.5705,13.3780
19.3205,13.3780
Z" /> 
<path style="fill:#000000; fill-opacity:1.0000; stroke:none;fill-rule:evenodd;"
d="M 19.8205,12.6780
20.0705,12.6780
20.0705,13.3780
19.8205,13.3780
Z" /> 
<path style="fill:#000000; fill-opacity:1.0000; stroke:none;fill-rule:evenodd;"
d="M 20.3205,12.6780
20.5705,12.6780
20.5705,13.3780
20.3205,13.3780
Z" /> 
<path style="fill:#000000; fill-opacity:1.0000; stroke:none;fill-rule:evenodd;"
d="M 18.6955,8.9030
18.6955,10.6280
16.9705,10.6280
16.9705,8.9030
Z" /> 
<path style="fill:#000000; fill-opacity:1.0000; stroke:none;fill-rule:evenodd;"
d="M 18.6955,10.6280
18.6955,12.3530
16.9705,12.3530
16.9705,10.6280
Z" /> 
<path style="fill:#000000; fill-opacity:1.0000; stroke:none;fill-rule:evenodd;"
d="M 20.4205,8.9030
20.4205,10.6280
18.6955,10.6280
18.6955,8.9030
Z" /> 
<path style="fill:#000000; fill-opacity:1.0000; stroke:none;fill-rule:evenodd;"
d="M 20.4205,10.6280
20.4205,12.3530
18.6955,12.3530
18.6955,10.6280
Z" /> 
<path style="fill:#000000; fill-opacity:1.0000; stroke:none;fill-rule:evenodd;"
d="M 22.3265,14.3790
22.3265,15.0790
21.7265,15.0790
21.7265,14.3790
Z" /> 
<path style="fill:#000000; fill-opacity:1.0000; stroke:none;fill-rule:evenodd;"
d="M 21.3265,14.3790
21.3265,15.0790
20.7265,15.0790
20.7265,14.3790
Z" /> 
<path style="fill:#000000; fill-opacity:1.0000; stroke:none;fill-rule:evenodd;"
d="M 22.3265,16.7920
22.3265,17.4920
21.7265,17.4920
21.7265,16.7920
Z" /> 
<path style="fill:#000000; fill-opacity:1.0000; stroke:none;fill-rule:evenodd;"
d="M 21.3265,16.7920
21.3265,17.4920
20.7265,17.4920
20.7265,16.7920
Z" /> 
<path style="fill:#000000; fill-opacity:1.0000; stroke:none;fill-rule:evenodd;"
d="M 16.3575,15.2680
16.3575,15.9680
15.7575,15.9680
15.7575,15.2680
Z" /> 
<path style="fill:#000000; fill-opacity:1.0000; stroke:none;fill-rule:evenodd;"
d="M 15.3575,15.2680
15.3575,15.9680
14.7575,15.9680
14.7575,15.2680
Z" /> 
<path style="fill:#000000; fill-opacity:1.0000; stroke:none;fill-rule:evenodd;"
d="M 3.4727,5.5851
4.1727,5.5851
4.1727,6.1851
3.4727,6.1851
Z" /> 
<path style="fill:#000000; fill-opacity:1.0000; stroke:none;fill-rule:evenodd;"
d="M 3.4727,6.5851
4.1727,6.5851
4.1727,7.1851
3.4727,7.1851
Z" /> 
<path style="fill:#000000; fill-opacity:1.0000; stroke:none;fill-rule:evenodd;"
d="M 6.1270,16.0245
6.8270,16.0245
6.8270,16.6245
6.1270,16.6245
Z" /> 
<path style="fill:#000000; fill-opacity:1.0000; stroke:none;fill-rule:evenodd;"
d="M 6.1270,17.0245
6.8270,17.0245
6.8270,17.6245
6.1270,17.6245
Z" /> 
<path style="fill:#000000; fill-opacity:1.0000; stroke:none;fill-rule:evenodd;"
d="M 9.1115,16.0245
9.8115,16.0245
9.8115,16.6245
9.1115,16.6245
Z" /> 
<path style="fill:#000000; fill-opacity:1.0000; stroke:none;fill-rule:evenodd;"
d="M 9.1115,17.0245
9.8115,17.0245
9.8115,17.6245
9.1115,17.6245
Z" /> 
<path style="fill:#000000; fill-opacity:1.0000; stroke:none;fill-rule:evenodd;"
d="M 20.7265,16.2855
20.7265,15.5855
21.3265,15.5855
21.3265,16.2855
Z" /> 
<path style="fill:#000000; fill-opacity:1.0000; stroke:none;fill-rule:evenodd;"
d="M 21.7265,16.2855
21.7265,15.5855
22.3265,15.5855
22.3265,16.2855
Z" /> 
<path style="fill:#000000; fill-opacity:1.0000; stroke:none;fill-rule:evenodd;"
d="M 19.5960,15.4585
19.5960,16.1585
18.9960,16.1585
18.9960,15.4585
Z" /> 
<path style="fill:#000000; fill-opacity:1.0000; stroke:none;fill-rule:evenodd;"
d="M 18.5960,15.4585
18.5960,16.1585
17.9960,16.1585
17.9960,15.4585
Z" /> 
<path style="fill:#000000; fill-opacity:1.0000; stroke:none;fill-rule:evenodd;"
d="M 21.3740,6.6320
21.3740,7.3320
20.7740,7.3320
20.7740,6.6320
Z" /> 
<path style="fill:#000000; fill-opacity:1.0000; stroke:none;fill-rule:evenodd;"
d="M 20.3740,6.6320
20.3740,7.3320
19.7740,7.3320
19.7740,6.6320
Z" /> 
<path style="fill:#000000; fill-opacity:1.0000; stroke:none;fill-rule:evenodd;"
d="M 25.3675,10.3730
26.0675,10.3730
26.0675,10.9730
25.3675,10.9730
Z" /> 
<path style="fill:#000000; fill-opacity:1.0000; stroke:none;fill-rule:evenodd;"
d="M 25.3675,11.3730
26.0675,11.3730
26.0675,11.9730
25.3675,11.9730
Z" /> 
<path style="fill:#000000; fill-opacity:1.0000; stroke:none;fill-rule:evenodd;"
d="M 26.0675,13.8780
25.3675,13.8780
25.3675,13.2780
26.0675,13.2780
Z" /> 
<path style="fill:#000000; fill-opacity:1.0000; stroke:none;fill-rule:evenodd;"
d="M 26.0675,12.8780
25.3675,12.8780
25.3675,12.2780
26.0675,12.2780
Z" /> 
<path style="fill:#000000; fill-opacity:1.0000; stroke:none;fill-rule:evenodd;"
d="M 4.7427,5.5851
5.4427,5.5851
5.4427,6.1851
4.7427,6.1851
Z" /> 
<path style="fill:#000000; fill-opacity:1.0000; stroke:none;fill-rule:evenodd;"
d="M 4.7427,6.5851
5.4427,6.5851
5.4427,7.1851
4.7427,7.1851
Z" /> 
<path style="fill:#000000; fill-opacity:1.0000; stroke:none;fill-rule:evenodd;"
d="M 19.5960,14.1885
19.5960,14.8885
18.9960,14.8885
18.9960,14.1885
Z" /> 
<path style="fill:#000000; fill-opacity:1.0000; stroke:none;fill-rule:evenodd;"
d="M 18.5960,14.1885
18.5960,14.8885
17.9960,14.8885
17.9960,14.1885
Z" /> 
<path style="fill:#000000; fill-opacity:1.0000; stroke:none;fill-rule:evenodd;"
d="M 16.3575,16.4745
16.3575,17.1745
15.7575,17.1745
15.7575,16.4745
Z" /> 
<path style="fill:#000000; fill-opacity:1.0000; stroke:none;fill-rule:evenodd;"
d="M 15.3575,16.4745
15.3575,17.1745
14.7575,17.1745
14.7575,16.4745
Z" /> 
<path style="fill:#000000; fill-opacity:1.0000; stroke:none;fill-rule:evenodd;"
d="M 6.6185,15.6305
8.0185,15.6305
8.0185,12.4305
6.6185,12.4305
Z" /> 
<path style="fill:#000000; fill-opacity:1.0000; stroke:none;fill-rule:evenodd;"
d="M 8.6185,15.6305
10.0185,15.6305
10.0185,12.4305
8.6185,12.4305
Z" /> 
<path style="fill:#000000; fill-opacity:1.0000; stroke:none;fill-rule:evenodd;"
d="M 13.1135,8.7980
12.4135,8.7980
12.4135,8.1980
13.1135,8.1980
Z" /> 
<path style="fill:#000000; fill-opacity:1.0000; stroke:none;fill-rule:evenodd;"
d="M 13.1135,7.7980
12.4135,7.7980
12.4135,7.1980
13.1135,7.1980
Z" /> 
<path style="fill:#000000; fill-opacity:1.0000; stroke:none;fill-rule:evenodd;"
d="M 32.5374,19.8090
34.2646,19.8090
34.2646,21.8410
32.5374,21.8410
Z" /> 
<path style="fill:#000000; fill-opacity:1.0000; stroke:none;fill-rule:evenodd;"
d="M 29.9974,19.8090
31.7246,19.8090
31.7246,21.8410
29.9974,21.8410
Z" /> 
<path style="fill:#000000; fill-opacity:1.0000; stroke:none;fill-rule:evenodd;"
d="M 27.4574,19.8090
29.1846,19.8090
29.1846,21.8410
27.4574,21.8410
Z" /> 
<path style="fill:#000000; fill-opacity:1.0000; stroke:none;fill-rule:evenodd;"
d="M 24.9174,19.8090
26.6446,19.8090
26.6446,21.8410
24.9174,21.8410
Z" /> 
<path style="fill:#000000; fill-opacity:1.0000; stroke:none;fill-rule:evenodd;"
d="M 22.3774,19.8090
24.1046,19.8090
24.1046,21.8410
22.3774,21.8410
Z" /> 
<path style="fill:#000000; fill-opacity:1.0000; stroke:none;fill-rule:evenodd;"
d="M 19.8374,19.8090
21.5646,19.8090
21.5646,21.8410
19.8374,21.8410
Z" /> 
<path style="fill:#000000; fill-opacity:1.0000; stroke:none;fill-rule:evenodd;"
d="M 17.2974,19.8090
19.0246,19.8090
19.0246,21.8410
17.2974,21.8410
Z" /> 
<path style="fill:#000000; fill-opacity:1.0000; stroke:none;fill-rule:evenodd;"
d="M 14.7574,19.8090
16.4846,19.8090
16.4846,21.8410
14.7574,21.8410
Z" /> 
<path style="fill:#000000; fill-opacity:1.0000; stroke:none;fill-rule:evenodd;"
d="M 12.2174,19.8090
13.9446,19.8090
13.9446,21.8410
12.2174,21.8410
Z" /> 
<path style="fill:#000000; fill-opacity:1.0000; stroke:none;fill-rule:evenodd;"
d="M 9.6774,19.8090
11.4046,19.8090
11.4046,21.8410
9.6774,21.8410
Z" /> 
<path style="fill:#000000; fill-opacity:1.0000; stroke:none;fill-rule:evenodd;"
d="M 7.1374,19.8090
8.8646,19.8090
8.8646,21.8410
7.1374,21.8410
Z" /> 
<path style="fill:#000000; fill-opacity:1.0000; stroke:none;fill-rule:evenodd;"
d="M 4.5974,19.8090
6.3246,19.8090
6.3246,21.8410
4.5974,21.8410
Z" /> 
<path style="fill:#000000; fill-opacity:1.0000; stroke:none;fill-rule:evenodd;"
d="M 2.0574,19.8090
3.7846,19.8090
3.7846,21.8410
2.0574,21.8410
Z" /> 
<path style="fill:#000000; fill-opacity:1.0000; stroke:none;fill-rule:evenodd;"
d="M 2.0574,17.9040
3.7846,17.9040
3.7846,19.9360
2.0574,19.9360
Z" /> 
<path style="fill:#000000; fill-opacity:1.0000; stroke:none;fill-rule:evenodd;"
d="M 4.5974,17.9040
6.3246,17.9040
6.3246,19.9360
4.5974,19.9360
Z" /> 
<path style="fill:#000000; fill-opacity:1.0000; stroke:none;fill-rule:evenodd;"
d="M 7.1374,17.9040
8.8646,17.9040
8.8646,19.9360
7.1374,19.9360
Z" /> 
<path style="fill:#000000; fill-opacity:1.0000; stroke:none;fill-rule:evenodd;"
d="M 9.6774,17.9040
11.4046,17.9040
11.4046,19.9360
9.6774,19.9360
Z" /> 
<path style="fill:#000000; fill-opacity:1.0000; stroke:none;fill-rule:evenodd;"
d="M 12.2174,17.9040
13.9446,17.9040
13.9446,19.9360
12.2174,19.9360
Z" /> 
<path style="fill:#000000; fill-opacity:1.0000; stroke:none;fill-rule:evenodd;"
d="M 14.7574,17.9040
16.4846,17.9040
16.4846,19.9360
14.7574,19.9360
Z" /> 
<path style="fill:#000000; fill-opacity:1.0000; stroke:none;fill-rule:evenodd;"
d="M 17.2974,17.9040
19.0246,17.9040
19.0246,19.9360
17.2974,19.9360
Z" /> 
<path style="fill:#000000; fill-opacity:1.0000; stroke:none;fill-rule:evenodd;"
d="M 19.8374,17.9040
21.5646,17.9040
21.5646,19.9360
19.8374,19.9360
Z" /> 
<path style="fill:#000000; fill-opacity:1.0000; stroke:none;fill-rule:evenodd;"
d="M 22.3774,17.9040
24.1046,17.9040
24.1046,19.9360
22.3774,19.9360
Z" /> 
<path style="fill:#000000; fill-opacity:1.0000; stroke:none;fill-rule:evenodd;"
d="M 24.9174,17.9040
26.6446,17.9040
26.6446,19.9360
24.9174,19.9360
Z" /> 
<path style="fill:#000000; fill-opacity:1.0000; stroke:none;fill-rule:evenodd;"
d="M 27.4574,17.9040
29.1846,17.9040
29.1846,19.9360
27.4574,19.9360
Z" /> 
<path style="fill:#000000; fill-opacity:1.0000; stroke:none;fill-rule:evenodd;"
d="M 29.9974,17.9040
31.7246,17.9040
31.7246,19.9360
29.9974,19.9360
Z" /> 
<path style="fill:#000000; fill-opacity:1.0000; stroke:none;fill-rule:evenodd;"
d="M 32.5374,17.9040
34.2646,17.9040
34.2646,19.9360
32.5374,19.9360
Z" /> 
<path style="fill:#000000; fill-opacity:1.0000; stroke:none;fill-rule:evenodd;"
d="M 35.0774,19.8090
36.8046,19.8090
36.8046,21.8410
35.0774,21.8410
Z" /> 
<path style="fill:#000000; fill-opacity:1.0000; stroke:none;fill-rule:evenodd;"
d="M 35.0774,17.9040
36.8046,17.9040
36.8046,19.9360
35.0774,19.9360
Z" /> 
<path style="fill:#000000; fill-opacity:1.0000; stroke:none;fill-rule:evenodd;"
d="M 32.5374,2.6640
34.2646,2.6640
34.2646,4.6960
32.5374,4.6960
Z" /> 
<path style="fill:#000000; fill-opacity:1.0000; stroke:none;fill-rule:evenodd;"
d="M 29.9974,2.6640
31.7246,2.6640
31.7246,4.6960
29.9974,4.6960
Z" /> 
<path style="fill:#000000; fill-opacity:1.0000; stroke:none;fill-rule:evenodd;"
d="M 27.4574,2.6640
29.1846,2.6640
29.1846,4.6960
27.4574,4.6960
Z" /> 
<path style="fill:#000000; fill-opacity:1.0000; stroke:none;fill-rule:evenodd;"
d="M 24.9174,2.6640
26.6446,2.6640
26.6446,4.6960
24.9174,4.6960
Z" /> 
<path style="fill:#000000; fill-opacity:1.0000; stroke:none;fill-rule:evenodd;"
d="M 22.3774,2.6640
24.1046,2.6640
24.1046,4.6960
22.3774,4.6960
Z" /> 
<path style="fill:#000000; fill-opacity:1.0000; stroke:none;fill-rule:evenodd;"
d="M 19.8374,2.6640
21.5646,2.6640
21.5646,4.6960
19.8374,4.6960
Z" /> 
<path style="fill:#000000; fill-opacity:1.0000; stroke:none;fill-rule:evenodd;"
d="M 17.2974,2.6640
19.0246,2.6640
19.0246,4.6960
17.2974,4.6960
Z" /> 
<path style="fill:#000000; fill-opacity:1.0000; stroke:none;fill-rule:evenodd;"
d="M 14.7574,2.6640
16.4846,2.6640
16.4846,4.6960
14.7574,4.6960
Z" /> 
<path style="fill:#000000; fill-opacity:1.0000; stroke:none;fill-rule:evenodd;"
d="M 12.2174,2.6640
13.9446,2.6640
13.9446,4.6960
12.2174,4.6960
Z" /> 
<path style="fill:#000000; fill-opacity:1.0000; stroke:none;fill-rule:evenodd;"
d="M 9.6774,2.6640
11.4046,2.6640
11.4046,4.6960
9.6774,4.6960
Z" /> 
<path style="fill:#000000; fill-opacity:1.0000; stroke:none;fill-rule:evenodd;"
d="M 7.1374,2.6640
8.8646,2.6640
8.8646,4.6960
7.1374,4.6960
Z" /> 
<path style="fill:#000000; fill-opacity:1.0000; stroke:none;fill-rule:evenodd;"
d="M 4.5974,2.6640
6.3246,2.6640
6.3246,4.6960
4.5974,4.6960
Z" /> 
<path style="fill:#000000; fill-opacity:1.0000; stroke:none;fill-rule:evenodd;"
d="M 2.0574,2.6640
3.7846,2.6640
3.7846,4.6960
2.0574,4.6960
Z" /> 
<path style="fill:#000000; fill-opacity:1.0000; stroke:none;fill-rule:evenodd;"
d="M 2.0574,0.7590
3.7846,0.7590
3.7846,2.7910
2.0574,2.7910
Z" /> 
<path style="fill:#000000; fill-opacity:1.0000; stroke:none;fill-rule:evenodd;"
d="M 4.5974,0.7590
6.3246,0.7590
6.3246,2.7910
4.5974,2.7910
Z" /> 
<path style="fill:#000000; fill-opacity:1.0000; stroke:none;fill-rule:evenodd;"
d="M 7.1374,0.7590
8.8646,0.7590
8.8646,2.7910
7.1374,2.7910
Z" /> 
<path style="fill:#000000; fill-opacity:1.0000; stroke:none;fill-rule:evenodd;"
d="M 9.6774,0.7590
11.4046,0.7590
11.4046,2.7910
9.6774,2.7910
Z" /> 
<path style="fill:#000000; fill-opacity:1.0000; stroke:none;fill-rule:evenodd;"
d="M 12.2174,0.7590
13.9446,0.7590
13.9446,2.7910
12.2174,2.7910
Z" /> 
<path style="fill:#000000; fill-opacity:1.0000; stroke:none;fill-rule:evenodd;"
d="M 14.7574,0.7590
16.4846,0.7590
16.4846,2.7910
14.7574,2.7910
Z" /> 
<path style="fill:#000000; fill-opacity:1.0000; stroke:none;fill-rule:evenodd;"
d="M 17.2974,0.7590
19.0246,0.7590
19.0246,2.7910
17.2974,2.7910
Z" /> 
<path style="fill:#000000; fill-opacity:1.0000; stroke:none;fill-rule:evenodd;"
d="M 19.8374,0.7590
21.5646,0.7590
21.5646,2.7910
19.8374,2.7910
Z" /> 
<path style="fill:#000000; fill-opacity:1.0000; stroke:none;fill-rule:evenodd;"
d="M 22.3774,0.7590
24.1046,0.7590
24.1046,2.7910
22.3774,2.7910
Z" /> 
<path style="fill:#000000; fill-opacity:1.0000; stroke:none;fill-rule:evenodd;"
d="M 24.9174,0.7590
26.6446,0.7590
26.6446,2.7910
24.9174,2.7910
Z" /> 
<path style="fill:#000000; fill-opacity:1.0000; stroke:none;fill-rule:evenodd;"
d="M 27.4574,0.7590
29.1846,0.7590
29.1846,2.7910
27.4574,2.7910
Z" /> 
<path style="fill:#000000; fill-opacity:1.0000; stroke:none;fill-rule:evenodd;"
d="M 29.9974,0.7590
31.7246,0.7590
31.7246,2.7910
29.9974,2.7910
Z" /> 
<path style="fill:#000000; fill-opacity:1.0000; stroke:none;fill-rule:evenodd;"
d="M 32.5374,0.7590
34.2646,0.7590
34.2646,2.7910
32.5374,2.7910
Z" /> 
<path style="fill:#000000; fill-opacity:1.0000; stroke:none;fill-rule:evenodd;"
d="M 35.0774,2.6640
36.8046,2.6640
36.8046,4.6960
35.0774,4.6960
Z" /> 
<path style="fill:#000000; fill-opacity:1.0000; stroke:none;fill-rule:evenodd;"
d="M 35.0774,0.7590
36.8046,0.7590
36.8046,2.7910
35.0774,2.7910
Z" /> 
<path style="fill:#000000; fill-opacity:1.0000; stroke:none;fill-rule:evenodd;"
d="M 37.2110,13.4650
37.2110,14.2150
34.6710,14.2150
34.6710,13.4650
Z" /> 
<path style="fill:#000000; fill-opacity:1.0000; stroke:none;fill-rule:evenodd;"
d="M 37.2110,12.1950
37.2110,12.9450
34.6710,12.9450
34.6710,12.1950
Z" /> 
<path style="fill:#000000; fill-opacity:1.0000; stroke:none;fill-rule:evenodd;"
d="M 37.2110,10.9250
37.2110,11.6750
34.6710,11.6750
34.6710,10.9250
Z" /> 
<path style="fill:#000000; fill-opacity:1.0000; stroke:none;fill-rule:evenodd;"
d="M 37.2110,9.6550
37.2110,10.4050
34.6710,10.4050
34.6710,9.6550
Z" /> 
<path style="fill:#000000; fill-opacity:1.0000; stroke:none;fill-rule:evenodd;"
d="M 37.2110,8.3850
37.2110,9.1350
34.6710,9.1350
34.6710,8.3850
Z" /> 
<path style="fill:#000000; fill-opacity:1.0000; stroke:none;fill-rule:evenodd;"
d="M 33.1510,13.4650
33.1510,14.2150
30.6110,14.2150
30.6110,13.4650
Z" /> 
<path style="fill:#000000; fill-opacity:1.0000; stroke:none;fill-rule:evenodd;"
d="M 33.1510,12.1950
33.1510,12.9450
30.6110,12.9450
30.6110,12.1950
Z" /> 
<path style="fill:#000000; fill-opacity:1.0000; stroke:none;fill-rule:evenodd;"
d="M 33.1510,9.6550
33.1510,10.4050
30.6110,10.4050
30.6110,9.6550
Z" /> 
<path style="fill:#000000; fill-opacity:1.0000; stroke:none;fill-rule:evenodd;"
d="M 33.1510,10.9250
33.1510,11.6750
30.6110,11.6750
30.6110,10.9250
Z" /> 
<path style="fill:#000000; fill-opacity:1.0000; stroke:none;fill-rule:evenodd;"
d="M 33.1510,8.3850
33.1510,9.1350
30.6110,9.1350
30.6110,8.3850
Z" /> 
</g>
<g style="fill:#000000; fill-opacity:1.0000; stroke:none;">
<circle cx="14.9272" cy="16.7765" r="0.2921" /> 
</g>
<g style="fill:#000000; fill-opacity:1.0000; stroke:none;">
<circle cx="5.0927" cy="5.8851" r="0.2921" /> 
</g>
<g style="fill:#000000; fill-opacity:1.0000; stroke:none;">
<circle cx="3.8227" cy="5.8851" r="0.2921" /> 
</g>
<g style="fill:#000000; fill-opacity:1.0000; stroke:none;">
<circle cx="23.1140" cy="16.8880" r="0.2921" /> 
</g>
<g style="fill:#000000; fill-opacity:1.0000; stroke:none;">
<circle cx="23.5585" cy="12.0620" r="0.2921" /> 
</g>
<g style="fill:#000000; fill-opacity:1.0000; stroke:none;">
<circle cx="24.1935" cy="12.0620" r="0.2921" /> 
</g>
<g style="fill:#000000; fill-opacity:1.0000; stroke:none;">
<circle cx="24.8285" cy="12.0620" r="0.2921" /> 
</g>
<g style="fill:#000000; fill-opacity:1.0000; stroke:none;">
<circle cx="19.5580" cy="11.4905" r="0.2921" /> 
</g>
<g style="fill:#000000; fill-opacity:1.0000; stroke:none;">
<circle cx="19.5580" cy="9.7655" r="0.2921" /> 
</g>
<g style="fill:#000000; fill-opacity:1.0000; stroke:none;">
<circle cx="17.8330" cy="9.7655" r="0.2921" /> 
</g>
<g style="fill:#000000; fill-opacity:1.0000; stroke:none;">
<circle cx="17.8330" cy="11.4905" r="0.2921" /> 
</g>
<g style="fill:#000000; fill-opacity:1.0000; stroke:none;">
<circle cx="31.8810" cy="8.7600" r="0.2921" /> 
</g>
<g style="fill:#000000; fill-opacity:1.0000; stroke:none;">
<circle cx="22.0265" cy="14.7290" r="0.2921" /> 
</g>
<g style="fill:#000000; fill-opacity:1.0000; stroke:none;">
<circle cx="21.0265" cy="15.9355" r="0.2921" /> 
</g>
<g style="fill:#000000; fill-opacity:1.0000; stroke:none;">
<circle cx="16.4465" cy="14.5766" r="0.2921" /> 
</g>
<g style="fill:#000000; fill-opacity:1.0000; stroke:none;">
<circle cx="31.8810" cy="12.5700" r="0.2921" /> 
</g>
<g style="fill:#000000; fill-opacity:1.0000; stroke:none;">
<circle cx="20.6193" cy="13.9476" r="0.2921" /> 
</g>
<g style="fill:#000000; fill-opacity:1.0000; stroke:none;">
<circle cx="31.8810" cy="13.8400" r="0.2921" /> 
</g>
<g style="fill:#000000; fill-opacity:1.0000; stroke:none;">
<circle cx="20.6467" cy="13.2115" r="0.2921" /> 
</g>
<g style="fill:#000000; fill-opacity:1.0000; stroke:none;">
<circle cx="35.9410" cy="13.8400" r="0.2921" /> 
</g>
<g style="fill:#000000; fill-opacity:1.0000; stroke:none;">
<circle cx="21.2303" cy="17.4492" r="0.2921" /> 
</g>
<g style="fill:#000000; fill-opacity:1.0000; stroke:none;">
<circle cx="9.3185" cy="14.0305" r="0.2921" /> 
</g>
<g style="fill:#000000; fill-opacity:1.0000; stroke:none;">
<circle cx="12.1920" cy="16.4841" r="0.2921" /> 
</g>
<g style="fill:#000000; fill-opacity:1.0000; stroke:none;">
<circle cx="21.0820" cy="6.9185" r="0.2921" /> 
</g>
<g style="fill:#000000; fill-opacity:1.0000; stroke:none;">
<circle cx="12.7635" cy="7.4980" r="0.2921" /> 
</g>
<g style="fill:#000000; fill-opacity:1.0000; stroke:none;">
<circle cx="9.4615" cy="16.3245" r="0.2921" /> 
</g>
<g style="fill:#000000; fill-opacity:1.0000; stroke:none;">
<circle cx="12.7635" cy="8.4980" r="0.2921" /> 
</g>
<g style="fill:#000000; fill-opacity:1.0000; stroke:none;">
<circle cx="7.3185" cy="14.0305" r="0.2921" /> 
</g>
<g style="fill:#000000; fill-opacity:1.0000; stroke:none;">
<circle cx="3.9370" cy="10.1412" r="0.2921" /> 
</g>
<g style="fill:#000000; fill-opacity:1.0000; stroke:none;">
<circle cx="6.4770" cy="16.3165" r="0.2921" /> 
</g>
<g style="fill:#000000; fill-opacity:1.0000; stroke:none;">
<circle cx="16.0575" cy="15.6180" r="0.2921" /> 
</g>
<g style="fill:#000000; fill-opacity:1.0000; stroke:none;">
<circle cx="13.1370" cy="5.2115" r="0.2921" /> 
</g>
<g style="fill:#000000; fill-opacity:1.0000; stroke:none;">
<circle cx="16.4465" cy="13.8400" r="0.2921" /> 
</g>
<g style="fill:none; 
stroke:#000000; stroke-width:0.3048; stroke-opacity:1; 
stroke-linecap:round; stroke-linejoin:round;">
<path d="M15.0575 16.8245
L14.9751 16.8245
" />
<path d="M14.9751 16.8245
L14.9272 16.7765
" />
<path d="M18.2960 14.5385
L18.2960 15.8085
" />
<path d="M18.4455 13.0280
L18.4455 14.3890
" />
<path d="M18.4455 14.3890
L18.2960 14.5385
" />
<path d="M8.1448 15.9353
L8.2950 15.7850
" />
<path d="M7.9375 16.6975
L7.9375 15.9990
" />
<path d="M7.9375 15.9990
L8.0012 15.9353
" />
<path d="M8.0012 15.9353
L8.1448 15.9353
" />
<path d="M2.9210 18.9200
L2.9210 20.8250
" />
<path d="M35.9410 3.6800
L35.9410 1.7750
" />
<path d="M19.9455 8.2280
L19.9455 7.1105
" />
<path d="M19.9455 7.1105
L20.0740 6.9820
" />
<path d="M7.9375 16.6975
L7.9375 17.2975
" />
<path d="M7.9375 16.6975
L7.9375 17.0523
" />
<path d="M7.9375 17.0523
L7.9827 17.0975
" />
<path d="M7.9827 17.0975
L8.4625 17.0975
" />
<path d="M8.4625 17.0975
L9.2345 17.0975
" />
<path d="M9.2345 17.0975
L9.4615 17.3245
" />
<path d="M24.1935 12.0620
L23.5585 12.0620
" />
<path d="M25.7175 11.6730
L25.2541 11.6730
" />
<path d="M25.2541 11.6730
L24.8651 12.0620
" />
<path d="M24.8651 12.0620
L24.8285 12.0620
" />
<path d="M18.4455 13.0280
L18.4455 12.1030
" />
<path d="M19.9455 8.2280
L19.9455 9.3780
" />
<path d="M19.9455 9.3780
L19.5580 9.7655
" />
</g>
<g style="fill:none; 
stroke:#000000; stroke-width:0.1524; stroke-opacity:1; 
stroke-linecap:round; stroke-linejoin:round;">
<path d="M21.0955 12.3780
L22.6055 12.3780
" />
<path d="M24.0030 13.3755
L25.5150 13.3755
" />
<path d="M25.5150 13.3755
L25.7175 13.5780
" />
<path d="M24.0030 13.3755
L23.6030 13.3755
" />
<path d="M23.6030 13.3755
L22.6055 12.3780
" />
<path d="M21.0955 11.8780
L22.6005 11.8780
" />
<path d="M24.0030 10.8755
L25.5150 10.8755
" />
<path d="M25.5150 10.8755
L25.7175 10.6730
" />
<path d="M24.0030 10.8755
L23.6030 10.8755
" />
<path d="M23.6030 10.8755
L22.6005 11.8780
" />
<path d="M21.0265 15.9355
L21.0265 15.8855
" />
<path d="M21.0265 15.8855
L22.0265 14.8855
" />
<path d="M22.0265 14.8855
L22.0265 14.7290
" />
<path d="M21.0265 15.9355
L21.0265 16.0920
" />
<path d="M21.0265 16.0920
L22.0265 17.0920
" />
<path d="M22.0265 17.0920
L22.0265 17.1420
" />
<path d="M17.4455 13.0280
L17.4455 13.5776
" />
<path d="M17.4455 13.5776
L16.4465 14.5766
" />
<path d="M13.0810 18.9200
L13.0810 20.8250
" />
<path d="M13.2207 18.7803
L13.0810 18.9200
" />
<path d="M5.5198 10.6500
L5.8428 10.6500
" />
<path d="M5.1388 10.6500
L5.8428 10.6500
" />
<path d="M5.8428 10.6500
L7.1550 10.6500
" />
<path d="M7.1550 10.6500
L7.2670 10.5380
" />
<path d="M5.5198 11.3000
L5.9394 11.3000
" />
<path d="M5.9394 11.3000
L7.0790 11.3000
" />
<path d="M5.1388 11.3000
L5.9394 11.3000
" />
<path d="M7.0790 11.3000
L7.2670 11.4880
" />
<path d="M23.1140 14.7380
L22.9960 14.7380
" />
<path d="M22.9960 14.7380
L22.9960 14.6370
" />
<path d="M21.5436 14.1504
L21.0265 14.6675
" />
<path d="M22.9960 14.6370
L22.5094 14.1504
" />
<path d="M22.5094 14.1504
L21.5436 14.1504
" />
<path d="M21.0265 14.6675
L21.0265 14.7290
" />
<path d="M21.0011 14.7290
L21.0011 14.6675
" />
<path d="M18.1610 20.8250
L18.1610 18.9200
" />
<path d="M19.9455 13.0280
L19.9455 13.4505
" />
<path d="M19.9455 13.4505
L20.4426 13.9476
" />
<path d="M20.4426 13.9476
L20.6193 13.9476
" />
<path d="M20.7010 20.8250
L20.7010 18.9200
" />
<path d="M20.4455 13.0280
L20.4632 13.0280
" />
<path d="M20.4632 13.0280
L20.6467 13.2115
" />
</g>
<g style="fill:none; 
stroke:#000000; stroke-width:0.3048; stroke-opacity:1; 
stroke-linecap:round; stroke-linejoin:round;">
<path d="M21.0265 17.1420
L21.0265 17.2454
" />
<path d="M21.0265 17.2454
L21.2303 17.4492
" />
<path d="M8.0010 18.9200
L8.0010 20.8250
" />
<path d="M13.4899 16.4841
L14.6050 17.5992
" />
<path d="M14.6050 17.5992
L18.3863 17.5992
" />
<path d="M18.3863 17.5992
L19.2960 16.6895
" />
<path d="M12.1920 16.4841
L13.4899 16.4841
" />
<path d="M21.0265 17.1420
L19.7485 17.1420
" />
<path d="M19.7485 17.1420
L19.4945 16.8880
" />
<path d="M19.2960 16.6895
L19.4945 16.8880
" />
<path d="M19.4455 13.0280
L19.4455 13.4894
" />
<path d="M19.4455 13.4894
L19.9008 13.9447
" />
<path d="M19.9008 13.9447
L19.9008 13.9542
" />
<path d="M19.9008 13.9542
L20.0406 14.0940
" />
<path d="M20.0406 14.0940
L20.0406 15.0139
" />
<path d="M20.0406 15.0139
L19.2960 15.7585
" />
<path d="M19.2960 15.7585
L19.2960 15.8085
" />
<path d="M19.2960 15.8085
L19.2960 16.6895
" />
<path d="M33.4010 1.7750
L33.4010 3.6800
" />
<path d="M20.7645 7.4900
L21.0740 7.1805
" />
<path d="M21.0740 7.1805
L21.0740 6.9820
" />
<path d="M20.7645 7.4901
L20.7645 7.4900
" />
<path d="M20.4455 7.8090
L20.4456 7.8090
" />
<path d="M20.4456 7.8090
L20.7645 7.4901
" />
<path d="M20.4455 8.2280
L20.4455 7.8090
" />
<path d="M12.7635 7.4980
L11.4786 7.4980
" />
<path d="M11.4786 7.4980
L10.8356 6.8550
" />
<path d="M9.4615 16.3245
L9.4115 16.3245
" />
<path d="M8.4625 16.2975
L9.4345 16.2975
" />
<path d="M9.4345 16.2975
L9.4615 16.3245
" />
<path d="M8.4625 16.2975
L8.4625 16.6403
" />
<path d="M2.9210 16.3800
L4.8824 16.3800
" />
<path d="M4.8824 16.3800
L6.0960 15.1664
" />
<path d="M6.0960 15.1664
L6.0960 13.6336
" />
<path d="M1.0160 16.3800
L2.9210 16.3800
" />
<path d="M3.9370 10.1412
L3.9370 12.8218
" />
<path d="M3.9370 12.8218
L4.3202 13.2050
" />
<path d="M4.3202 13.2050
L5.6674 13.2050
" />
<path d="M5.6674 13.2050
L6.0960 13.6336
" />
<path d="M5.1388 10.0000
L6.2530 10.0000
" />
<path d="M6.2530 10.0000
L6.6650 9.5880
" />
<path d="M6.6650 9.5880
L7.2670 9.5880
" />
<path d="M5.1388 10.0000
L4.0782 10.0000
" />
<path d="M4.0782 10.0000
L3.9370 10.1412
" />
</g>
<g style="fill:none; 
stroke:#000000; stroke-width:0.8000; stroke-opacity:1; 
stroke-linecap:round; stroke-linejoin:round;">
<path d="M14.6323 11.6064
L14.9749 11.6064
" />
<path d="M14.9749 11.6064
L14.9749 11.6064
" />
<path d="M13.5627 10.5368
L14.6323 11.6064
" />
<path d="M10.7682 10.5368
L13.5627 10.5368
" />
<path d="M13.1683 11.4892
L14.2378 12.5588
" />
<path d="M10.7682 11.4892
L13.1683 11.4892
" />
</g>
<g style="fill:none; 
stroke:#000000; stroke-width:0.1524; stroke-opacity:1; 
stroke-linecap:round; stroke-linejoin:round;">
<path d="M15.0575 15.6180
L15.0575 15.6680
" />
<path d="M15.0575 15.6680
L16.0575 16.6680
" />
<path d="M16.0575 16.6680
L16.0575 16.8245
" />
</g>
<g style="fill:none; 
stroke:#000000; stroke-width:0.3048; stroke-opacity:1; 
stroke-linecap:round; stroke-linejoin:round;">
<path d="M5.4610 18.9200
L5.4610 20.8250
" />
<path d="M7.4125 16.2975
L6.4960 16.2975
" />
<path d="M6.4960 16.2975
L6.4770 16.3165
" />
<path d="M5.4610 21.4600
L5.4610 21.3076
" />
</g>
<g style="fill:none; 
stroke:#000000; stroke-width:0.1524; stroke-opacity:1; 
stroke-linecap:round; stroke-linejoin:round;">
<path d="M23.2410 18.9200
L23.2410 20.8250
" />
<path d="M26.5430 10.2205
L26.5430 15.4656
" />
<path d="M26.5430 15.4656
L23.2410 18.7676
" />
<path d="M23.2410 18.7676
L23.2410 18.9200
" />
<path d="M26.3525 10.0300
L26.5430 10.2205
" />
<path d="M22.7965 10.0300
L26.3525 10.0300
" />
<path d="M21.4485 11.3780
L22.7965 10.0300
" />
<path d="M21.0955 11.3780
L21.4485 11.3780
" />
<path d="M26.8478 16.6848
L25.7810 17.7516
" />
<path d="M25.7810 18.9200
L25.7810 20.8250
" />
<path d="M21.0955 10.8780
L21.5174 10.8780
" />
<path d="M21.5174 10.8780
L22.6702 9.7252
" />
<path d="M22.6702 9.7252
L26.4788 9.7252
" />
<path d="M26.4788 9.7252
L26.8478 10.0942
" />
<path d="M26.8478 10.0942
L26.8478 16.6848
" />
<path d="M25.7810 17.7516
L25.7810 18.9200
" />
<path d="M28.3210 20.8250
L28.3210 18.9200
" />
<path d="M27.1526 9.9680
L27.1526 17.5992
" />
<path d="M27.1526 17.5992
L28.3210 18.7676
" />
<path d="M28.3210 18.7676
L28.3210 18.9200
" />
<path d="M21.0955 10.3780
L21.5864 10.3780
" />
<path d="M21.5864 10.3780
L22.5440 9.4204
" />
<path d="M22.5440 9.4204
L26.6050 9.4204
" />
<path d="M26.6050 9.4204
L27.1526 9.9680
" />
<path d="M30.8610 18.9200
L30.8610 20.8250
" />
<path d="M21.0955 9.8780
L21.6553 9.8780
" />
<path d="M21.6553 9.8780
L22.4177 9.1156
" />
<path d="M22.4177 9.1156
L26.7313 9.1156
" />
<path d="M26.7313 9.1156
L27.5604 9.9447
" />
<path d="M27.5604 9.9447
L27.5604 15.2459
" />
<path d="M27.5604 15.2459
L28.6489 16.3344
" />
<path d="M28.6489 16.3344
L29.4438 16.3344
" />
<path d="M29.4438 16.3344
L30.8610 17.7516
" />
<path d="M30.8610 17.7516
L30.8610 18.9200
" />
<path d="M21.0955 9.3780
L21.5979 9.3780
" />
<path d="M21.5979 9.3780
L22.1651 8.8108
" />
<path d="M22.1651 8.8108
L27.1100 8.8108
" />
<path d="M27.8652 9.5659
L27.8652 12.6716
" />
<path d="M27.1100 8.8108
L27.8652 9.5659
" />
<path d="M27.8652 12.6716
L29.5910 14.3974
" />
<path d="M29.5910 14.3974
L29.5910 16.0505
" />
<path d="M29.5910 16.0505
L31.1658 17.6253
" />
<path d="M33.4010 18.7676
L33.4010 18.9200
" />
<path d="M31.1658 17.6253
L32.2587 17.6253
" />
<path d="M32.2587 17.6253
L33.4010 18.7676
" />
<path d="M33.4010 18.9200
L33.4010 20.8250
" />
<path d="M21.0955 8.8780
L21.6668 8.8780
" />
<path d="M28.1700 9.4397
L28.1700 12.5453
" />
<path d="M21.6668 8.8780
L22.0389 8.5060
" />
<path d="M32.7399 17.6754
L34.8488 17.6754
" />
<path d="M22.0389 8.5060
L27.2363 8.5060
" />
<path d="M27.2363 8.5060
L28.1700 9.4397
" />
<path d="M29.8958 14.2711
L29.8958 15.9243
" />
<path d="M28.1700 12.5453
L29.8958 14.2711
" />
<path d="M29.8958 15.9243
L31.2921 17.3205
" />
<path d="M31.2921 17.3205
L32.3850 17.3205
" />
<path d="M32.3850 17.3205
L32.7399 17.6754
" />
<path d="M35.9410 18.7676
L35.9410 18.9200
" />
<path d="M34.8488 17.6754
L35.9410 18.7676
" />
<path d="M35.9410 18.9200
L35.9410 20.8250
" />
<path d="M15.6210 20.8250
L15.6210 18.9200
" />
<path d="M17.9455 13.0280
L17.9455 13.8482
" />
<path d="M17.9455 13.8482
L16.6781 15.1156
" />
<path d="M16.6781 15.1156
L16.5099 15.1156
" />
<path d="M16.5099 15.1156
L16.0575 15.5680
" />
<path d="M16.0575 15.5680
L16.0575 15.6180
" />
<path d="M30.8610 3.6800
L30.8610 1.7750
" />
<path d="M19.6215 6.2835
L28.4099 6.2835
" />
<path d="M28.4099 6.2835
L30.8610 3.8324
" />
<path d="M30.8610 3.8324
L30.8610 3.6800
" />
<path d="M19.4455 6.4595
L19.6215 6.2835
" />
<path d="M19.4455 8.2280
L19.4455 6.4595
" />
<path d="M28.3210 1.7750
L28.3210 3.6800
" />
<path d="M19.4952 5.9787
L26.1747 5.9787
" />
<path d="M26.1747 5.9787
L28.3210 3.8324
" />
<path d="M28.3210 3.8324
L28.3210 3.6800
" />
<path d="M18.9455 6.7287
L18.9455 6.5284
" />
<path d="M18.9455 6.5284
L19.4952 5.9787
" />
<path d="M18.9455 8.2280
L18.9455 6.7287
" />
<path d="M25.7810 3.6800
L25.7810 1.7750
" />
<path d="M18.4455 8.2280
L18.4455 6.5974
" />
<path d="M18.4455 6.5974
L19.3690 5.6739
" />
<path d="M19.3690 5.6739
L23.9395 5.6739
" />
<path d="M23.9395 5.6739
L25.7810 3.8324
" />
<path d="M25.7810 3.8324
L25.7810 3.6800
" />
<path d="M23.2410 1.7750
L23.2410 3.6800
" />
<path d="M17.9455 8.2280
L17.9455 6.6663
" />
<path d="M17.9455 6.6663
L19.2427 5.3691
" />
<path d="M21.7043 5.3691
L23.2410 3.8324
" />
<path d="M23.2410 3.8324
L23.2410 3.6800
" />
<path d="M19.2427 5.3691
L21.7043 5.3691
" />
<path d="M20.7010 1.7750
L20.7010 3.6800
" />
<path d="M20.7010 3.6800
L20.7010 3.8324
" />
<path d="M19.1165 5.0643
L17.4455 6.7352
" />
<path d="M17.4455 6.9355
L17.4455 8.2280
" />
<path d="M20.7010 3.8324
L19.4691 5.0643
" />
<path d="M17.4455 6.7352
L17.4455 6.9355
" />
<path d="M19.4691 5.0643
L19.1165 5.0643
" />
<path d="M18.1610 3.6800
L18.1610 1.7750
" />
<path d="M16.9455 8.2280
L16.9455 3.8795
" />
<path d="M16.9455 3.8795
L17.1450 3.6800
" />
<path d="M17.1450 3.6800
L18.1610 3.6800
" />
<path d="M15.6210 1.7750
L15.6210 3.6800
" />
<path d="M16.2955 8.8780
L15.7931 8.8780
" />
<path d="M15.7931 8.8780
L15.6210 8.7059
" />
<path d="M15.6210 8.7059
L15.6210 4.8484
" />
<path d="M15.6210 4.8484
L15.6210 3.6800
" />
<path d="M13.0810 3.6800
L13.0810 1.7750
" />
<path d="M16.2955 9.3780
L15.7931 9.3780
" />
<path d="M15.7931 9.3780
L15.3162 8.9011
" />
<path d="M15.3162 8.9011
L15.3162 6.0676
" />
<path d="M15.3162 6.0676
L13.0810 3.8324
" />
<path d="M13.0810 3.8324
L13.0810 3.6800
" />
<path d="M10.5410 3.6800
L10.5410 1.7750
" />
<path d="M14.2565 6.6363
L14.2565 6.3310
" />
<path d="M14.2565 6.3310
L13.1370 5.2115
" />
<path d="M15.5863 9.8780
L14.2565 8.5482
" />
<path d="M14.2565 8.5482
L14.2565 6.6363
" />
<path d="M16.2955 9.8780
L15.5863 9.8780
" />
<path d="M13.9517 6.7626
L12.4058 5.2167
" />
<path d="M12.4058 5.2167
L9.3853 5.2167
" />
<path d="M9.3853 5.2167
L8.0010 3.8324
" />
<path d="M8.0010 3.8324
L8.0010 3.6800
" />
<path d="M15.6552 10.3780
L13.9517 8.6745
" />
<path d="M13.9517 8.6745
L13.9517 6.7626
" />
<path d="M16.2955 10.3780
L15.6552 10.3780
" />
<path d="M8.0010 3.6800
L8.0010 1.7750
" />
<path d="M5.4610 3.6800
L5.4610 1.7750
" />
<path d="M12.2795 5.5215
L7.1501 5.5215
" />
<path d="M7.1501 5.5215
L5.4610 3.8324
" />
<path d="M5.4610 3.8324
L5.4610 3.6800
" />
<path d="M13.6469 8.8007
L13.6469 6.8889
" />
<path d="M13.6469 6.8889
L12.2795 5.5215
" />
<path d="M15.7242 10.8780
L13.6469 8.8007
" />
<path d="M16.2955 10.8780
L15.7242 10.8780
" />
<path d="M2.9210 3.6800
L2.9210 1.7750
" />
<path d="M12.1533 5.8263
L6.0954 5.8263
" />
<path d="M6.0954 5.8263
L5.1937 4.9246
" />
<path d="M5.1937 4.9246
L4.0132 4.9246
" />
<path d="M4.0132 4.9246
L2.9210 3.8324
" />
<path d="M2.9210 3.8324
L2.9210 3.6800
" />
<path d="M16.2955 11.3780
L15.7931 11.3780
" />
<path d="M15.7931 11.3780
L13.3421 8.9270
" />
<path d="M13.3421 8.9270
L13.3421 7.0151
" />
<path d="M13.3421 7.0151
L12.1533 5.8263
" />
<path d="M10.5410 20.8250
L10.5410 18.9200
" />
<path d="M16.9455 13.0280
L16.9455 13.3410
" />
<path d="M16.9455 13.3410
L16.4465 13.8400
" />
</g>
<g style="fill:none; 
stroke:#000000; stroke-width:0.3048; stroke-opacity:1; 
stroke-linecap:round; stroke-linejoin:round;">
<path d="M5.0927 6.8851
L5.0927 7.9211
" />
<path d="M5.0927 7.9211
L4.9138 8.1000
" />
<path d="M2.4638 14.6000
L4.8138 14.6000
" />
<path d="M4.8138 14.6000
L4.9138 14.5000
" />
<path d="M2.4638 8.0000
L4.8138 8.0000
" />
<path d="M4.8138 8.0000
L4.9138 8.1000
" />
<path d="M3.8227 6.8851
L5.0927 6.8851
" />
<path d="M2.4638 9.8500
L2.4638 8.0000
" />
<path d="M2.4638 12.7500
L2.4638 9.8500
" />
<path d="M2.4638 14.6000
L2.4638 12.7500
" />
<path d="M2.4888 14.5000
L2.4638 14.5250
" />
<path d="M2.4888 8.1000
L2.4638 8.0750
" />
<path d="M2.1590 7.7702
L2.4638 8.0750
" />
<path d="M18.9455 13.0280
L18.9455 14.1880
" />
<path d="M18.9455 14.1880
L19.2960 14.5385
" />
<path style="fill:#000000; fill-opacity:1.0000; stroke:none;fill-rule:evenodd;"
d="M 16.6333,12.2562
16.6370,12.2652
16.6370,12.4938
16.6333,12.5028
16.6243,12.5065
15.9398,12.5065
15.9386,12.5067
15.9376,12.5074
15.4977,12.9473
15.4887,12.9510
14.2367,12.9510
14.2277,12.9473
14.2240,12.9383
14.2240,12.2652
14.2277,12.2562
14.2367,12.2525
16.6243,12.2525
Z" /> 
<path style="fill:#000000; fill-opacity:1.0000; stroke:none;fill-rule:evenodd;"
d="M 15.2685,11.1767
15.6306,11.5388
15.7057,11.5890
15.7191,11.5916
15.7256,11.5951
15.8741,11.7436
15.8751,11.7443
15.8762,11.7445
16.6243,11.7445
16.6333,11.7482
16.6370,11.7572
16.6370,11.9858
16.6333,11.9948
16.6243,11.9985
14.5542,11.9985
14.5452,11.9948
14.5415,11.9858
14.5415,11.1857
14.5452,11.1767
14.5542,11.1730
15.2595,11.1730
Z" /> 
</g>
<g style="fill:#FFFFFF; fill-opacity:1.0000; stroke:none;">
<circle cx="14.9272" cy="16.7765" r="0.1651" /> 
</g>
<g style="fill:#FFFFFF; fill-opacity:1.0000; stroke:none;">
<circle cx="5.0927" cy="5.8851" r="0.1651" /> 
</g>
<g style="fill:#FFFFFF; fill-opacity:1.0000; stroke:none;">
<circle cx="3.8227" cy="5.8851" r="0.1651" /> 
</g>
<g style="fill:#FFFFFF; fill-opacity:1.0000; stroke:none;">
<circle cx="23.1140" cy="16.8880" r="0.1651" /> 
</g>
<g style="fill:#FFFFFF; fill-opacity:1.0000; stroke:none;">
<circle cx="23.5585" cy="12.0620" r="0.1651" /> 
</g>
<g style="fill:#FFFFFF; fill-opacity:1.0000; stroke:none;">
<circle cx="24.1935" cy="12.0620" r="0.1651" /> 
</g>
<g style="fill:#FFFFFF; fill-opacity:1.0000; stroke:none;">
<circle cx="24.8285" cy="12.0620" r="0.1651" /> 
</g>
<g style="fill:#FFFFFF; fill-opacity:1.0000; stroke:none;">
<circle cx="19.5580" cy="11.4905" r="0.1651" /> 
</g>
<g style="fill:#FFFFFF; fill-opacity:1.0000; stroke:none;">
<circle cx="19.5580" cy="9.7655" r="0.1651" /> 
</g>
<g style="fill:#FFFFFF; fill-opacity:1.0000; stroke:none;">
<circle cx="17.8330" cy="9.7655" r="0.1651" /> 
</g>
<g style="fill:#FFFFFF; fill-opacity:1.0000; stroke:none;">
<circle cx="17.8330" cy="11.4905" r="0.1651" /> 
</g>
<g style="fill:#FFFFFF; fill-opacity:1.0000; stroke:none;">
<circle cx="31.8810" cy="8.7600" r="0.1651" /> 
</g>
<g style="fill:#FFFFFF; fill-opacity:1.0000; stroke:none;">
<circle cx="22.0265" cy="14.7290" r="0.1651" /> 
</g>
<g style="fill:#FFFFFF; fill-opacity:1.0000; stroke:none;">
<circle cx="21.0265" cy="15.9355" r="0.1651" /> 
</g>
<g style="fill:#FFFFFF; fill-opacity:1.0000; stroke:none;">
<circle cx="16.4465" cy="14.5766" r="0.1651" /> 
</g>
<g style="fill:#FFFFFF; fill-opacity:1.0000; stroke:none;">
<circle cx="31.8810" cy="12.5700" r="0.1651" /> 
</g>
<g style="fill:#FFFFFF; fill-opacity:1.0000; stroke:none;">
<circle cx="20.6193" cy="13.9476" r="0.1651" /> 
</g>
<g style="fill:#FFFFFF; fill-opacity:1.0000; stroke:none;">
<circle cx="31.8810" cy="13.8400" r="0.1651" /> 
</g>
<g style="fill:#FFFFFF; fill-opacity:1.0000; stroke:none;">
<circle cx="20.6467" cy="13.2115" r="0.1651" /> 
</g>
<g style="fill:#FFFFFF; fill-opacity:1.0000; stroke:none;">
<circle cx="35.9410" cy="13.8400" r="0.1651" /> 
</g>
<g style="fill:#FFFFFF; fill-opacity:1.0000; stroke:none;">
<circle cx="21.2303" cy="17.4492" r="0.1651" /> 
</g>
<g style="fill:#FFFFFF; fill-opacity:1.0000; stroke:none;">
<circle cx="9.3185" cy="14.0305" r="0.1651" /> 
</g>
<g style="fill:#FFFFFF; fill-opacity:1.0000; stroke:none;">
<circle cx="12.1920" cy="16.4841" r="0.1651" /> 
</g>
<g style="fill:#FFFFFF; fill-opacity:1.0000; stroke:none;">
<circle cx="21.0820" cy="6.9185" r="0.1651" /> 
</g>
<g style="fill:#FFFFFF; fill-opacity:1.0000; stroke:none;">
<circle cx="12.7635" cy="7.4980" r="0.1651" /> 
</g>
<g style="fill:#FFFFFF; fill-opacity:1.0000; stroke:none;">
<circle cx="9.4615" cy="16.3245" r="0.1651" /> 
</g>
<g style="fill:#FFFFFF; fill-opacity:1.0000; stroke:none;">
<circle cx="12.7635" cy="8.4980" r="0.1651" /> 
</g>
<g style="fill:#FFFFFF; fill-opacity:1.0000; stroke:none;">
<circle cx="7.3185" cy="14.0305" r="0.1651" /> 
</g>
<g style="fill:#FFFFFF; fill-opacity:1.0000; stroke:none;">
<circle cx="3.9370" cy="10.1412" r="0.1651" /> 
</g>
<g style="fill:#FFFFFF; fill-opacity:1.0000; stroke:none;">
<circle cx="6.4770" cy="16.3165" r="0.1651" /> 
</g>
<g style="fill:#FFFFFF; fill-opacity:1.0000; stroke:none;">
<circle cx="16.0575" cy="15.6180" r="0.1651" /> 
</g>
<g style="fill:#FFFFFF; fill-opacity:1.0000; stroke:none;">
<circle cx="13.1370" cy="5.2115" r="0.1651" /> 
</g>
<g style="fill:#FFFFFF; fill-opacity:1.0000; stroke:none;">
<circle cx="16.4465" cy="13.8400" r="0.1651" /> 
</g>
<g style="fill:#FFFFFF; fill-opacity:1.0000; stroke:none;">
<circle cx="2.9210" cy="16.3800" r="0.5080" /> 
</g>
<g style="fill:#FFFFFF; fill-opacity:1.0000; stroke:none;">
<circle cx="1.0160" cy="16.3800" r="0.5080" /> 
</g>
<g style="fill:#FFFFFF; fill-opacity:1.0000; stroke:none;">
<circle cx="2.4638" cy="8.0000" r="0.6000" /> 
</g>
<g style="fill:#FFFFFF; fill-opacity:1.0000; stroke:none;">
<circle cx="2.4638" cy="14.6000" r="0.6000" /> 
</g>
<g style="fill:#FFFFFF; fill-opacity:1.0000; stroke:none;">
<circle cx="33.4010" cy="20.8250" r="0.5080" /> 
</g>
<g style="fill:#FFFFFF; fill-opacity:1.0000; stroke:none;">
<circle cx="30.8610" cy="20.8250" r="0.5080" /> 
</g>
<g style="fill:#FFFFFF; fill-opacity:1.0000; stroke:none;">
<circle cx="28.3210" cy="20.8250" r="0.5080" /> 
</g>
<g style="fill:#FFFFFF; fill-opacity:1.0000; stroke:none;">
<circle cx="25.7810" cy="20.8250" r="0.5080" /> 
</g>
<g style="fill:#FFFFFF; fill-opacity:1.0000; stroke:none;">
<circle cx="23.2410" cy="20.8250" r="0.5080" /> 
</g>
<g style="fill:#FFFFFF; fill-opacity:1.0000; stroke:none;">
<circle cx="20.7010" cy="20.8250" r="0.5080" /> 
</g>
<g style="fill:#FFFFFF; fill-opacity:1.0000; stroke:none;">
<circle cx="18.1610" cy="20.8250" r="0.5080" /> 
</g>
<g style="fill:#FFFFFF; fill-opacity:1.0000; stroke:none;">
<circle cx="15.6210" cy="20.8250" r="0.5080" /> 
</g>
<g style="fill:#FFFFFF; fill-opacity:1.0000; stroke:none;">
<circle cx="13.0810" cy="20.8250" r="0.5080" /> 
</g>
<g style="fill:#FFFFFF; fill-opacity:1.0000; stroke:none;">
<circle cx="10.5410" cy="20.8250" r="0.5080" /> 
</g>
<g style="fill:#FFFFFF; fill-opacity:1.0000; stroke:none;">
<circle cx="8.0010" cy="20.8250" r="0.5080" /> 
</g>
<g style="fill:#FFFFFF; fill-opacity:1.0000; stroke:none;">
<circle cx="5.4610" cy="20.8250" r="0.5080" /> 
</g>
<g style="fill:#FFFFFF; fill-opacity:1.0000; stroke:none;">
<circle cx="2.9210" cy="20.8250" r="0.5080" /> 
</g>
<g style="fill:#FFFFFF; fill-opacity:1.0000; stroke:none;">
<circle cx="2.9210" cy="18.9200" r="0.5080" /> 
</g>
<g style="fill:#FFFFFF; fill-opacity:1.0000; stroke:none;">
<circle cx="5.4610" cy="18.9200" r="0.5080" /> 
</g>
<g style="fill:#FFFFFF; fill-opacity:1.0000; stroke:none;">
<circle cx="8.0010" cy="18.9200" r="0.5080" /> 
</g>
<g style="fill:#FFFFFF; fill-opacity:1.0000; stroke:none;">
<circle cx="10.5410" cy="18.9200" r="0.5080" /> 
</g>
<g style="fill:#FFFFFF; fill-opacity:1.0000; stroke:none;">
<circle cx="13.0810" cy="18.9200" r="0.5080" /> 
</g>
<g style="fill:#FFFFFF; fill-opacity:1.0000; stroke:none;">
<circle cx="15.6210" cy="18.9200" r="0.5080" /> 
</g>
<g style="fill:#FFFFFF; fill-opacity:1.0000; stroke:none;">
<circle cx="18.1610" cy="18.9200" r="0.5080" /> 
</g>
<g style="fill:#FFFFFF; fill-opacity:1.0000; stroke:none;">
<circle cx="20.7010" cy="18.9200" r="0.5080" /> 
</g>
<g style="fill:#FFFFFF; fill-opacity:1.0000; stroke:none;">
<circle cx="23.2410" cy="18.9200" r="0.5080" /> 
</g>
<g style="fill:#FFFFFF; fill-opacity:1.0000; stroke:none;">
<circle cx="25.7810" cy="18.9200" r="0.5080" /> 
</g>
<g style="fill:#FFFFFF; fill-opacity:1.0000; stroke:none;">
<circle cx="28.3210" cy="18.9200" r="0.5080" /> 
</g>
<g style="fill:#FFFFFF; fill-opacity:1.0000; stroke:none;">
<circle cx="30.8610" cy="18.9200" r="0.5080" /> 
</g>
<g style="fill:#FFFFFF; fill-opacity:1.0000; stroke:none;">
<circle cx="33.4010" cy="18.9200" r="0.5080" /> 
</g>
<g style="fill:#FFFFFF; fill-opacity:1.0000; stroke:none;">
<circle cx="35.9410" cy="20.8250" r="0.5080" /> 
</g>
<g style="fill:#FFFFFF; fill-opacity:1.0000; stroke:none;">
<circle cx="35.9410" cy="18.9200" r="0.5080" /> 
</g>
<g style="fill:#FFFFFF; fill-opacity:1.0000; stroke:none;">
<circle cx="33.4010" cy="3.6800" r="0.5080" /> 
</g>
<g style="fill:#FFFFFF; fill-opacity:1.0000; stroke:none;">
<circle cx="30.8610" cy="3.6800" r="0.5080" /> 
</g>
<g style="fill:#FFFFFF; fill-opacity:1.0000; stroke:none;">
<circle cx="28.3210" cy="3.6800" r="0.5080" /> 
</g>
<g style="fill:#FFFFFF; fill-opacity:1.0000; stroke:none;">
<circle cx="25.7810" cy="3.6800" r="0.5080" /> 
</g>
<g style="fill:#FFFFFF; fill-opacity:1.0000; stroke:none;">
<circle cx="23.2410" cy="3.6800" r="0.5080" /> 
</g>
<g style="fill:#FFFFFF; fill-opacity:1.0000; stroke:none;">
<circle cx="20.7010" cy="3.6800" r="0.5080" /> 
</g>
<g style="fill:#FFFFFF; fill-opacity:1.0000; stroke:none;">
<circle cx="18.1610" cy="3.6800" r="0.5080" /> 
</g>
<g style="fill:#FFFFFF; fill-opacity:1.0000; stroke:none;">
<circle cx="15.6210" cy="3.6800" r="0.5080" /> 
</g>
<g style="fill:#FFFFFF; fill-opacity:1.0000; stroke:none;">
<circle cx="13.0810" cy="3.6800" r="0.5080" /> 
</g>
<g style="fill:#FFFFFF; fill-opacity:1.0000; stroke:none;">
<circle cx="10.5410" cy="3.6800" r="0.5080" /> 
</g>
<g style="fill:#FFFFFF; fill-opacity:1.0000; stroke:none;">
<circle cx="8.0010" cy="3.6800" r="0.5080" /> 
</g>
<g style="fill:#FFFFFF; fill-opacity:1.0000; stroke:none;">
<circle cx="5.4610" cy="3.6800" r="0.5080" /> 
</g>
<g style="fill:#FFFFFF; fill-opacity:1.0000; stroke:none;">
<circle cx="2.9210" cy="3.6800" r="0.5080" /> 
</g>
<g style="fill:#FFFFFF; fill-opacity:1.0000; stroke:none;">
<circle cx="2.9210" cy="1.7750" r="0.5080" /> 
</g>
<g style="fill:#FFFFFF; fill-opacity:1.0000; stroke:none;">
<circle cx="5.4610" cy="1.7750" r="0.5080" /> 
</g>
<g style="fill:#FFFFFF; fill-opacity:1.0000; stroke:none;">
<circle cx="8.0010" cy="1.7750" r="0.5080" /> 
</g>
<g style="fill:#FFFFFF; fill-opacity:1.0000; stroke:none;">
<circle cx="10.5410" cy="1.7750" r="0.5080" /> 
</g>
<g style="fill:#FFFFFF; fill-opacity:1.0000; stroke:none;">
<circle cx="13.0810" cy="1.7750" r="0.5080" /> 
</g>
<g style="fill:#FFFFFF; fill-opacity:1.0000; stroke:none;">
<circle cx="15.6210" cy="1.7750" r="0.5080" /> 
</g>
<g style="fill:#FFFFFF; fill-opacity:1.0000; stroke:none;">
<circle cx="18.1610" cy="1.7750" r="0.5080" /> 
</g>
<g style="fill:#FFFFFF; fill-opacity:1.0000; stroke:none;">
<circle cx="20.7010" cy="1.7750" r="0.5080" /> 
</g>
<g style="fill:#FFFFFF; fill-opacity:1.0000; stroke:none;">
<circle cx="23.2410" cy="1.7750" r="0.5080" /> 
</g>
<g style="fill:#FFFFFF; fill-opacity:1.0000; stroke:none;">
<circle cx="25.7810" cy="1.7750" r="0.5080" /> 
</g>
<g style="fill:#FFFFFF; fill-opacity:1.0000; stroke:none;">
<circle cx="28.3210" cy="1.7750" r="0.5080" /> 
</g>
<g style="fill:#FFFFFF; fill-opacity:1.0000; stroke:none;">
<circle cx="30.8610" cy="1.7750" r="0.5080" /> 
</g>
<g style="fill:#FFFFFF; fill-opacity:1.0000; stroke:none;">
<circle cx="33.4010" cy="1.7750" r="0.5080" /> 
</g>
<g style="fill:#FFFFFF; fill-opacity:1.0000; stroke:none;">
<circle cx="35.9410" cy="3.6800" r="0.5080" /> 
</g>
<g style="fill:#FFFFFF; fill-opacity:1.0000; stroke:none;">
<circle cx="35.9410" cy="1.7750" r="0.5080" /> 
</g> 
</svg>
