<?xml version="1.0" standalone="no"?>
 <!DOCTYPE svg PUBLIC "-//W3C//DTD SVG 1.1//EN" 
 "http://www.w3.org/Graphics/SVG/1.1/DTD/svg11.dtd"> 
<svg
  xmlns:svg="http://www.w3.org/2000/svg"
  xmlns="http://www.w3.org/2000/svg"
  xmlns:xlink="http://www.w3.org/1999/xlink"
  version="1.1"
  width="71.2216mm" height="40.7416mm" viewBox="0.0000 0.0000 71.2216 40.7416">
<title>SVG Image created as tiny_blinky-brd.svg date 2024/10/10 17:54:01 </title>
  <desc>Image generated by PCBNEW </desc>
<g style="fill:#000000; fill-opacity:1.0000;stroke:#000000; stroke-opacity:1.0000;
stroke-linecap:round; stroke-linejoin:round;"
 transform="translate(0 0) scale(1 1)">
<path style="fill:#000000; fill-opacity:1.0000; 
stroke:#000000; stroke-width:0.0100; stroke-opacity:1; 
stroke-linecap:round; stroke-linejoin:round;fill-rule:evenodd;"
d="M 68.2859,15.4477
68.4622,15.4522
68.5818,15.4672
68.6423,15.5012
68.6413,15.5626
68.5765,15.6603
68.4456,15.8026
68.2462,15.9983
67.9759,16.2558
67.2072,16.9866
67.3729,17.1593
67.3773,17.1638
67.4707,17.2572
67.6222,17.4054
67.8173,17.5941
68.0414,17.8093
68.2799,18.0369
69.0212,18.7418
69.7613,18.0323
69.8099,17.9857
70.0313,17.7752
70.2251,17.5931
70.3800,17.4499
70.4847,17.3563
70.5276,17.3228
70.5509,17.3514
70.5740,17.4582
70.5883,17.6193
70.5924,17.8081
70.5853,17.9982
70.5657,18.1631
70.4675,18.5236
70.2636,18.9467
69.9803,19.3259
69.6292,19.6463
69.2218,19.8931
68.7850,20.0524
68.3207,20.1230
67.8180,20.1051
67.4878,20.0667
66.4211,21.1331
66.3321,21.2221
66.0689,21.4839
65.8321,21.7179
65.6306,21.9153
65.4735,22.0673
65.3699,22.1649
65.3289,22.1994
65.3263,22.1983
65.2865,22.1442
65.2166,22.0253
65.1299,21.8637
65.1024,21.8130
64.9225,21.5422
64.6800,21.2456
64.3955,20.9452
64.0893,20.6627
63.7818,20.4201
63.3931,20.1422
63.5161,20.0406
63.5189,20.0383
63.5932,19.9731
63.7306,19.8499
63.9199,19.6786
64.1502,19.4693
64.4106,19.2318
64.6901,18.9762
64.7478,18.9233
65.0546,18.6401
65.2933,18.4153
65.4711,18.2416
65.5950,18.1115
65.6722,18.0176
65.7098,17.9526
65.7148,17.9090
65.7023,17.7848
65.7213,17.5632
65.7746,17.3037
65.8559,17.0364
65.9584,16.7911
66.1302,16.4987
66.4390,16.1341
66.8114,15.8399
67.2361,15.6227
67.7018,15.4894
68.1970,15.4468
Z" /> 
<path style="fill:#000000; fill-opacity:1.0000; 
stroke:#000000; stroke-width:0.0100; stroke-opacity:1; 
stroke-linecap:round; stroke-linejoin:round;fill-rule:evenodd;"
d="M 53.9696,15.5476
54.2152,15.5634
54.4400,15.5902
54.6135,15.6267
54.8235,15.6984
55.2670,15.9213
55.6465,16.2170
55.9555,16.5767
56.1872,16.9916
56.3348,17.4529
56.3918,17.9520
56.3925,17.9794
56.3981,18.0371
56.4157,18.0943
56.4533,18.1595
56.5186,18.2414
56.6197,18.3485
56.7644,18.4895
56.9606,18.6729
57.2162,18.9075
57.5392,19.2017
57.6868,19.3361
57.9791,19.6029
58.2064,19.8124
58.3755,19.9723
58.4937,20.0902
58.5678,20.1739
58.6051,20.2309
58.6125,20.2691
58.5970,20.2960
58.5659,20.3193
58.4260,20.4149
58.0562,20.7007
57.7044,21.0175
57.3891,21.3465
57.1287,21.6691
56.9416,21.9666
56.7690,22.3000
54.6354,20.1733
54.1256,20.2027
53.7372,20.2071
53.3947,20.1646
53.0692,20.0664
52.7218,19.9042
52.3961,19.6911
52.0667,19.3719
51.8041,18.9939
51.6167,18.5726
51.5131,18.1238
51.5018,17.6632
51.5114,17.5802
51.5367,17.4709
51.5658,17.4346
51.5673,17.4353
51.6221,17.4792
51.7371,17.5813
51.9003,17.7307
52.0996,17.9163
52.3229,18.1270
52.3458,18.1488
52.5668,18.3551
52.7630,18.5327
52.9223,18.6708
53.0326,18.7592
53.0820,18.7874
53.1058,18.7697
53.1960,18.6906
53.3416,18.5574
53.5320,18.3801
53.7563,18.1686
54.0039,17.9328
54.8798,17.0951
54.1065,16.3521
53.8797,16.1325
53.6705,15.9244
53.5257,15.7716
53.4392,15.6673
53.4050,15.6047
53.4169,15.5770
53.5385,15.5536
53.7339,15.5439
Z" /> 
<path style="fill:#000000; fill-opacity:1.0000; 
stroke:#000000; stroke-width:0.0100; stroke-opacity:1; 
stroke-linecap:round; stroke-linejoin:round;fill-rule:evenodd;"
d="M 56.2625,26.6557
56.3574,26.8569
56.4755,27.0909
56.6003,27.3263
56.7156,27.5319
56.8051,27.6763
56.8748,27.7696
57.0170,27.9419
57.1910,28.1397
57.3738,28.3363
57.7786,28.7580
57.0136,29.5301
56.2486,30.3022
56.2426,30.6249
56.2354,30.7738
56.2123,30.9881
56.1803,31.1571
56.1229,31.3385
55.9184,31.7626
55.6352,32.1436
55.2871,32.4677
54.8881,32.7207
54.4523,32.8888
54.2454,32.9307
53.9448,32.9607
53.6444,32.9634
53.3924,32.9365
53.2288,32.9038
54.0077,32.1237
54.7866,31.3435
53.8988,30.4546
53.7084,30.2646
53.4805,30.0389
53.2840,29.8464
53.1291,29.6969
53.0257,29.6000
52.9839,29.5656
52.9797,29.5677
52.9206,29.6173
52.8029,29.7248
52.6378,29.8797
52.4366,30.0714
52.2106,30.2895
52.1202,30.3772
51.8796,30.6094
51.7007,30.7749
51.5743,30.8762
51.4912,30.9156
51.4425,30.8957
51.4188,30.8188
51.4111,30.6876
51.4103,30.5043
51.4567,30.0403
51.5989,29.5818
51.8311,29.1539
52.1475,28.7704
52.2714,28.6543
52.6451,28.3882
53.0610,28.2097
53.5254,28.1167
54.0448,28.1068
54.5338,28.1343
55.3650,27.3132
55.5060,27.1751
55.7298,26.9611
55.9233,26.7825
56.0761,26.6487
56.1780,26.5687
56.2187,26.5516
Z" /> 
<path style="fill:#000000; fill-opacity:1.0000; 
stroke:#000000; stroke-width:0.0100; stroke-opacity:1; 
stroke-linecap:round; stroke-linejoin:round;fill-rule:evenodd;"
d="M 65.8187,26.5534
65.8965,26.6084
66.0294,26.7210
66.2073,26.8820
66.4198,27.0823
66.6566,27.3128
67.4878,28.1333
68.0033,28.1063
68.0571,28.1036
68.3097,28.0966
68.5054,28.1059
68.6814,28.1351
68.8751,28.1876
69.2001,28.3137
69.6072,28.5568
69.9631,28.8703
70.2523,29.2397
70.4590,29.6507
70.4843,29.7242
70.5528,30.0050
70.5962,30.3160
70.6099,30.6157
70.5896,30.8628
70.5535,31.0553
69.0367,29.5410
68.1357,30.4421
67.2346,31.3432
68.0165,32.1263
68.0789,32.1888
68.3196,32.4317
68.4965,32.6143
68.6169,32.7455
68.6878,32.8340
68.7165,32.8888
68.7104,32.9187
68.6765,32.9324
68.4409,32.9576
68.1435,32.9590
67.8439,32.9363
67.5912,32.8913
67.4064,32.8346
66.9768,32.6320
66.5923,32.3498
66.2661,32.0012
66.0113,31.5992
65.8413,31.1571
65.8179,31.0443
65.7916,30.8374
65.7790,30.6249
65.7730,30.3022
65.0071,29.5292
64.2411,28.7561
64.6220,28.3608
64.7249,28.2518
64.9077,28.0493
65.0709,27.8582
65.1882,27.7087
65.2383,27.6343
65.3534,27.4430
65.4841,27.2076
65.6137,26.9596
65.7255,26.7305
65.8029,26.5516
Z" /> 
<path style="fill:#000000; fill-opacity:1.0000; 
stroke:#000000; stroke-width:0.0100; stroke-opacity:1; 
stroke-linecap:round; stroke-linejoin:round;fill-rule:evenodd;"
d="M 65.6674,25.4691
65.5930,25.8764
65.5008,26.1977
65.2498,26.8241
64.9202,27.4055
64.5205,27.9279
64.4821,27.9654
64.0593,28.3777
63.7296,28.6531
63.7251,28.9951
63.7166,29.1684
63.6928,29.3703
63.6600,29.5191
63.6520,29.5415
63.5336,29.7465
63.3601,29.9174
63.1645,30.0208
63.1508,30.0249
62.8513,30.0633
62.5725,30.0091
62.3304,29.8679
62.1405,29.6456
62.0580,29.5234
61.9669,29.4393
61.8680,29.4148
61.8265,29.4163
61.7453,29.4535
61.7048,29.5627
61.6850,29.6359
61.5668,29.8390
61.3814,29.9871
61.1520,30.0594
61.0975,30.0647
60.7721,30.0530
60.5055,29.9589
60.2948,29.7811
60.1374,29.5181
60.0376,29.2862
59.9731,29.4386
59.9405,29.5069
59.8019,29.7140
59.6289,29.8911
59.4527,30.0043
59.3662,30.0347
59.0954,30.0663
58.8297,30.0134
58.5945,29.8841
58.4152,29.6859
58.3788,29.6237
58.3339,29.5197
58.3072,29.3962
58.2938,29.2259
58.2889,28.9814
58.2848,28.4734
57.9237,28.1115
57.6833,27.8361
60.6044,27.8361
60.8141,27.6087
60.9146,27.5071
61.0222,27.4162
61.0892,27.3812
61.1310,27.4137
61.1952,27.5195
61.2610,27.6733
61.3673,27.9654
61.3421,27.4219
61.3273,27.1916
61.2859,26.8703
61.2234,26.6443
61.1390,26.5107
61.0319,26.4668
60.9403,26.4909
60.8365,26.5814
60.7774,26.7075
60.7142,26.9103
60.6592,27.1488
60.6202,27.3887
60.6052,27.5960
60.6044,27.8361
57.6833,27.8361
57.4970,27.6227
57.1221,27.0463
56.8342,26.4178
56.6342,25.7389
56.5972,25.5578
56.5663,25.3517
56.5515,25.1524
57.9818,25.1524
58.0231,25.5044
58.1529,25.8583
58.2476,26.0385
58.3409,26.2009
58.4110,26.3069
58.5045,26.4265
58.6432,26.1431
58.7203,26.0010
58.8359,25.8484
58.9850,25.7246
59.1895,25.6123
59.4712,25.4946
59.7636,25.3714
59.9792,25.2525
60.1272,25.1297
60.2242,24.9921
60.2928,24.7933
60.2896,24.6711
61.9760,24.6711
61.9869,24.7897
61.9884,24.7933
62.0636,24.9798
62.2198,25.1488
62.4630,25.3038
62.8003,25.4517
62.8517,25.4715
63.1452,25.6043
63.3623,25.7483
63.5247,25.9209
63.6539,26.1396
63.6930,26.2182
63.7502,26.3238
63.7800,26.3652
63.7933,26.3585
63.8514,26.2867
63.9334,26.1552
64.0266,25.9876
64.1180,25.8077
64.1949,25.6392
64.2444,25.5058
64.2906,25.2813
64.2875,24.9454
64.2025,24.6355
64.0460,24.3638
63.8280,24.1426
63.5589,23.9840
63.2488,23.9005
62.9081,23.9042
62.6864,23.9482
62.3827,24.0617
62.1599,24.2225
62.0228,24.4270
61.9760,24.6711
60.2896,24.6711
60.2870,24.5715
60.1959,24.3711
60.0282,24.2005
59.7926,24.0682
59.4978,23.9826
59.1526,23.9522
58.9991,23.9550
58.8347,23.9739
58.6988,24.0202
58.5484,24.1046
58.3557,24.2537
58.1514,24.5125
58.0257,24.8169
57.9818,25.1524
56.5515,25.1524
56.5504,25.1377
56.5473,24.8848
56.5550,24.5618
56.5606,24.4256
56.6065,23.9158
56.6947,23.4618
56.8330,23.0311
57.0293,22.5914
57.2247,22.2389
57.6156,21.6904
58.0747,21.2075
58.5931,20.7969
59.1618,20.4651
59.7720,20.2188
60.4148,20.0646
60.7482,20.0301
61.1590,20.0227
61.5853,20.0445
61.9888,20.0933
62.3316,20.1672
62.5314,20.2293
63.1467,20.4884
63.7136,20.8319
64.2253,21.2528
64.6753,21.7442
65.0569,22.2990
65.3634,22.9103
65.5880,23.5712
65.6082,23.6528
65.6764,24.0643
65.7090,24.5278
65.7061,25.0078
65.6832,25.2813
Z" /> 
<path style="fill:#000000; fill-opacity:1.0000; 
stroke:#000000; stroke-width:0.0100; stroke-opacity:1; 
stroke-linecap:round; stroke-linejoin:round;fill-rule:evenodd;"
d="M 25.0791,14.0226
25.2499,14.4725
25.4034,14.8750
25.5368,15.2221
25.6468,15.5059
25.7304,15.7183
25.7846,15.8515
25.8064,15.8974
25.8098,15.8948
25.8596,15.8365
25.9626,15.7083
26.1120,15.5189
26.3009,15.2769
26.5227,14.9910
26.7704,14.6699
27.0375,14.3223
28.2431,12.7491
27.1184,11.3910
26.9085,11.1377
26.6529,10.8298
26.4207,10.5505
26.2202,10.3098
26.0596,10.1177
25.9471,9.9840
25.8912,9.9187
25.7887,9.8044
26.8008,9.8065
27.8130,9.8086
28.7655,11.0853
29.7180,12.3619
29.7180,9.8044
31.3436,9.8044
31.3436,16.1036
29.7180,16.1036
29.7180,14.2336
29.5346,14.0129
29.4559,13.9207
29.3665,13.8229
29.3187,13.7800
29.3168,13.7804
29.2731,13.8283
29.1805,13.9481
29.0468,14.1292
28.8797,14.3611
28.6867,14.6334
28.4755,14.9357
27.6647,16.1036
24.0876,16.1036
23.7655,15.1367
22.4618,15.1503
21.1582,15.1638
21.0001,15.6210
20.8421,16.0782
19.9714,16.0921
19.7720,16.0942
19.4982,16.0929
19.2862,16.0863
19.1494,16.0749
19.1008,16.0592
19.1171,16.0080
19.1663,15.8697
19.2454,15.6530
19.3513,15.3661
19.4809,15.0176
19.6309,14.6158
19.7984,14.1692
19.9654,13.7252
21.5985,13.7252
21.6259,13.7364
21.7390,13.7485
21.9246,13.7581
22.1667,13.7645
22.4494,13.7668
22.6799,13.7655
22.9341,13.7607
23.1359,13.7529
23.2691,13.7428
23.3172,13.7311
23.3168,13.7256
23.2958,13.6424
23.2472,13.4867
23.1765,13.2738
23.0892,13.0191
22.9908,12.7379
22.8868,12.4454
22.7826,12.1571
22.6838,11.8883
22.5959,11.6544
22.5243,11.4705
22.4745,11.3522
22.4520,11.3147
22.4375,11.3452
22.3921,11.4613
22.3224,11.6504
22.2333,11.8987
22.1298,12.1927
22.0167,12.5187
21.9372,12.7492
21.8318,13.0544
21.7405,13.3183
21.6680,13.5272
21.6191,13.6674
21.5985,13.7252
19.9654,13.7252
19.9801,13.6861
20.1729,13.1751
20.3466,12.7153
20.5357,12.2148
20.7134,11.7443
20.8763,11.3131
21.0208,10.9304
21.1434,10.6055
21.2407,10.3479
21.3090,10.1666
21.3449,10.0711
21.4449,9.8044
23.4950,9.8047
24.6380,12.8520
24.6981,13.0121
24.8941,13.5331
24.9690,13.7311
Z" /> 
<path style="fill:#000000; fill-opacity:1.0000; 
stroke:#000000; stroke-width:0.0100; stroke-opacity:1; 
stroke-linecap:round; stroke-linejoin:round;fill-rule:evenodd;"
d="M 2.8722,10.9235
3.0227,11.1824
3.1872,11.4630
3.3300,11.7036
3.4438,11.8920
3.5214,12.0164
3.5555,12.0647
3.5861,12.0337
3.6614,11.9258
3.7740,11.7519
3.9167,11.5230
4.0823,11.2505
4.2638,10.9456
4.9363,9.8044
6.7647,9.8044
6.6471,9.9949
6.6395,10.0070
6.5751,10.1097
6.4643,10.2852
6.3139,10.5231
6.1306,10.8127
5.9209,11.1436
5.6916,11.5053
5.4493,11.8872
4.3692,13.5890
4.3690,14.8463
4.3688,16.1036
2.7432,16.1036
2.7432,13.5474
1.5748,11.6996
1.4217,11.4573
1.1857,11.0829
0.9707,10.7408
0.7824,10.4401
0.6262,10.1895
0.5078,9.9981
0.4327,9.8746
0.4064,9.8281
0.4469,9.8211
0.5739,9.8144
0.7717,9.8091
1.0243,9.8057
1.3155,9.8044
2.2246,9.8044
Z" /> 
<path style="fill:#000000; fill-opacity:1.0000; 
stroke:#000000; stroke-width:0.0100; stroke-opacity:1; 
stroke-linecap:round; stroke-linejoin:round;fill-rule:evenodd;"
d="M 18.5928,16.1119
16.9037,16.0911
16.7510,16.0891
16.2752,16.0821
15.8840,16.0730
15.5640,16.0602
15.3018,16.0414
15.0842,16.0150
14.8978,15.9789
14.7294,15.9312
14.5656,15.8700
14.3931,15.7933
14.1986,15.6993
14.0203,15.6050
13.5788,15.3009
13.2161,14.9333
12.9297,14.4991
12.7169,13.9954
12.6947,13.9260
12.6385,13.7217
12.6038,13.5241
12.5854,13.2971
12.5802,13.0831
14.2383,13.0831
14.2641,13.2879
14.3117,13.5115
14.3686,13.6847
14.4950,13.9063
14.7049,14.1616
14.9514,14.3811
15.2037,14.5333
15.2568,14.5559
15.3769,14.5974
15.5112,14.6268
15.6815,14.6469
15.9098,14.6608
16.2179,14.6713
16.9672,14.6923
16.9672,11.2159
16.1925,11.2342
16.1087,11.2362
15.8289,11.2446
15.6241,11.2559
15.4729,11.2734
15.3540,11.3002
15.2459,11.3396
15.1275,11.3948
15.1044,11.4064
14.7793,11.6265
14.5250,11.9140
14.3467,12.2591
14.2494,12.6521
14.2383,13.0831
12.5802,13.0831
12.5783,13.0048
12.5803,12.7369
12.6039,12.3957
12.6584,12.0966
12.7510,11.8051
12.8887,11.4864
13.0487,11.2015
13.3565,10.8161
13.7375,10.4836
14.1776,10.2179
14.2481,10.1835
14.4387,10.0933
14.6102,10.0203
14.7760,9.9625
14.9496,9.9179
15.1442,9.8845
15.3734,9.8603
15.6505,9.8435
15.9890,9.8320
16.4023,9.8238
16.9037,9.8169
18.5928,9.7961
18.5928,14.6923
Z" /> 
<path style="fill:#000000; fill-opacity:1.0000; 
stroke:#000000; stroke-width:0.0100; stroke-opacity:1; 
stroke-linecap:round; stroke-linejoin:round;fill-rule:evenodd;"
d="M 35.3669,9.7449
35.9255,9.8547
36.4301,10.0462
36.8895,10.3232
37.3126,10.6896
37.5404,10.9430
37.8347,11.3783
38.0408,11.8529
38.1620,12.3753
38.2016,12.9540
38.1812,13.3821
38.0858,13.9101
37.9085,14.3888
37.6444,14.8298
37.2889,15.2448
37.1302,15.3943
36.6920,15.7203
36.2126,15.9674
35.7124,16.1242
35.6786,16.1312
35.3730,16.1734
35.0208,16.1944
34.6584,16.1941
34.3223,16.1723
34.0490,16.1289
33.8229,16.0648
33.3544,15.8618
32.9224,15.5806
32.5463,15.2351
32.2456,14.8391
32.0554,14.5303
32.7486,14.1994
32.8755,14.1388
33.1008,14.0319
33.2828,13.9461
33.4052,13.8891
33.4521,13.8684
33.4672,13.8860
33.5237,13.9681
33.6054,14.0946
33.7036,14.2300
33.9690,14.4785
34.2897,14.6566
34.6457,14.7549
35.0171,14.7639
35.3073,14.7085
35.6595,14.5630
35.9599,14.3480
36.2046,14.0761
36.3897,13.7597
36.5109,13.4114
36.5645,13.0437
36.5463,12.6691
36.4523,12.3001
36.2786,11.9492
36.0211,11.6290
35.8631,11.4855
35.5641,11.2942
35.2336,11.1875
34.8488,11.1562
34.7710,11.1585
34.3932,11.2241
34.0606,11.3806
33.7711,11.6287
33.6681,11.7453
33.5629,11.8731
33.5025,11.9576
33.5017,11.9590
33.4745,11.9902
33.4296,11.9999
33.3523,11.9835
33.2278,11.9363
33.0415,11.8537
32.7786,11.7311
32.6732,11.6808
32.4493,11.5681
32.2692,11.4696
32.1492,11.3944
32.1056,11.3518
32.1058,11.3485
32.1370,11.2716
32.2104,11.1403
32.3115,10.9809
32.5847,10.6321
32.9708,10.2843
33.4153,10.0171
33.9140,9.8326
34.4625,9.7326
35.0567,9.7191
Z" /> 
<path style="fill:#000000; fill-opacity:1.0000; 
stroke:#000000; stroke-width:0.0100; stroke-opacity:1; 
stroke-linecap:round; stroke-linejoin:round;fill-rule:evenodd;"
d="M 46.9392,12.1412
49.5808,12.1412
49.5808,9.8044
51.2064,9.8044
51.2064,16.1036
49.5826,16.1036
49.5690,14.8463
49.5554,13.5890
46.9392,13.5619
46.9392,16.1036
45.3136,16.1036
45.3136,9.8044
46.9392,9.8044
Z" /> 
<path style="fill:#000000; fill-opacity:1.0000; 
stroke:#000000; stroke-width:0.0100; stroke-opacity:1; 
stroke-linecap:round; stroke-linejoin:round;fill-rule:evenodd;"
d="M 11.9596,14.0956
12.1312,14.5531
12.2855,14.9643
12.4192,15.3209
12.5294,15.6150
12.6130,15.8383
12.6670,15.9827
12.6884,16.0401
12.6887,16.0502
12.6550,16.0716
12.5627,16.0868
12.4012,16.0966
12.1595,16.1020
11.8271,16.1036
10.9434,16.1036
10.6360,15.1638
8.0076,15.1638
7.7002,16.1036
6.8165,16.1036
6.6778,16.1034
6.3812,16.1004
6.1713,16.0934
6.0374,16.0815
5.9686,16.0640
5.9543,16.0401
5.9577,16.0308
5.9904,15.9429
6.0548,15.7708
6.1479,15.5227
6.2667,15.2065
6.4080,14.8305
6.5689,14.4028
6.7462,13.9315
6.8082,13.7668
8.4372,13.7668
10.2083,13.7668
10.1540,13.6271
10.1468,13.6080
10.1051,13.4915
10.0382,13.3007
9.9518,13.0519
9.8516,12.7615
9.7433,12.4460
9.7034,12.3298
9.5994,12.0292
9.5067,11.7644
9.4306,11.5506
9.3764,11.4029
9.3496,11.3362
9.3397,11.3334
9.2980,11.3938
9.2320,11.5387
9.1455,11.7595
9.0422,12.0474
9.0049,12.1551
8.8940,12.4736
8.7830,12.7912
8.6828,13.0762
8.6047,13.2969
8.4372,13.7668
6.8082,13.7668
6.9370,13.4247
7.1381,12.8905
8.3003,9.8044
10.3486,9.8044
11.5072,12.8905
11.5761,13.0738
11.7735,13.5998
11.8362,13.7668
Z" /> 
<path style="fill:#000000; fill-opacity:1.0000; 
stroke:#000000; stroke-width:0.0100; stroke-opacity:1; 
stroke-linecap:round; stroke-linejoin:round;fill-rule:evenodd;"
d="M 44.1232,14.1339
44.2948,14.5899
44.4487,14.9989
44.5820,15.3530
44.6916,15.6441
44.7744,15.8642
44.8276,16.0053
44.8479,16.0593
44.8161,16.0719
44.6981,16.0845
44.5082,16.0946
44.2621,16.1012
43.9758,16.1036
43.0868,16.1036
42.7647,15.1367
41.4610,15.1503
40.1574,15.1638
39.9993,15.6210
39.8413,16.0782
38.9706,16.0921
38.7712,16.0942
38.4974,16.0929
38.2854,16.0863
38.1486,16.0749
38.1000,16.0592
38.1163,16.0080
38.1655,15.8697
38.2446,15.6530
38.3505,15.3661
38.4801,15.0176
38.6301,14.6158
38.7976,14.1692
38.9646,13.7252
40.5977,13.7252
40.6251,13.7364
40.7382,13.7485
40.9238,13.7581
41.1659,13.7645
41.4486,13.7668
41.6791,13.7655
41.9333,13.7607
42.1351,13.7529
42.2683,13.7428
42.3164,13.7311
42.3160,13.7256
42.2950,13.6424
42.2464,13.4867
42.1757,13.2738
42.0884,13.0191
41.9900,12.7379
41.8860,12.4454
41.7818,12.1571
41.6830,11.8883
41.5951,11.6544
41.5235,11.4705
41.4737,11.3522
41.4512,11.3147
41.4367,11.3452
41.3913,11.4613
41.3216,11.6504
41.2325,11.8987
41.1290,12.1927
41.0159,12.5187
40.9364,12.7492
40.8310,13.0544
40.7397,13.3183
40.6672,13.5272
40.6183,13.6674
40.5977,13.7252
38.9646,13.7252
38.9793,13.6861
39.1721,13.1751
39.3458,12.7153
39.5349,12.2148
39.7126,11.7443
39.8755,11.3131
40.0200,10.9304
40.1426,10.6055
40.2399,10.3479
40.3082,10.1666
40.3441,10.0711
40.4441,9.8044
42.4942,9.8047
43.6626,12.9099
43.7391,13.1132
43.9370,13.6390
43.9716,13.7311
Z" /> 
</g>
<g style="fill:#000000; fill-opacity:1.0000; stroke:none;">
<circle cx="31.5468" cy="32.0548" r="0.4000" /> 
</g>
<g style="fill:#000000; fill-opacity:1.0000; stroke:none;">
<circle cx="31.5468" cy="28.5548" r="0.4000" /> 
</g>
<g style="fill:#000000; fill-opacity:1.0000; stroke:none;">
<circle cx="47.2948" cy="26.4668" r="0.4000" /> 
</g>
<g style="fill:#000000; fill-opacity:1.0000; stroke:none;">
<circle cx="47.2948" cy="23.9668" r="0.4000" /> 
</g>
<g style="fill:#000000; fill-opacity:1.0000; stroke:none;">
<circle cx="51.8668" cy="37.1348" r="1.6000" /> 
</g>
<g style="fill:#000000; fill-opacity:1.0000; stroke:none;">
<circle cx="54.2668" cy="37.1348" r="0.2500" /> 
</g>
<g style="fill:#000000; fill-opacity:1.0000; stroke:none;">
<circle cx="51.8668" cy="39.5348" r="0.2500" /> 
</g>
<g style="fill:#000000; fill-opacity:1.0000; stroke:none;">
<circle cx="50.1697" cy="35.4377" r="0.2500" /> 
</g>
<g style="fill:#000000; fill-opacity:1.0000; stroke:none;">
<circle cx="53.5639" cy="35.4377" r="0.2500" /> 
</g>
<g style="fill:#000000; fill-opacity:1.0000; stroke:none;">
<circle cx="51.8668" cy="34.7348" r="0.2500" /> 
</g>
<g style="fill:#000000; fill-opacity:1.0000; stroke:none;">
<circle cx="50.1697" cy="38.8319" r="0.2500" /> 
</g>
<g style="fill:#000000; fill-opacity:1.0000; stroke:none;">
<circle cx="49.4668" cy="37.1348" r="0.2500" /> 
</g>
<g style="fill:#000000; fill-opacity:1.0000; stroke:none;">
<circle cx="53.5639" cy="38.8319" r="0.2500" /> 
</g>
<g style="fill:#000000; fill-opacity:1.0000; stroke:none;">
<circle cx="50.1697" cy="1.9097" r="0.2500" /> 
</g>
<g style="fill:#000000; fill-opacity:1.0000; stroke:none;">
<circle cx="54.2668" cy="3.6068" r="0.2500" /> 
</g>
<g style="fill:#000000; fill-opacity:1.0000; stroke:none;">
<circle cx="53.5639" cy="5.3039" r="0.2500" /> 
</g>
<g style="fill:#000000; fill-opacity:1.0000; stroke:none;">
<circle cx="50.1697" cy="5.3039" r="0.2500" /> 
</g>
<g style="fill:#000000; fill-opacity:1.0000; stroke:none;">
<circle cx="51.8668" cy="1.2068" r="0.2500" /> 
</g>
<g style="fill:#000000; fill-opacity:1.0000; stroke:none;">
<circle cx="51.8668" cy="6.0068" r="0.2500" /> 
</g>
<g style="fill:#000000; fill-opacity:1.0000; stroke:none;">
<circle cx="51.8668" cy="3.6068" r="1.6000" /> 
</g>
<g style="fill:#000000; fill-opacity:1.0000; stroke:none;">
<circle cx="53.5639" cy="1.9097" r="0.2500" /> 
</g>
<g style="fill:#000000; fill-opacity:1.0000; stroke:none;">
<circle cx="49.4668" cy="3.6068" r="0.2500" /> 
</g>
<g style="fill:#000000; fill-opacity:1.0000; stroke:none;">
<circle cx="1.9097" cy="5.3039" r="0.2500" /> 
</g>
<g style="fill:#000000; fill-opacity:1.0000; stroke:none;">
<circle cx="3.6068" cy="3.6068" r="1.6000" /> 
</g>
<g style="fill:#000000; fill-opacity:1.0000; stroke:none;">
<circle cx="5.3039" cy="1.9097" r="0.2500" /> 
</g>
<g style="fill:#000000; fill-opacity:1.0000; stroke:none;">
<circle cx="5.3039" cy="5.3039" r="0.2500" /> 
</g>
<g style="fill:#000000; fill-opacity:1.0000; stroke:none;">
<circle cx="6.0068" cy="3.6068" r="0.2500" /> 
</g>
<g style="fill:#000000; fill-opacity:1.0000; stroke:none;">
<circle cx="1.2068" cy="3.6068" r="0.2500" /> 
</g>
<g style="fill:#000000; fill-opacity:1.0000; stroke:none;">
<circle cx="1.9097" cy="1.9097" r="0.2500" /> 
</g>
<g style="fill:#000000; fill-opacity:1.0000; stroke:none;">
<circle cx="3.6068" cy="1.2068" r="0.2500" /> 
</g>
<g style="fill:#000000; fill-opacity:1.0000; stroke:none;">
<circle cx="3.6068" cy="6.0068" r="0.2500" /> 
</g>
<g style="fill:#000000; fill-opacity:1.0000; stroke:none;">
<circle cx="5.3039" cy="35.4377" r="0.2500" /> 
</g>
<g style="fill:#000000; fill-opacity:1.0000; stroke:none;">
<circle cx="3.6068" cy="39.5348" r="0.2500" /> 
</g>
<g style="fill:#000000; fill-opacity:1.0000; stroke:none;">
<circle cx="5.3039" cy="38.8319" r="0.2500" /> 
</g>
<g style="fill:#000000; fill-opacity:1.0000; stroke:none;">
<circle cx="1.2068" cy="37.1348" r="0.2500" /> 
</g>
<g style="fill:#000000; fill-opacity:1.0000; stroke:none;">
<circle cx="1.9097" cy="38.8319" r="0.2500" /> 
</g>
<g style="fill:#000000; fill-opacity:1.0000; stroke:none;">
<circle cx="1.9097" cy="35.4377" r="0.2500" /> 
</g>
<g style="fill:#000000; fill-opacity:1.0000; stroke:none;">
<circle cx="6.0068" cy="37.1348" r="0.2500" /> 
</g>
<g style="fill:#000000; fill-opacity:1.0000; stroke:none;">
<circle cx="3.6068" cy="34.7348" r="0.2500" /> 
</g>
<g style="fill:#000000; fill-opacity:1.0000; stroke:none;">
<circle cx="3.6068" cy="37.1348" r="1.6000" /> 
</g>
<g style="fill:#000000; fill-opacity:1.0000; stroke:none;">
<circle cx="68.6308" cy="17.8308" r="0.5000" /> 
</g>
<g style="fill:#000000; fill-opacity:1.0000; stroke:none;">
<circle cx="68.6308" cy="20.3708" r="0.5000" /> 
</g>
<g style="fill:#000000; fill-opacity:1.0000; stroke:none;">
<circle cx="68.6308" cy="22.9108" r="0.5000" /> 
</g>
<g style="fill:#000000; fill-opacity:1.0000; stroke:none;">
<circle cx="33.5788" cy="8.6868" r="0.5000" /> 
</g>
<g style="fill:#000000; fill-opacity:1.0000; stroke:none;">
<circle cx="33.5788" cy="6.1468" r="0.5000" /> 
</g>
<g style="fill:#000000; fill-opacity:1.0000; stroke:none;">
<circle cx="36.1188" cy="8.6868" r="0.5000" /> 
</g>
<g style="fill:#000000; fill-opacity:1.0000; stroke:none;">
<circle cx="36.1188" cy="6.1468" r="0.5000" /> 
</g>
<g style="fill:#000000; fill-opacity:1.0000; stroke:none;">
<circle cx="38.6588" cy="8.6868" r="0.5000" /> 
</g>
<g style="fill:#000000; fill-opacity:1.0000; stroke:none;">
<circle cx="38.6588" cy="6.1468" r="0.5000" /> 
</g>
<g style="fill:#000000; fill-opacity:1.0000; stroke:none;">
<circle cx="24.4348" cy="33.0708" r="0.5000" /> 
</g>
<g style="fill:#000000; fill-opacity:1.0000; stroke:none;">
<circle cx="24.4348" cy="30.5308" r="0.5000" /> 
</g>
<g style="fill:#000000; fill-opacity:1.0000; stroke:none;">
<circle cx="47.2948" cy="33.0708" r="0.5000" /> 
</g>
<g style="fill:#000000; fill-opacity:1.0000; stroke:none;">
<circle cx="47.2948" cy="30.5308" r="0.5000" /> 
</g>
<g style="fill:#000000; fill-opacity:1.0000; stroke:none;">
<circle cx="43.7388" cy="14.2748" r="0.4000" /> 
</g>
<g style="fill:#000000; fill-opacity:1.0000; stroke:none;">
<circle cx="43.7388" cy="21.8948" r="0.4000" /> 
</g>
<g style="fill:#000000; fill-opacity:1.0000; stroke:none;">
<circle cx="26.9748" cy="14.2748" r="0.4000" /> 
</g>
<g style="fill:#000000; fill-opacity:1.0000; stroke:none;">
<circle cx="26.9748" cy="21.8948" r="0.4000" /> 
</g>
<g style="fill:#000000; fill-opacity:1.0000; stroke:none;">
<circle cx="31.5468" cy="21.8948" r="0.4000" /> 
</g>
<g style="fill:#000000; fill-opacity:1.0000; stroke:none;">
<circle cx="34.0868" cy="21.8948" r="0.4000" /> 
</g>
<g style="fill:#000000; fill-opacity:1.0000; stroke:none;">
<circle cx="36.6268" cy="21.8948" r="0.4000" /> 
</g>
<g style="fill:#000000; fill-opacity:1.0000; stroke:none;">
<circle cx="39.1668" cy="21.8948" r="0.4000" /> 
</g>
<g style="fill:#000000; fill-opacity:1.0000; stroke:none;">
<circle cx="39.1668" cy="14.2748" r="0.4000" /> 
</g>
<g style="fill:#000000; fill-opacity:1.0000; stroke:none;">
<circle cx="36.6268" cy="14.2748" r="0.4000" /> 
</g>
<g style="fill:#000000; fill-opacity:1.0000; stroke:none;">
<circle cx="34.0868" cy="14.2748" r="0.4000" /> 
</g>
<g style="fill:#000000; fill-opacity:1.0000; stroke:none;">
<circle cx="31.5468" cy="14.2748" r="0.4000" /> 
</g>
<g style="fill:#000000; fill-opacity:1.0000; stroke:none;">
<circle cx="30.0228" cy="10.1068" r="0.5500" /> 
</g>
<g style="fill:#000000; fill-opacity:1.0000; stroke:none;">
<circle cx="30.0228" cy="3.6068" r="0.5500" /> 
</g>
<g style="fill:#000000; fill-opacity:1.0000; stroke:none;">
<circle cx="25.5228" cy="10.1068" r="0.5500" /> 
</g>
<g style="fill:#000000; fill-opacity:1.0000; stroke:none;">
<circle cx="25.5228" cy="3.6068" r="0.5500" /> 
<path style="fill:#000000; fill-opacity:1.0000; stroke:none;fill-rule:evenodd;"
d="M 32.3468,32.8548
30.7468,32.8548
30.7468,31.2548
32.3468,31.2548
Z" /> 
</g>
<g style="fill:#000000; fill-opacity:1.0000; stroke:none;">
<circle cx="31.5468" cy="28.5548" r="0.8000" /> 
</g>
<g style="fill:#000000; fill-opacity:1.0000; stroke:none;">
<circle cx="47.2948" cy="26.4668" r="0.8000" /> 
</g>
<g style="fill:#000000; fill-opacity:1.0000; stroke:none;">
<circle cx="47.2948" cy="23.9668" r="0.8000" /> 
</g>
<g style="fill:#000000; fill-opacity:1.0000; stroke:none;">
<circle cx="51.8668" cy="37.1348" r="3.2000" /> 
</g>
<g style="fill:#000000; fill-opacity:1.0000; stroke:none;">
<circle cx="54.2668" cy="37.1348" r="0.4000" /> 
</g>
<g style="fill:#000000; fill-opacity:1.0000; stroke:none;">
<circle cx="51.8668" cy="39.5348" r="0.4000" /> 
</g>
<g style="fill:#000000; fill-opacity:1.0000; stroke:none;">
<circle cx="50.1697" cy="35.4377" r="0.4000" /> 
</g>
<g style="fill:#000000; fill-opacity:1.0000; stroke:none;">
<circle cx="53.5639" cy="35.4377" r="0.4000" /> 
</g>
<g style="fill:#000000; fill-opacity:1.0000; stroke:none;">
<circle cx="51.8668" cy="34.7348" r="0.4000" /> 
</g>
<g style="fill:#000000; fill-opacity:1.0000; stroke:none;">
<circle cx="50.1697" cy="38.8319" r="0.4000" /> 
</g>
<g style="fill:#000000; fill-opacity:1.0000; stroke:none;">
<circle cx="49.4668" cy="37.1348" r="0.4000" /> 
</g>
<g style="fill:#000000; fill-opacity:1.0000; stroke:none;">
<circle cx="53.5639" cy="38.8319" r="0.4000" /> 
</g>
<g style="fill:#000000; fill-opacity:1.0000; stroke:none;">
<circle cx="50.1697" cy="1.9097" r="0.4000" /> 
</g>
<g style="fill:#000000; fill-opacity:1.0000; stroke:none;">
<circle cx="54.2668" cy="3.6068" r="0.4000" /> 
</g>
<g style="fill:#000000; fill-opacity:1.0000; stroke:none;">
<circle cx="53.5639" cy="5.3039" r="0.4000" /> 
</g>
<g style="fill:#000000; fill-opacity:1.0000; stroke:none;">
<circle cx="50.1697" cy="5.3039" r="0.4000" /> 
</g>
<g style="fill:#000000; fill-opacity:1.0000; stroke:none;">
<circle cx="51.8668" cy="1.2068" r="0.4000" /> 
</g>
<g style="fill:#000000; fill-opacity:1.0000; stroke:none;">
<circle cx="51.8668" cy="6.0068" r="0.4000" /> 
</g>
<g style="fill:#000000; fill-opacity:1.0000; stroke:none;">
<circle cx="51.8668" cy="3.6068" r="3.2000" /> 
</g>
<g style="fill:#000000; fill-opacity:1.0000; stroke:none;">
<circle cx="53.5639" cy="1.9097" r="0.4000" /> 
</g>
<g style="fill:#000000; fill-opacity:1.0000; stroke:none;">
<circle cx="49.4668" cy="3.6068" r="0.4000" /> 
</g>
<g style="fill:#000000; fill-opacity:1.0000; stroke:none;">
<circle cx="1.9097" cy="5.3039" r="0.4000" /> 
</g>
<g style="fill:#000000; fill-opacity:1.0000; stroke:none;">
<circle cx="3.6068" cy="3.6068" r="3.2000" /> 
</g>
<g style="fill:#000000; fill-opacity:1.0000; stroke:none;">
<circle cx="5.3039" cy="1.9097" r="0.4000" /> 
</g>
<g style="fill:#000000; fill-opacity:1.0000; stroke:none;">
<circle cx="5.3039" cy="5.3039" r="0.4000" /> 
</g>
<g style="fill:#000000; fill-opacity:1.0000; stroke:none;">
<circle cx="6.0068" cy="3.6068" r="0.4000" /> 
</g>
<g style="fill:#000000; fill-opacity:1.0000; stroke:none;">
<circle cx="1.2068" cy="3.6068" r="0.4000" /> 
</g>
<g style="fill:#000000; fill-opacity:1.0000; stroke:none;">
<circle cx="1.9097" cy="1.9097" r="0.4000" /> 
</g>
<g style="fill:#000000; fill-opacity:1.0000; stroke:none;">
<circle cx="3.6068" cy="1.2068" r="0.4000" /> 
</g>
<g style="fill:#000000; fill-opacity:1.0000; stroke:none;">
<circle cx="3.6068" cy="6.0068" r="0.4000" /> 
</g>
<g style="fill:#000000; fill-opacity:1.0000; stroke:none;">
<circle cx="5.3039" cy="35.4377" r="0.4000" /> 
</g>
<g style="fill:#000000; fill-opacity:1.0000; stroke:none;">
<circle cx="3.6068" cy="39.5348" r="0.4000" /> 
</g>
<g style="fill:#000000; fill-opacity:1.0000; stroke:none;">
<circle cx="5.3039" cy="38.8319" r="0.4000" /> 
</g>
<g style="fill:#000000; fill-opacity:1.0000; stroke:none;">
<circle cx="1.2068" cy="37.1348" r="0.4000" /> 
</g>
<g style="fill:#000000; fill-opacity:1.0000; stroke:none;">
<circle cx="1.9097" cy="38.8319" r="0.4000" /> 
</g>
<g style="fill:#000000; fill-opacity:1.0000; stroke:none;">
<circle cx="1.9097" cy="35.4377" r="0.4000" /> 
</g>
<g style="fill:#000000; fill-opacity:1.0000; stroke:none;">
<circle cx="6.0068" cy="37.1348" r="0.4000" /> 
</g>
<g style="fill:#000000; fill-opacity:1.0000; stroke:none;">
<circle cx="3.6068" cy="34.7348" r="0.4000" /> 
</g>
<g style="fill:#000000; fill-opacity:1.0000; stroke:none;">
<circle cx="3.6068" cy="37.1348" r="3.2000" /> 
<path style="fill:#000000; fill-opacity:1.0000; stroke:none;fill-rule:evenodd;"
d="M 67.7808,18.6808
67.7808,16.9808
69.4808,16.9808
69.4808,18.6808
Z" /> 
</g>
<g style="fill:#000000; fill-opacity:1.0000; stroke:none;">
<circle cx="68.6308" cy="20.3708" r="0.8500" /> 
<circle cx="68.6308" cy="22.9108" r="0.8500" /> 
<path style="fill:#000000; fill-opacity:1.0000; stroke:none;fill-rule:evenodd;"
d="M 34.4288,9.5368
32.7288,9.5368
32.7288,7.8368
34.4288,7.8368
Z" /> 
<circle cx="33.5788" cy="6.1468" r="0.8500" /> 
<circle cx="36.1188" cy="8.6868" r="0.8500" /> 
<circle cx="36.1188" cy="6.1468" r="0.8500" /> 
<circle cx="38.6588" cy="8.6868" r="0.8500" /> 
<circle cx="38.6588" cy="6.1468" r="0.8500" /> 
<path style="fill:#000000; fill-opacity:1.0000; stroke:none;fill-rule:evenodd;"
d="M 25.2848,32.2208
25.2848,33.9208
23.5848,33.9208
23.5848,32.2208
Z" /> 
<circle cx="24.4348" cy="30.5308" r="0.8500" /> 
<path style="fill:#000000; fill-opacity:1.0000; stroke:none;fill-rule:evenodd;"
d="M 48.1448,32.2208
48.1448,33.9208
46.4448,33.9208
46.4448,32.2208
Z" /> 
<circle cx="47.2948" cy="30.5308" r="0.8500" /> 
<circle cx="43.7388" cy="14.2748" r="0.8000" /> 
</g>
<g style="fill:#000000; fill-opacity:1.0000; stroke:none;">
<circle cx="43.7388" cy="21.8948" r="0.8000" /> 
<circle cx="26.9748" cy="14.2748" r="0.8000" /> 
</g>
<g style="fill:#000000; fill-opacity:1.0000; stroke:none;">
<circle cx="26.9748" cy="21.8948" r="0.8000" /> 
<path style="fill:#000000; fill-opacity:1.0000; stroke:none;fill-rule:evenodd;"
d="M 32.3468,22.6948
30.7468,22.6948
30.7468,21.0948
32.3468,21.0948
Z" /> 
<circle cx="34.0868" cy="21.8948" r="0.8000" /> 
<circle cx="36.6268" cy="21.8948" r="0.8000" /> 
<circle cx="39.1668" cy="21.8948" r="0.8000" /> 
<circle cx="39.1668" cy="14.2748" r="0.8000" /> 
<circle cx="36.6268" cy="14.2748" r="0.8000" /> 
<circle cx="34.0868" cy="14.2748" r="0.8000" /> 
<circle cx="31.5468" cy="14.2748" r="0.8000" /> 
<circle cx="30.0228" cy="10.1068" r="1.0000" /> 
</g>
<g style="fill:#000000; fill-opacity:1.0000; stroke:none;">
<circle cx="30.0228" cy="3.6068" r="1.0000" /> 
</g>
<g style="fill:#000000; fill-opacity:1.0000; stroke:none;">
<circle cx="25.5228" cy="10.1068" r="1.0000" /> 
</g>
<g style="fill:#000000; fill-opacity:1.0000; stroke:none;">
<circle cx="25.5228" cy="3.6068" r="1.0000" /> 
</g>
<g style="fill:#000000; fill-opacity:1.0000; stroke:none;">
<circle cx="64.9478" cy="22.0218" r="0.4064" /> 
</g>
<g style="fill:#000000; fill-opacity:1.0000; stroke:none;">
<circle cx="64.8208" cy="30.1498" r="0.4064" /> 
</g>
<g style="fill:#000000; fill-opacity:1.0000; stroke:none;">
<circle cx="64.9478" cy="13.8938" r="0.4064" /> 
</g>
<g style="fill:none; 
stroke:#000000; stroke-width:0.5080; stroke-opacity:1; 
stroke-linecap:round; stroke-linejoin:round;">
<path d="M64.9478 13.8938
L64.9478 22.0218
" />
<path d="M3.6068 37.1348
L3.6068 26.9748
" />
<path d="M47.2948 23.9668
L53.3038 23.9668
" />
<path d="M47.2948 30.5308
L38.7858 30.5308
" />
<path d="M26.9748 29.7688
L26.2128 30.5308
" />
<path d="M38.7858 30.5308
L37.9678 29.7128
" />
<path d="M48.8188 40.1828
L51.8668 37.1348
" />
<path d="M64.9478 30.0228
L64.8208 30.1498
" />
<path d="M48.8188 0.5588
L51.8668 3.6068
" />
<path d="M3.6068 37.1348
L6.6548 40.1828
" />
<path d="M68.6308 22.9108
L54.5338 22.9108
" />
<path d="M39.1668 27.3558
L39.1668 24.0538
" />
<path d="M53.3038 23.9668
L53.3908 24.0538
" />
<path d="M6.6548 0.5588
L38.6588 0.5588
" />
<path d="M47.2948 23.9668
L39.2538 23.9668
" />
<path d="M38.6588 0.5588
L48.8188 0.5588
" />
<path d="M26.2128 30.5308
L24.4348 30.5308
" />
<path d="M31.5468 28.5548
L37.9678 28.5548
" />
<path d="M39.1668 24.0538
L39.1668 21.8948
" />
<path d="M54.5338 22.9108
L53.3908 24.0538
" />
<path d="M27.0458 28.5548
L26.9748 28.6258
" />
<path d="M39.2538 23.9668
L39.1668 24.0538
" />
<path d="M64.9478 22.0218
L64.9478 30.0228
" />
<path d="M5.8928 16.3068
L5.8928 24.6888
" />
<path d="M21.3868 30.5308
L20.3708 31.5468
" />
<path d="M3.6068 3.6068
L3.6068 14.0208
" />
<path d="M20.3708 31.5468
L20.3708 40.1828
" />
<path d="M5.8928 24.6888
L3.6068 26.9748
" />
<path d="M37.9678 28.5548
L39.1668 27.3558
" />
<path d="M26.9748 21.8948
L26.9748 28.6258
" />
<path d="M37.9678 29.7128
L37.9678 28.5548
" />
<path d="M3.6068 14.0208
L5.8928 16.3068
" />
<path d="M20.3708 40.1828
L48.8188 40.1828
" />
<path d="M24.4348 30.5308
L21.3868 30.5308
" />
<path d="M31.5468 28.5548
L27.0458 28.5548
" />
<path d="M6.6548 40.1828
L20.3708 40.1828
" />
<path d="M3.6068 3.6068
L6.6548 0.5588
" />
<path d="M26.9748 28.6258
L26.9748 29.7688
" />
</g>
<g style="fill:#FFFFFF; fill-opacity:1.0000; stroke:none;">
<circle cx="64.9478" cy="22.0218" r="0.2032" /> 
</g>
<g style="fill:#FFFFFF; fill-opacity:1.0000; stroke:none;">
<circle cx="64.8208" cy="30.1498" r="0.2032" /> 
</g>
<g style="fill:#FFFFFF; fill-opacity:1.0000; stroke:none;">
<circle cx="64.9478" cy="13.8938" r="0.2032" /> 
</g>
<g style="fill:#FFFFFF; fill-opacity:1.0000; stroke:none;">
<circle cx="31.5468" cy="32.0548" r="0.4000" /> 
</g>
<g style="fill:#FFFFFF; fill-opacity:1.0000; stroke:none;">
<circle cx="31.5468" cy="28.5548" r="0.4000" /> 
</g>
<g style="fill:#FFFFFF; fill-opacity:1.0000; stroke:none;">
<circle cx="47.2948" cy="26.4668" r="0.4000" /> 
</g>
<g style="fill:#FFFFFF; fill-opacity:1.0000; stroke:none;">
<circle cx="47.2948" cy="23.9668" r="0.4000" /> 
</g>
<g style="fill:#FFFFFF; fill-opacity:1.0000; stroke:none;">
<circle cx="51.8668" cy="37.1348" r="1.6000" /> 
</g>
<g style="fill:#FFFFFF; fill-opacity:1.0000; stroke:none;">
<circle cx="54.2668" cy="37.1348" r="0.2500" /> 
</g>
<g style="fill:#FFFFFF; fill-opacity:1.0000; stroke:none;">
<circle cx="51.8668" cy="39.5348" r="0.2500" /> 
</g>
<g style="fill:#FFFFFF; fill-opacity:1.0000; stroke:none;">
<circle cx="50.1697" cy="35.4377" r="0.2500" /> 
</g>
<g style="fill:#FFFFFF; fill-opacity:1.0000; stroke:none;">
<circle cx="53.5639" cy="35.4377" r="0.2500" /> 
</g>
<g style="fill:#FFFFFF; fill-opacity:1.0000; stroke:none;">
<circle cx="51.8668" cy="34.7348" r="0.2500" /> 
</g>
<g style="fill:#FFFFFF; fill-opacity:1.0000; stroke:none;">
<circle cx="50.1697" cy="38.8319" r="0.2500" /> 
</g>
<g style="fill:#FFFFFF; fill-opacity:1.0000; stroke:none;">
<circle cx="49.4668" cy="37.1348" r="0.2500" /> 
</g>
<g style="fill:#FFFFFF; fill-opacity:1.0000; stroke:none;">
<circle cx="53.5639" cy="38.8319" r="0.2500" /> 
</g>
<g style="fill:#FFFFFF; fill-opacity:1.0000; stroke:none;">
<circle cx="50.1697" cy="1.9097" r="0.2500" /> 
</g>
<g style="fill:#FFFFFF; fill-opacity:1.0000; stroke:none;">
<circle cx="54.2668" cy="3.6068" r="0.2500" /> 
</g>
<g style="fill:#FFFFFF; fill-opacity:1.0000; stroke:none;">
<circle cx="53.5639" cy="5.3039" r="0.2500" /> 
</g>
<g style="fill:#FFFFFF; fill-opacity:1.0000; stroke:none;">
<circle cx="50.1697" cy="5.3039" r="0.2500" /> 
</g>
<g style="fill:#FFFFFF; fill-opacity:1.0000; stroke:none;">
<circle cx="51.8668" cy="1.2068" r="0.2500" /> 
</g>
<g style="fill:#FFFFFF; fill-opacity:1.0000; stroke:none;">
<circle cx="51.8668" cy="6.0068" r="0.2500" /> 
</g>
<g style="fill:#FFFFFF; fill-opacity:1.0000; stroke:none;">
<circle cx="51.8668" cy="3.6068" r="1.6000" /> 
</g>
<g style="fill:#FFFFFF; fill-opacity:1.0000; stroke:none;">
<circle cx="53.5639" cy="1.9097" r="0.2500" /> 
</g>
<g style="fill:#FFFFFF; fill-opacity:1.0000; stroke:none;">
<circle cx="49.4668" cy="3.6068" r="0.2500" /> 
</g>
<g style="fill:#FFFFFF; fill-opacity:1.0000; stroke:none;">
<circle cx="1.9097" cy="5.3039" r="0.2500" /> 
</g>
<g style="fill:#FFFFFF; fill-opacity:1.0000; stroke:none;">
<circle cx="3.6068" cy="3.6068" r="1.6000" /> 
</g>
<g style="fill:#FFFFFF; fill-opacity:1.0000; stroke:none;">
<circle cx="5.3039" cy="1.9097" r="0.2500" /> 
</g>
<g style="fill:#FFFFFF; fill-opacity:1.0000; stroke:none;">
<circle cx="5.3039" cy="5.3039" r="0.2500" /> 
</g>
<g style="fill:#FFFFFF; fill-opacity:1.0000; stroke:none;">
<circle cx="6.0068" cy="3.6068" r="0.2500" /> 
</g>
<g style="fill:#FFFFFF; fill-opacity:1.0000; stroke:none;">
<circle cx="1.2068" cy="3.6068" r="0.2500" /> 
</g>
<g style="fill:#FFFFFF; fill-opacity:1.0000; stroke:none;">
<circle cx="1.9097" cy="1.9097" r="0.2500" /> 
</g>
<g style="fill:#FFFFFF; fill-opacity:1.0000; stroke:none;">
<circle cx="3.6068" cy="1.2068" r="0.2500" /> 
</g>
<g style="fill:#FFFFFF; fill-opacity:1.0000; stroke:none;">
<circle cx="3.6068" cy="6.0068" r="0.2500" /> 
</g>
<g style="fill:#FFFFFF; fill-opacity:1.0000; stroke:none;">
<circle cx="5.3039" cy="35.4377" r="0.2500" /> 
</g>
<g style="fill:#FFFFFF; fill-opacity:1.0000; stroke:none;">
<circle cx="3.6068" cy="39.5348" r="0.2500" /> 
</g>
<g style="fill:#FFFFFF; fill-opacity:1.0000; stroke:none;">
<circle cx="5.3039" cy="38.8319" r="0.2500" /> 
</g>
<g style="fill:#FFFFFF; fill-opacity:1.0000; stroke:none;">
<circle cx="1.2068" cy="37.1348" r="0.2500" /> 
</g>
<g style="fill:#FFFFFF; fill-opacity:1.0000; stroke:none;">
<circle cx="1.9097" cy="38.8319" r="0.2500" /> 
</g>
<g style="fill:#FFFFFF; fill-opacity:1.0000; stroke:none;">
<circle cx="1.9097" cy="35.4377" r="0.2500" /> 
</g>
<g style="fill:#FFFFFF; fill-opacity:1.0000; stroke:none;">
<circle cx="6.0068" cy="37.1348" r="0.2500" /> 
</g>
<g style="fill:#FFFFFF; fill-opacity:1.0000; stroke:none;">
<circle cx="3.6068" cy="34.7348" r="0.2500" /> 
</g>
<g style="fill:#FFFFFF; fill-opacity:1.0000; stroke:none;">
<circle cx="3.6068" cy="37.1348" r="1.6000" /> 
</g>
<g style="fill:#FFFFFF; fill-opacity:1.0000; stroke:none;">
<circle cx="68.6308" cy="17.8308" r="0.5000" /> 
</g>
<g style="fill:#FFFFFF; fill-opacity:1.0000; stroke:none;">
<circle cx="68.6308" cy="20.3708" r="0.5000" /> 
</g>
<g style="fill:#FFFFFF; fill-opacity:1.0000; stroke:none;">
<circle cx="68.6308" cy="22.9108" r="0.5000" /> 
</g>
<g style="fill:#FFFFFF; fill-opacity:1.0000; stroke:none;">
<circle cx="33.5788" cy="8.6868" r="0.5000" /> 
</g>
<g style="fill:#FFFFFF; fill-opacity:1.0000; stroke:none;">
<circle cx="33.5788" cy="6.1468" r="0.5000" /> 
</g>
<g style="fill:#FFFFFF; fill-opacity:1.0000; stroke:none;">
<circle cx="36.1188" cy="8.6868" r="0.5000" /> 
</g>
<g style="fill:#FFFFFF; fill-opacity:1.0000; stroke:none;">
<circle cx="36.1188" cy="6.1468" r="0.5000" /> 
</g>
<g style="fill:#FFFFFF; fill-opacity:1.0000; stroke:none;">
<circle cx="38.6588" cy="8.6868" r="0.5000" /> 
</g>
<g style="fill:#FFFFFF; fill-opacity:1.0000; stroke:none;">
<circle cx="38.6588" cy="6.1468" r="0.5000" /> 
</g>
<g style="fill:#FFFFFF; fill-opacity:1.0000; stroke:none;">
<circle cx="24.4348" cy="33.0708" r="0.5000" /> 
</g>
<g style="fill:#FFFFFF; fill-opacity:1.0000; stroke:none;">
<circle cx="24.4348" cy="30.5308" r="0.5000" /> 
</g>
<g style="fill:#FFFFFF; fill-opacity:1.0000; stroke:none;">
<circle cx="47.2948" cy="33.0708" r="0.5000" /> 
</g>
<g style="fill:#FFFFFF; fill-opacity:1.0000; stroke:none;">
<circle cx="47.2948" cy="30.5308" r="0.5000" /> 
</g>
<g style="fill:#FFFFFF; fill-opacity:1.0000; stroke:none;">
<circle cx="43.7388" cy="14.2748" r="0.4000" /> 
</g>
<g style="fill:#FFFFFF; fill-opacity:1.0000; stroke:none;">
<circle cx="43.7388" cy="21.8948" r="0.4000" /> 
</g>
<g style="fill:#FFFFFF; fill-opacity:1.0000; stroke:none;">
<circle cx="26.9748" cy="14.2748" r="0.4000" /> 
</g>
<g style="fill:#FFFFFF; fill-opacity:1.0000; stroke:none;">
<circle cx="26.9748" cy="21.8948" r="0.4000" /> 
</g>
<g style="fill:#FFFFFF; fill-opacity:1.0000; stroke:none;">
<circle cx="31.5468" cy="21.8948" r="0.4000" /> 
</g>
<g style="fill:#FFFFFF; fill-opacity:1.0000; stroke:none;">
<circle cx="34.0868" cy="21.8948" r="0.4000" /> 
</g>
<g style="fill:#FFFFFF; fill-opacity:1.0000; stroke:none;">
<circle cx="36.6268" cy="21.8948" r="0.4000" /> 
</g>
<g style="fill:#FFFFFF; fill-opacity:1.0000; stroke:none;">
<circle cx="39.1668" cy="21.8948" r="0.4000" /> 
</g>
<g style="fill:#FFFFFF; fill-opacity:1.0000; stroke:none;">
<circle cx="39.1668" cy="14.2748" r="0.4000" /> 
</g>
<g style="fill:#FFFFFF; fill-opacity:1.0000; stroke:none;">
<circle cx="36.6268" cy="14.2748" r="0.4000" /> 
</g>
<g style="fill:#FFFFFF; fill-opacity:1.0000; stroke:none;">
<circle cx="34.0868" cy="14.2748" r="0.4000" /> 
</g>
<g style="fill:#FFFFFF; fill-opacity:1.0000; stroke:none;">
<circle cx="31.5468" cy="14.2748" r="0.4000" /> 
</g>
<g style="fill:#FFFFFF; fill-opacity:1.0000; stroke:none;">
<circle cx="30.0228" cy="10.1068" r="0.5500" /> 
</g>
<g style="fill:#FFFFFF; fill-opacity:1.0000; stroke:none;">
<circle cx="30.0228" cy="3.6068" r="0.5500" /> 
</g>
<g style="fill:#FFFFFF; fill-opacity:1.0000; stroke:none;">
<circle cx="25.5228" cy="10.1068" r="0.5500" /> 
</g>
<g style="fill:#FFFFFF; fill-opacity:1.0000; stroke:none;">
<circle cx="25.5228" cy="3.6068" r="0.5500" /> 
<path style="fill:#000000; fill-opacity:1.0000; stroke:none;fill-rule:evenodd;"
d="M 9.7028,3.3176
14.7828,3.3176
14.7828,8.1436
9.7028,8.1436
Z" /> 
<path style="fill:#000000; fill-opacity:1.0000; stroke:none;fill-rule:evenodd;"
d="M 9.7028,32.5022
14.7828,32.5022
14.7828,37.3282
9.7028,37.3282
Z" /> 
</g>
<g style="fill:#000000; fill-opacity:1.0000; stroke:none;">
<circle cx="12.1552" cy="20.3748" r="4.0000" /> 
<path style="fill:#000000; fill-opacity:1.0000; stroke:none;fill-rule:evenodd;"
d="M 32.3468,32.8548
30.7468,32.8548
30.7468,31.2548
32.3468,31.2548
Z" /> 
</g>
<g style="fill:#000000; fill-opacity:1.0000; stroke:none;">
<circle cx="31.5468" cy="28.5548" r="0.8000" /> 
</g>
<g style="fill:#000000; fill-opacity:1.0000; stroke:none;">
<circle cx="47.2948" cy="26.4668" r="0.8000" /> 
</g>
<g style="fill:#000000; fill-opacity:1.0000; stroke:none;">
<circle cx="47.2948" cy="23.9668" r="0.8000" /> 
<path style="fill:#000000; fill-opacity:1.0000; stroke:none;fill-rule:evenodd;"
d="M 57.8108,11.1428
57.8108,10.1428
59.3108,10.1428
59.3108,11.1428
Z" /> 
<path style="fill:#000000; fill-opacity:1.0000; stroke:none;fill-rule:evenodd;"
d="M 57.8108,14.3428
57.8108,13.3428
59.3108,13.3428
59.3108,14.3428
Z" /> 
<path style="fill:#000000; fill-opacity:1.0000; stroke:none;fill-rule:evenodd;"
d="M 62.7108,14.3428
62.7108,13.3428
64.2108,13.3428
64.2108,14.3428
Z" /> 
<path style="fill:#000000; fill-opacity:1.0000; stroke:none;fill-rule:evenodd;"
d="M 62.7108,11.1428
62.7108,10.1428
64.2108,10.1428
64.2108,11.1428
Z" /> 
<path style="fill:#000000; fill-opacity:1.0000; stroke:none;fill-rule:evenodd;"
d="M 57.8108,19.2708
57.8108,18.2708
59.3108,18.2708
59.3108,19.2708
Z" /> 
<path style="fill:#000000; fill-opacity:1.0000; stroke:none;fill-rule:evenodd;"
d="M 57.8108,22.4708
57.8108,21.4708
59.3108,21.4708
59.3108,22.4708
Z" /> 
<path style="fill:#000000; fill-opacity:1.0000; stroke:none;fill-rule:evenodd;"
d="M 62.7108,22.4708
62.7108,21.4708
64.2108,21.4708
64.2108,22.4708
Z" /> 
<path style="fill:#000000; fill-opacity:1.0000; stroke:none;fill-rule:evenodd;"
d="M 62.7108,19.2708
62.7108,18.2708
64.2108,18.2708
64.2108,19.2708
Z" /> 
<path style="fill:#000000; fill-opacity:1.0000; stroke:none;fill-rule:evenodd;"
d="M 57.8108,27.3988
57.8108,26.3988
59.3108,26.3988
59.3108,27.3988
Z" /> 
<path style="fill:#000000; fill-opacity:1.0000; stroke:none;fill-rule:evenodd;"
d="M 57.8108,30.5988
57.8108,29.5988
59.3108,29.5988
59.3108,30.5988
Z" /> 
<path style="fill:#000000; fill-opacity:1.0000; stroke:none;fill-rule:evenodd;"
d="M 62.7108,30.5988
62.7108,29.5988
64.2108,29.5988
64.2108,30.5988
Z" /> 
<path style="fill:#000000; fill-opacity:1.0000; stroke:none;fill-rule:evenodd;"
d="M 62.7108,27.3988
62.7108,26.3988
64.2108,26.3988
64.2108,27.3988
Z" /> 
</g>
<g style="fill:#000000; fill-opacity:1.0000; stroke:none;">
<circle cx="51.8668" cy="37.1348" r="3.2000" /> 
</g>
<g style="fill:#000000; fill-opacity:1.0000; stroke:none;">
<circle cx="54.2668" cy="37.1348" r="0.4000" /> 
</g>
<g style="fill:#000000; fill-opacity:1.0000; stroke:none;">
<circle cx="51.8668" cy="39.5348" r="0.4000" /> 
</g>
<g style="fill:#000000; fill-opacity:1.0000; stroke:none;">
<circle cx="50.1697" cy="35.4377" r="0.4000" /> 
</g>
<g style="fill:#000000; fill-opacity:1.0000; stroke:none;">
<circle cx="53.5639" cy="35.4377" r="0.4000" /> 
</g>
<g style="fill:#000000; fill-opacity:1.0000; stroke:none;">
<circle cx="51.8668" cy="34.7348" r="0.4000" /> 
</g>
<g style="fill:#000000; fill-opacity:1.0000; stroke:none;">
<circle cx="50.1697" cy="38.8319" r="0.4000" /> 
</g>
<g style="fill:#000000; fill-opacity:1.0000; stroke:none;">
<circle cx="49.4668" cy="37.1348" r="0.4000" /> 
</g>
<g style="fill:#000000; fill-opacity:1.0000; stroke:none;">
<circle cx="53.5639" cy="38.8319" r="0.4000" /> 
</g>
<g style="fill:#000000; fill-opacity:1.0000; stroke:none;">
<circle cx="50.1697" cy="1.9097" r="0.4000" /> 
</g>
<g style="fill:#000000; fill-opacity:1.0000; stroke:none;">
<circle cx="54.2668" cy="3.6068" r="0.4000" /> 
</g>
<g style="fill:#000000; fill-opacity:1.0000; stroke:none;">
<circle cx="53.5639" cy="5.3039" r="0.4000" /> 
</g>
<g style="fill:#000000; fill-opacity:1.0000; stroke:none;">
<circle cx="50.1697" cy="5.3039" r="0.4000" /> 
</g>
<g style="fill:#000000; fill-opacity:1.0000; stroke:none;">
<circle cx="51.8668" cy="1.2068" r="0.4000" /> 
</g>
<g style="fill:#000000; fill-opacity:1.0000; stroke:none;">
<circle cx="51.8668" cy="6.0068" r="0.4000" /> 
</g>
<g style="fill:#000000; fill-opacity:1.0000; stroke:none;">
<circle cx="51.8668" cy="3.6068" r="3.2000" /> 
</g>
<g style="fill:#000000; fill-opacity:1.0000; stroke:none;">
<circle cx="53.5639" cy="1.9097" r="0.4000" /> 
</g>
<g style="fill:#000000; fill-opacity:1.0000; stroke:none;">
<circle cx="49.4668" cy="3.6068" r="0.4000" /> 
</g>
<g style="fill:#000000; fill-opacity:1.0000; stroke:none;">
<circle cx="1.9097" cy="5.3039" r="0.4000" /> 
</g>
<g style="fill:#000000; fill-opacity:1.0000; stroke:none;">
<circle cx="3.6068" cy="3.6068" r="3.2000" /> 
</g>
<g style="fill:#000000; fill-opacity:1.0000; stroke:none;">
<circle cx="5.3039" cy="1.9097" r="0.4000" /> 
</g>
<g style="fill:#000000; fill-opacity:1.0000; stroke:none;">
<circle cx="5.3039" cy="5.3039" r="0.4000" /> 
</g>
<g style="fill:#000000; fill-opacity:1.0000; stroke:none;">
<circle cx="6.0068" cy="3.6068" r="0.4000" /> 
</g>
<g style="fill:#000000; fill-opacity:1.0000; stroke:none;">
<circle cx="1.2068" cy="3.6068" r="0.4000" /> 
</g>
<g style="fill:#000000; fill-opacity:1.0000; stroke:none;">
<circle cx="1.9097" cy="1.9097" r="0.4000" /> 
</g>
<g style="fill:#000000; fill-opacity:1.0000; stroke:none;">
<circle cx="3.6068" cy="1.2068" r="0.4000" /> 
</g>
<g style="fill:#000000; fill-opacity:1.0000; stroke:none;">
<circle cx="3.6068" cy="6.0068" r="0.4000" /> 
</g>
<g style="fill:#000000; fill-opacity:1.0000; stroke:none;">
<circle cx="5.3039" cy="35.4377" r="0.4000" /> 
</g>
<g style="fill:#000000; fill-opacity:1.0000; stroke:none;">
<circle cx="3.6068" cy="39.5348" r="0.4000" /> 
</g>
<g style="fill:#000000; fill-opacity:1.0000; stroke:none;">
<circle cx="5.3039" cy="38.8319" r="0.4000" /> 
</g>
<g style="fill:#000000; fill-opacity:1.0000; stroke:none;">
<circle cx="1.2068" cy="37.1348" r="0.4000" /> 
</g>
<g style="fill:#000000; fill-opacity:1.0000; stroke:none;">
<circle cx="1.9097" cy="38.8319" r="0.4000" /> 
</g>
<g style="fill:#000000; fill-opacity:1.0000; stroke:none;">
<circle cx="1.9097" cy="35.4377" r="0.4000" /> 
</g>
<g style="fill:#000000; fill-opacity:1.0000; stroke:none;">
<circle cx="6.0068" cy="37.1348" r="0.4000" /> 
</g>
<g style="fill:#000000; fill-opacity:1.0000; stroke:none;">
<circle cx="3.6068" cy="34.7348" r="0.4000" /> 
</g>
<g style="fill:#000000; fill-opacity:1.0000; stroke:none;">
<circle cx="3.6068" cy="37.1348" r="3.2000" /> 
<path style="fill:#000000; fill-opacity:1.0000; stroke:none;fill-rule:evenodd;"
d="M 67.7808,18.6808
67.7808,16.9808
69.4808,16.9808
69.4808,18.6808
Z" /> 
</g>
<g style="fill:#000000; fill-opacity:1.0000; stroke:none;">
<circle cx="68.6308" cy="20.3708" r="0.8500" /> 
<circle cx="68.6308" cy="22.9108" r="0.8500" /> 
<path style="fill:#000000; fill-opacity:1.0000; stroke:none;fill-rule:evenodd;"
d="M 34.4288,9.5368
32.7288,9.5368
32.7288,7.8368
34.4288,7.8368
Z" /> 
<circle cx="33.5788" cy="6.1468" r="0.8500" /> 
<circle cx="36.1188" cy="8.6868" r="0.8500" /> 
<circle cx="36.1188" cy="6.1468" r="0.8500" /> 
<circle cx="38.6588" cy="8.6868" r="0.8500" /> 
<circle cx="38.6588" cy="6.1468" r="0.8500" /> 
<path style="fill:#000000; fill-opacity:1.0000; stroke:none;fill-rule:evenodd;"
d="M 25.2848,32.2208
25.2848,33.9208
23.5848,33.9208
23.5848,32.2208
Z" /> 
<circle cx="24.4348" cy="30.5308" r="0.8500" /> 
<path style="fill:#000000; fill-opacity:1.0000; stroke:none;fill-rule:evenodd;"
d="M 48.1448,32.2208
48.1448,33.9208
46.4448,33.9208
46.4448,32.2208
Z" /> 
<circle cx="47.2948" cy="30.5308" r="0.8500" /> 
<circle cx="43.7388" cy="14.2748" r="0.8000" /> 
</g>
<g style="fill:#000000; fill-opacity:1.0000; stroke:none;">
<circle cx="43.7388" cy="21.8948" r="0.8000" /> 
<circle cx="26.9748" cy="14.2748" r="0.8000" /> 
</g>
<g style="fill:#000000; fill-opacity:1.0000; stroke:none;">
<circle cx="26.9748" cy="21.8948" r="0.8000" /> 
<path style="fill:#000000; fill-opacity:1.0000; stroke:none;fill-rule:evenodd;"
d="M 32.3468,22.6948
30.7468,22.6948
30.7468,21.0948
32.3468,21.0948
Z" /> 
<circle cx="34.0868" cy="21.8948" r="0.8000" /> 
<circle cx="36.6268" cy="21.8948" r="0.8000" /> 
<circle cx="39.1668" cy="21.8948" r="0.8000" /> 
<circle cx="39.1668" cy="14.2748" r="0.8000" /> 
<circle cx="36.6268" cy="14.2748" r="0.8000" /> 
<circle cx="34.0868" cy="14.2748" r="0.8000" /> 
<circle cx="31.5468" cy="14.2748" r="0.8000" /> 
<path style="fill:#000000; fill-opacity:1.0000; stroke:none;fill-rule:evenodd;"
d="M 42.2408,26.8888
43.7408,26.8888
43.7408,28.8888
42.2408,28.8888
Z" /> 
<path style="fill:#000000; fill-opacity:1.0000; stroke:none;fill-rule:evenodd;"
d="M 38.7908,33.1888
42.5908,33.1888
42.5908,35.1888
38.7908,35.1888
Z" /> 
<path style="fill:#000000; fill-opacity:1.0000; stroke:none;fill-rule:evenodd;"
d="M 39.9408,26.8888
41.4408,26.8888
41.4408,28.8888
39.9408,28.8888
Z" /> 
<path style="fill:#000000; fill-opacity:1.0000; stroke:none;fill-rule:evenodd;"
d="M 37.6408,26.8888
39.1408,26.8888
39.1408,28.8888
37.6408,28.8888
Z" /> 
<circle cx="30.0228" cy="10.1068" r="1.0000" /> 
</g>
<g style="fill:#000000; fill-opacity:1.0000; stroke:none;">
<circle cx="30.0228" cy="3.6068" r="1.0000" /> 
</g>
<g style="fill:#000000; fill-opacity:1.0000; stroke:none;">
<circle cx="25.5228" cy="10.1068" r="1.0000" /> 
</g>
<g style="fill:#000000; fill-opacity:1.0000; stroke:none;">
<circle cx="25.5228" cy="3.6068" r="1.0000" /> 
</g>
<g style="fill:#000000; fill-opacity:1.0000; stroke:none;">
<circle cx="64.9478" cy="22.0218" r="0.4064" /> 
</g>
<g style="fill:#000000; fill-opacity:1.0000; stroke:none;">
<circle cx="64.8208" cy="30.1498" r="0.4064" /> 
</g>
<g style="fill:#000000; fill-opacity:1.0000; stroke:none;">
<circle cx="64.9478" cy="13.8938" r="0.4064" /> 
</g>
<g style="fill:none; 
stroke:#000000; stroke-width:0.5080; stroke-opacity:1; 
stroke-linecap:round; stroke-linejoin:round;">
<path d="M45.6688 27.8888
L47.2948 29.5148
" />
<path d="M63.4608 21.9708
L64.8968 21.9708
" />
<path d="M63.4608 13.8428
L64.8968 13.8428
" />
<path d="M3.6068 11.7348
L12.2428 20.3708
" />
<path d="M12.2428 20.3708
L3.6068 29.0068
" />
<path d="M63.4608 30.0988
L64.7698 30.0988
" />
<path d="M64.8968 21.9708
L64.9478 22.0218
" />
<path d="M47.2948 29.5148
L47.2948 30.5308
" />
<path d="M42.9908 27.8888
L45.6688 27.8888
" />
<path d="M3.6068 3.6068
L3.6068 11.7348
" />
<path d="M3.6068 29.0068
L3.6068 37.1348
" />
<path d="M64.8968 13.8428
L64.9478 13.8938
" />
<path d="M64.7698 30.0988
L64.8208 30.1498
" />
<path d="M38.3908 26.1988
L37.6428 25.4508
" />
<path d="M29.0068 32.0548
L31.5468 32.0548
" />
<path d="M38.3908 27.8888
L38.3908 26.1988
" />
<path d="M15.5575 34.8361
L12.2428 34.8361
" />
<path d="M21.3868 29.5148
L21.3868 33.0708
" />
<path d="M29.0068 26.4668
L29.0068 32.0548
" />
<path d="M37.6428 25.4508
L30.0228 25.4508
" />
<path d="M30.0228 25.4508
L29.0068 26.4668
" />
<path d="M27.9908 33.0708
L29.0068 32.0548
" />
<path d="M21.3868 11.7348
L24.9428 15.2908
" />
<path d="M24.9428 25.9588
L21.3868 29.5148
" />
<path d="M17.3228 33.0708
L15.5575 34.8361
" />
<path d="M12.2428 5.9055
L17.0815 5.9055
" />
<path d="M24.9428 15.2908
L24.9428 25.9588
" />
<path d="M24.4348 33.0708
L27.9908 33.0708
" />
<path d="M21.3868 33.0708
L17.3228 33.0708
" />
<path d="M17.0815 5.9055
L21.3868 10.2108
" />
<path d="M21.3868 10.2108
L21.3868 11.7348
" />
<path d="M21.3868 33.0708
L24.4348 33.0708
" />
<path d="M47.2948 33.0708
L45.2628 33.0708
" />
<path d="M52.3748 24.1808
L55.9308 24.1808
" />
<path d="M31.5468 14.2748
L31.5468 12.7508
" />
<path d="M33.5788 6.1468
L33.5788 4.6228
" />
<path d="M44.7548 25.4508
L41.1988 25.4508
" />
<path d="M41.7068 16.3068
L44.1708 18.7708
" />
<path d="M45.7708 26.4668
L44.7548 25.4508
" />
<path d="M55.9308 11.4808
L55.9308 18.7198
" />
<path d="M56.7688 10.6428
L55.9308 11.4808
" />
<path d="M33.5788 4.6228
L34.0868 4.1148
" />
<path d="M34.0868 4.1148
L39.6748 4.1148
" />
<path d="M41.7068 6.1468
L41.7068 16.3068
" />
<path d="M50.0888 26.4668
L52.3748 24.1808
" />
<path d="M40.6908 34.1888
L40.6908 32.5628
" />
<path d="M59.5378 18.7708
L61.1378 20.3708
" />
<path d="M55.9308 18.7198
L55.9308 24.1808
" />
<path d="M56.8708 26.8988
L58.5608 26.8988
" />
<path d="M58.5608 10.6428
L56.7688 10.6428
" />
<path d="M30.0228 6.0198
L30.0228 3.6068
" />
<path d="M45.2628 33.0708
L44.1448 34.1888
" />
<path d="M39.6748 4.1148
L41.7068 6.1468
" />
<path d="M41.1988 25.4508
L40.6908 25.9588
" />
<path d="M58.5608 18.7708
L55.9818 18.7708
" />
<path d="M31.5468 12.7508
L30.0228 11.2268
" />
<path d="M61.1378 20.3708
L64.4398 20.3708
" />
<path d="M44.1708 18.7708
L55.9818 18.7708
" />
<path d="M44.1448 34.1888
L40.6908 34.1888
" />
<path d="M58.5608 18.7708
L59.5378 18.7708
" />
<path d="M64.4398 20.3708
L66.9798 17.8308
" />
<path d="M47.2948 26.4668
L50.0888 26.4668
" />
<path d="M30.1498 6.1468
L30.0228 6.0198
" />
<path d="M33.5788 6.1468
L30.1498 6.1468
" />
<path d="M55.9818 18.7708
L55.9308 18.7198
" />
<path d="M40.6908 25.9588
L40.6908 27.8888
" />
<path d="M55.9308 25.9588
L56.8708 26.8988
" />
<path d="M30.0228 11.2268
L30.0228 10.1068
" />
<path d="M30.0228 10.1068
L30.0228 6.0198
" />
<path d="M66.9798 17.8308
L68.6308 17.8308
" />
<path d="M47.2948 26.4668
L45.7708 26.4668
" />
<path d="M40.6908 34.1888
L40.6908 27.8888
" />
<path d="M55.9308 24.1808
L55.9308 25.9588
" />
</g>
<g style="fill:none; 
stroke:#000000; stroke-width:0.2540; stroke-opacity:1; 
stroke-linecap:round; stroke-linejoin:round;">
<path d="M62.6618 16.6878
L63.4608 17.4868
" />
<path d="M58.5608 13.8428
L58.5608 15.5078
" />
<path d="M58.5608 15.5078
L59.7408 16.6878
" />
<path d="M63.4608 17.4868
L63.4608 18.7708
" />
<path d="M59.7408 16.6878
L62.6618 16.6878
" />
<path d="M51.1048 14.2748
L43.7388 14.2748
" />
<path d="M61.9508 10.6428
L61.0108 9.7028
" />
<path d="M55.6768 9.7028
L51.1048 14.2748
" />
<path d="M63.4608 10.6428
L61.9508 10.6428
" />
<path d="M61.0108 9.7028
L55.6768 9.7028
" />
<path d="M59.2328 24.3078
L62.7888 24.3078
" />
<path d="M58.5608 21.9708
L58.5608 23.6358
" />
<path d="M58.5608 23.6358
L59.2328 24.3078
" />
<path d="M62.7888 24.3078
L63.4608 24.9798
" />
<path d="M63.4608 24.9798
L63.4608 26.8988
" />
<path d="M58.5608 30.0988
L59.9188 30.0988
" />
<path d="M66.0908 21.5138
L67.2338 20.3708
" />
<path d="M66.0908 27.3558
L66.0908 21.5138
" />
<path d="M67.2338 20.3708
L68.6308 20.3708
" />
<path d="M61.5188 28.4988
L64.9478 28.4988
" />
<path d="M64.9478 28.4988
L66.0908 27.3558
" />
<path d="M59.9188 30.0988
L61.5188 28.4988
" />
<path d="M43.7388 20.4978
L43.7388 21.8948
" />
<path d="M36.6268 20.2438
L37.1348 19.7358
" />
<path d="M42.9768 19.7358
L43.7388 20.4978
" />
<path d="M37.1348 19.7358
L42.9768 19.7358
" />
<path d="M36.6268 21.8948
L36.6268 20.2438
" />
<path d="M26.9748 17.0688
L26.9748 14.2748
" />
<path d="M34.0868 21.8948
L34.0868 23.4188
" />
<path d="M25.5228 11.0448
L25.5228 10.1068
" />
<path d="M26.9748 14.2748
L26.9748 12.4968
" />
<path d="M34.0868 23.4188
L33.4518 24.0538
" />
<path d="M25.5228 10.1068
L25.5228 3.6068
" />
<path d="M26.9748 12.4968
L25.5228 11.0448
" />
<path d="M29.1338 19.2278
L26.9748 17.0688
" />
<path d="M33.4518 24.0538
L29.8958 24.0538
" />
<path d="M29.8958 24.0538
L29.1338 23.2918
" />
<path d="M29.1338 23.2918
L29.1338 19.2278
" />
<path d="M40.4368 16.1798
L40.4368 12.3698
" />
<path d="M40.4368 12.3698
L38.6588 10.5918
" />
<path d="M39.4208 17.1958
L40.4368 16.1798
" />
<path d="M38.6588 10.5918
L38.6588 8.6868
" />
<path d="M32.8168 17.1958
L39.4208 17.1958
" />
<path d="M31.5468 21.8948
L31.5468 18.4658
" />
<path d="M31.5468 18.4658
L32.8168 17.1958
" />
<path d="M39.1668 12.7508
L37.3888 10.9728
" />
<path d="M39.1668 14.2748
L39.1668 12.7508
" />
<path d="M37.3888 10.9728
L37.3888 7.4168
" />
<path d="M37.3888 7.4168
L36.1188 6.1468
" />
<path d="M34.8488 16.3068
L37.1348 16.3068
" />
<path d="M37.8968 12.4968
L36.1188 10.7188
" />
<path d="M37.8968 15.5448
L37.8968 12.4968
" />
<path d="M36.1188 10.7188
L36.1188 8.6868
" />
<path d="M37.1348 16.3068
L37.8968 15.5448
" />
<path d="M34.0868 15.5448
L34.8488 16.3068
" />
<path d="M34.0868 14.2748
L34.0868 15.5448
" />
<path d="M36.6268 14.2748
L36.6268 12.7508
" />
<path d="M33.5788 9.7028
L33.5788 8.6868
" />
<path d="M36.6268 12.7508
L33.5788 9.7028
" />
<path style="fill:#000000; fill-opacity:1.0000; stroke:none;fill-rule:evenodd;"
d="M 44.7631,30.0239
44.8697,30.0379
44.9017,30.0465
44.9934,30.0845
45.0221,30.1010
45.1007,30.1614
45.1242,30.1849
45.1846,30.2635
45.2011,30.2922
45.2391,30.3839
45.2477,30.4159
45.2617,30.5225
45.2628,30.5391
45.2628,39.6665
45.2617,39.6831
45.2477,39.7897
45.2391,39.8217
45.2011,39.9134
45.1846,39.9421
45.1242,40.0207
45.1007,40.0442
45.0221,40.1046
44.9934,40.1211
44.9905,40.1223
44.9419,40.1320
17.1357,40.1320
17.0871,40.1223
17.0871,40.1223
17.0842,40.1211
17.0555,40.1046
16.9769,40.0442
16.9534,40.0207
16.8930,39.9421
16.8765,39.9134
16.8385,39.8217
16.8299,39.7897
16.8159,39.6831
16.8148,39.6665
16.8148,35.6191
16.8159,35.6025
16.8299,35.4959
16.8385,35.4639
16.8765,35.3722
16.8930,35.3435
16.9534,35.2649
16.9769,35.2414
17.0532,35.1828
38.2798,35.1828
38.2902,35.2884
38.3192,35.3841
38.3664,35.4724
38.4299,35.5497
38.5072,35.6132
38.5955,35.6604
38.6912,35.6894
38.7969,35.6999
40.3523,35.6969
40.4368,35.6124
40.9448,35.6124
41.0293,35.6969
42.5847,35.6999
42.6904,35.6894
42.7861,35.6604
42.8744,35.6132
42.9517,35.5497
43.0152,35.4724
43.0624,35.3841
43.0914,35.2884
43.1018,35.1828
43.0990,34.5274
43.0144,34.4428
40.9448,34.4428
40.9448,35.6124
40.4368,35.6124
40.4368,34.4428
38.3672,34.4428
38.2826,34.5274
38.2798,35.1828
17.0532,35.1828
17.0555,35.1810
17.0842,35.1645
17.1759,35.1265
17.2079,35.1179
17.3145,35.1039
17.3311,35.1028
33.0666,35.1028
33.0749,35.1023
33.1940,35.0866
33.2100,35.0823
33.2361,35.0715
33.2361,35.0715
33.3171,35.0379
33.3314,35.0297
33.4234,34.9591
33.4351,34.9474
33.5057,34.8554
33.5139,34.8411
33.5583,34.7340
33.5626,34.7180
33.5783,34.5989
33.5788,34.5906
33.5788,33.1948
38.2798,33.1948
38.2826,33.8502
38.3672,33.9348
40.4368,33.9348
40.4368,32.7652
40.9448,32.7652
40.9448,33.9348
43.0144,33.9348
43.0990,33.8502
43.1018,33.1948
43.0914,33.0892
43.0624,32.9935
43.0152,32.9052
42.9517,32.8279
42.8744,32.7644
42.7861,32.7172
42.6904,32.6882
42.5847,32.6777
41.0293,32.6807
40.9448,32.7652
40.4368,32.7652
40.3523,32.6807
38.7969,32.6777
38.6912,32.6882
38.5955,32.7172
38.5072,32.7644
38.4299,32.8279
38.3664,32.9052
38.3192,32.9935
38.2902,33.0892
38.2798,33.1948
33.5788,33.1948
33.5788,30.5391
33.5799,30.5225
33.5939,30.4159
33.6025,30.3839
33.6405,30.2922
33.6570,30.2635
33.7174,30.1849
33.7409,30.1614
33.8195,30.1010
33.8482,30.0845
33.9399,30.0465
33.9719,30.0379
34.0785,30.0239
34.0951,30.0228
44.7465,30.0228
Z" /> 
</g>
<g style="fill:#FFFFFF; fill-opacity:1.0000; stroke:none;">
<circle cx="64.9478" cy="22.0218" r="0.2032" /> 
</g>
<g style="fill:#FFFFFF; fill-opacity:1.0000; stroke:none;">
<circle cx="64.8208" cy="30.1498" r="0.2032" /> 
</g>
<g style="fill:#FFFFFF; fill-opacity:1.0000; stroke:none;">
<circle cx="64.9478" cy="13.8938" r="0.2032" /> 
</g>
<g style="fill:#FFFFFF; fill-opacity:1.0000; stroke:none;">
<circle cx="31.5468" cy="32.0548" r="0.4000" /> 
</g>
<g style="fill:#FFFFFF; fill-opacity:1.0000; stroke:none;">
<circle cx="31.5468" cy="28.5548" r="0.4000" /> 
</g>
<g style="fill:#FFFFFF; fill-opacity:1.0000; stroke:none;">
<circle cx="47.2948" cy="26.4668" r="0.4000" /> 
</g>
<g style="fill:#FFFFFF; fill-opacity:1.0000; stroke:none;">
<circle cx="47.2948" cy="23.9668" r="0.4000" /> 
</g>
<g style="fill:#FFFFFF; fill-opacity:1.0000; stroke:none;">
<circle cx="51.8668" cy="37.1348" r="1.6000" /> 
</g>
<g style="fill:#FFFFFF; fill-opacity:1.0000; stroke:none;">
<circle cx="54.2668" cy="37.1348" r="0.2500" /> 
</g>
<g style="fill:#FFFFFF; fill-opacity:1.0000; stroke:none;">
<circle cx="51.8668" cy="39.5348" r="0.2500" /> 
</g>
<g style="fill:#FFFFFF; fill-opacity:1.0000; stroke:none;">
<circle cx="50.1697" cy="35.4377" r="0.2500" /> 
</g>
<g style="fill:#FFFFFF; fill-opacity:1.0000; stroke:none;">
<circle cx="53.5639" cy="35.4377" r="0.2500" /> 
</g>
<g style="fill:#FFFFFF; fill-opacity:1.0000; stroke:none;">
<circle cx="51.8668" cy="34.7348" r="0.2500" /> 
</g>
<g style="fill:#FFFFFF; fill-opacity:1.0000; stroke:none;">
<circle cx="50.1697" cy="38.8319" r="0.2500" /> 
</g>
<g style="fill:#FFFFFF; fill-opacity:1.0000; stroke:none;">
<circle cx="49.4668" cy="37.1348" r="0.2500" /> 
</g>
<g style="fill:#FFFFFF; fill-opacity:1.0000; stroke:none;">
<circle cx="53.5639" cy="38.8319" r="0.2500" /> 
</g>
<g style="fill:#FFFFFF; fill-opacity:1.0000; stroke:none;">
<circle cx="50.1697" cy="1.9097" r="0.2500" /> 
</g>
<g style="fill:#FFFFFF; fill-opacity:1.0000; stroke:none;">
<circle cx="54.2668" cy="3.6068" r="0.2500" /> 
</g>
<g style="fill:#FFFFFF; fill-opacity:1.0000; stroke:none;">
<circle cx="53.5639" cy="5.3039" r="0.2500" /> 
</g>
<g style="fill:#FFFFFF; fill-opacity:1.0000; stroke:none;">
<circle cx="50.1697" cy="5.3039" r="0.2500" /> 
</g>
<g style="fill:#FFFFFF; fill-opacity:1.0000; stroke:none;">
<circle cx="51.8668" cy="1.2068" r="0.2500" /> 
</g>
<g style="fill:#FFFFFF; fill-opacity:1.0000; stroke:none;">
<circle cx="51.8668" cy="6.0068" r="0.2500" /> 
</g>
<g style="fill:#FFFFFF; fill-opacity:1.0000; stroke:none;">
<circle cx="51.8668" cy="3.6068" r="1.6000" /> 
</g>
<g style="fill:#FFFFFF; fill-opacity:1.0000; stroke:none;">
<circle cx="53.5639" cy="1.9097" r="0.2500" /> 
</g>
<g style="fill:#FFFFFF; fill-opacity:1.0000; stroke:none;">
<circle cx="49.4668" cy="3.6068" r="0.2500" /> 
</g>
<g style="fill:#FFFFFF; fill-opacity:1.0000; stroke:none;">
<circle cx="1.9097" cy="5.3039" r="0.2500" /> 
</g>
<g style="fill:#FFFFFF; fill-opacity:1.0000; stroke:none;">
<circle cx="3.6068" cy="3.6068" r="1.6000" /> 
</g>
<g style="fill:#FFFFFF; fill-opacity:1.0000; stroke:none;">
<circle cx="5.3039" cy="1.9097" r="0.2500" /> 
</g>
<g style="fill:#FFFFFF; fill-opacity:1.0000; stroke:none;">
<circle cx="5.3039" cy="5.3039" r="0.2500" /> 
</g>
<g style="fill:#FFFFFF; fill-opacity:1.0000; stroke:none;">
<circle cx="6.0068" cy="3.6068" r="0.2500" /> 
</g>
<g style="fill:#FFFFFF; fill-opacity:1.0000; stroke:none;">
<circle cx="1.2068" cy="3.6068" r="0.2500" /> 
</g>
<g style="fill:#FFFFFF; fill-opacity:1.0000; stroke:none;">
<circle cx="1.9097" cy="1.9097" r="0.2500" /> 
</g>
<g style="fill:#FFFFFF; fill-opacity:1.0000; stroke:none;">
<circle cx="3.6068" cy="1.2068" r="0.2500" /> 
</g>
<g style="fill:#FFFFFF; fill-opacity:1.0000; stroke:none;">
<circle cx="3.6068" cy="6.0068" r="0.2500" /> 
</g>
<g style="fill:#FFFFFF; fill-opacity:1.0000; stroke:none;">
<circle cx="5.3039" cy="35.4377" r="0.2500" /> 
</g>
<g style="fill:#FFFFFF; fill-opacity:1.0000; stroke:none;">
<circle cx="3.6068" cy="39.5348" r="0.2500" /> 
</g>
<g style="fill:#FFFFFF; fill-opacity:1.0000; stroke:none;">
<circle cx="5.3039" cy="38.8319" r="0.2500" /> 
</g>
<g style="fill:#FFFFFF; fill-opacity:1.0000; stroke:none;">
<circle cx="1.2068" cy="37.1348" r="0.2500" /> 
</g>
<g style="fill:#FFFFFF; fill-opacity:1.0000; stroke:none;">
<circle cx="1.9097" cy="38.8319" r="0.2500" /> 
</g>
<g style="fill:#FFFFFF; fill-opacity:1.0000; stroke:none;">
<circle cx="1.9097" cy="35.4377" r="0.2500" /> 
</g>
<g style="fill:#FFFFFF; fill-opacity:1.0000; stroke:none;">
<circle cx="6.0068" cy="37.1348" r="0.2500" /> 
</g>
<g style="fill:#FFFFFF; fill-opacity:1.0000; stroke:none;">
<circle cx="3.6068" cy="34.7348" r="0.2500" /> 
</g>
<g style="fill:#FFFFFF; fill-opacity:1.0000; stroke:none;">
<circle cx="3.6068" cy="37.1348" r="1.6000" /> 
</g>
<g style="fill:#FFFFFF; fill-opacity:1.0000; stroke:none;">
<circle cx="68.6308" cy="17.8308" r="0.5000" /> 
</g>
<g style="fill:#FFFFFF; fill-opacity:1.0000; stroke:none;">
<circle cx="68.6308" cy="20.3708" r="0.5000" /> 
</g>
<g style="fill:#FFFFFF; fill-opacity:1.0000; stroke:none;">
<circle cx="68.6308" cy="22.9108" r="0.5000" /> 
</g>
<g style="fill:#FFFFFF; fill-opacity:1.0000; stroke:none;">
<circle cx="33.5788" cy="8.6868" r="0.5000" /> 
</g>
<g style="fill:#FFFFFF; fill-opacity:1.0000; stroke:none;">
<circle cx="33.5788" cy="6.1468" r="0.5000" /> 
</g>
<g style="fill:#FFFFFF; fill-opacity:1.0000; stroke:none;">
<circle cx="36.1188" cy="8.6868" r="0.5000" /> 
</g>
<g style="fill:#FFFFFF; fill-opacity:1.0000; stroke:none;">
<circle cx="36.1188" cy="6.1468" r="0.5000" /> 
</g>
<g style="fill:#FFFFFF; fill-opacity:1.0000; stroke:none;">
<circle cx="38.6588" cy="8.6868" r="0.5000" /> 
</g>
<g style="fill:#FFFFFF; fill-opacity:1.0000; stroke:none;">
<circle cx="38.6588" cy="6.1468" r="0.5000" /> 
</g>
<g style="fill:#FFFFFF; fill-opacity:1.0000; stroke:none;">
<circle cx="24.4348" cy="33.0708" r="0.5000" /> 
</g>
<g style="fill:#FFFFFF; fill-opacity:1.0000; stroke:none;">
<circle cx="24.4348" cy="30.5308" r="0.5000" /> 
</g>
<g style="fill:#FFFFFF; fill-opacity:1.0000; stroke:none;">
<circle cx="47.2948" cy="33.0708" r="0.5000" /> 
</g>
<g style="fill:#FFFFFF; fill-opacity:1.0000; stroke:none;">
<circle cx="47.2948" cy="30.5308" r="0.5000" /> 
</g>
<g style="fill:#FFFFFF; fill-opacity:1.0000; stroke:none;">
<circle cx="43.7388" cy="14.2748" r="0.4000" /> 
</g>
<g style="fill:#FFFFFF; fill-opacity:1.0000; stroke:none;">
<circle cx="43.7388" cy="21.8948" r="0.4000" /> 
</g>
<g style="fill:#FFFFFF; fill-opacity:1.0000; stroke:none;">
<circle cx="26.9748" cy="14.2748" r="0.4000" /> 
</g>
<g style="fill:#FFFFFF; fill-opacity:1.0000; stroke:none;">
<circle cx="26.9748" cy="21.8948" r="0.4000" /> 
</g>
<g style="fill:#FFFFFF; fill-opacity:1.0000; stroke:none;">
<circle cx="31.5468" cy="21.8948" r="0.4000" /> 
</g>
<g style="fill:#FFFFFF; fill-opacity:1.0000; stroke:none;">
<circle cx="34.0868" cy="21.8948" r="0.4000" /> 
</g>
<g style="fill:#FFFFFF; fill-opacity:1.0000; stroke:none;">
<circle cx="36.6268" cy="21.8948" r="0.4000" /> 
</g>
<g style="fill:#FFFFFF; fill-opacity:1.0000; stroke:none;">
<circle cx="39.1668" cy="21.8948" r="0.4000" /> 
</g>
<g style="fill:#FFFFFF; fill-opacity:1.0000; stroke:none;">
<circle cx="39.1668" cy="14.2748" r="0.4000" /> 
</g>
<g style="fill:#FFFFFF; fill-opacity:1.0000; stroke:none;">
<circle cx="36.6268" cy="14.2748" r="0.4000" /> 
</g>
<g style="fill:#FFFFFF; fill-opacity:1.0000; stroke:none;">
<circle cx="34.0868" cy="14.2748" r="0.4000" /> 
</g>
<g style="fill:#FFFFFF; fill-opacity:1.0000; stroke:none;">
<circle cx="31.5468" cy="14.2748" r="0.4000" /> 
</g>
<g style="fill:#FFFFFF; fill-opacity:1.0000; stroke:none;">
<circle cx="30.0228" cy="10.1068" r="0.5500" /> 
</g>
<g style="fill:#FFFFFF; fill-opacity:1.0000; stroke:none;">
<circle cx="30.0228" cy="3.6068" r="0.5500" /> 
</g>
<g style="fill:#FFFFFF; fill-opacity:1.0000; stroke:none;">
<circle cx="25.5228" cy="10.1068" r="0.5500" /> 
</g>
<g style="fill:#FFFFFF; fill-opacity:1.0000; stroke:none;">
<circle cx="25.5228" cy="3.6068" r="0.5500" /> 
</g> 
</svg>
